<svg xmlns="http://www.w3.org/2000/svg" viewBox="0 0 293.02 326.01"><defs><style>.cls-1{fill:#1a1a1a;}</style></defs><title>Entelect_Logo_Trace</title><g id="Layer_4_copy" data-name="Layer 4 copy"><path d="M259.3,265.2a27.16,27.16,0,0,1-5.07,8.08c-17.59,20-36.86,31.16-62.68,36.18-65.41,12.73-122.88-30.57-144.84-84.58C23.34,167.41,39.43,114.07,76.9,79c30-28.1,70.65-39.16,105.2-22a48.39,48.39,0,0,1,9.49,5.84s-4.6-1.08-9.6-1.92c-53.12-9.34-90.9,19.46-111,67.93-22.12,53.37,5,120.37,57.63,139.59,35.91,13.13,69.45,7.86,98.37-18.34a46.87,46.87,0,0,0,4.92-5.57Z"/></g><g id="Layer_3_copy" data-name="Layer 3 copy"><path class="cls-1" d="M116.14,157c1.44.79,2.87,1.52,4.26,2.18a118.32,118.32,0,0,0,22,7.84,108.28,108.28,0,0,0,46.23,1.54l1.83-.37c26.22-5.53,50.23-22.28,62.94-45.87,13.69-25.42,13.29-58.16-3.73-81.77A146.55,146.55,0,0,0,239,27.43l14.26,11.46a103.52,103.52,0,0,1,21.77,22.92,99.61,99.61,0,0,1,13.19,87.44,103.91,103.91,0,0,1-8,18.5c-12.66,22.73-33.56,40.45-57.44,50.8s-50.57,13.52-76.44,10.78c-12.21-1.29-25-4.22-33.85-12.67-18.36-17.45-12.19-45-6.55-66.62a1.46,1.46,0,0,0,0-.2A52.46,52.46,0,0,0,116.14,157Z"/></g><g id="Layer_5_copy" data-name="Layer 5 copy"><path d="M260.25,267.33c-2.19,2.69-3.93,5.89-6.15,8.64a87.52,87.52,0,0,1-7.29,8,97,97,0,0,1-17.15,13.24c-2.47,1.5-5,2.9-7.6,4.19-14.64,7.31-30.84,11.17-47.11,12.4A114.24,114.24,0,0,1,142,311.22a123.54,123.54,0,0,1-31-11.6A125.6,125.6,0,0,1,86.06,283.4C74.48,273.64,67.17,263.71,62.21,257c-2.9-3.93-4.88-7-5.7-8.27a143.17,143.17,0,0,1-10-18.48A154.15,154.15,0,0,1,36.1,195.84,143.16,143.16,0,0,1,34,173.71a125.42,125.42,0,0,1,10.84-53.12,131.73,131.73,0,0,1,32.75-45Q81.63,72,86,68.71c20.3-15.09,45.89-24.12,71-21.09a74,74,0,0,1,45.64,23.31,59.81,59.81,0,0,1,9.62,14c2.44,5.14,3.23,10.92,3.39,16.56.26,9.42-1.2,19.11-5.89,27.29-3.85,6.73-9.7,12.13-16.08,16.54a68.71,68.71,0,0,1-27,11.49,58,58,0,0,1-27.34-1.85c-5.94-1.88-12.09-3.91-16.83-8.18-4.08.13-8.4-.08-12.4.5a60.52,60.52,0,0,0,19.59,12.26A101.46,101.46,0,0,0,155,166.05a100.07,100.07,0,0,0,51.23-6.77c21.53-9.08,39.85-26.32,48.6-48s7.25-47.6-5.38-67.26c-9.33-14.52-24-25-39.71-32.12A135.8,135.8,0,0,0,159.35.09c-30-1.19-60.19,9.32-85,25.78A164.87,164.87,0,0,0,.07,168.9,163.66,163.66,0,0,0,6.77,211a180.09,180.09,0,0,0,12.9,31.58,154.31,154.31,0,0,0,18.26,28.26,157.48,157.48,0,0,0,20,20.09,143.85,143.85,0,0,0,36.53,23.31,142.26,142.26,0,0,0,28.84,8.84c16,3.2,32.74,3.59,49,2.11a125.81,125.81,0,0,0,30.47-6.37,105.8,105.8,0,0,0,44-29.7,81,81,0,0,0,8-10.56,61.11,61.11,0,0,0,3.25-5.87A25.82,25.82,0,0,0,260.25,267.33Z"/></g></svg>