<?xml version="1.0" encoding="UTF-8"?> <svg xmlns="http://www.w3.org/2000/svg" xmlns:xlink="http://www.w3.org/1999/xlink" width="219px" height="482px" viewBox="0 0 219 482"><!-- Generator: Sketch 52.3 (67297) - http://www.bohemiancoding.com/sketch --><title>class_commodore</title><desc>Created with Sketch.</desc><g id="class_commodore" stroke="none" stroke-width="1" fill="none" fill-rule="evenodd" stroke-linecap="round" stroke-linejoin="round"><g id="Group-155" stroke="#1C75BB"><path d="M79.0121,46.8318 L73.1271,43.2548 L70.5891,44.2938 L79.1291,48.7238 M103.4731,14.2948 C103.4731,14.2948 90.7771,16.1438 89.9141,17.6998 C86.1011,24.5728 99.4771,30.3228 101.6391,37.8788 L103.3581,37.8788" id="Stroke-1" stroke-width="0.891"></path><path d="M88.0478,37.3431 C87.3558,36.2521 86.3628,35.3181 85.1478,34.8781 C83.9328,34.4381 82.4878,34.5481 81.4548,35.3241 C80.4218,36.1001 79.9158,37.5781 80.4178,38.7691 C80.4808,38.6411 80.5448,38.5131 80.6088,38.3861 M73.4938,50.3961 C73.5998,49.2501 73.9048,48.4921 74.3778,48.4071 C75.2878,48.2451 76.4748,50.6301 77.0298,53.7341 C77.5838,56.8381 77.2958,59.4871 76.3868,59.6491" id="Stroke-3" stroke-width="0.445"></path><path d="M89.1781,19.2523 C89.1781,19.2523 80.5191,19.3673 76.4771,36.5533 L84.8911,42.1063 M70.5891,44.2803 L71.1921,57.8003 L77.8631,63.7733 L80.6881,78.1033" id="Stroke-5" stroke-width="0.891"></path><path d="M73.8265,31.4469 C74.3885,33.7709 76.4895,36.5639 76.4895,36.5639 C76.4895,36.5639 73.2515,38.6399 73.1355,43.2529 M72.2105,0.4679 C72.2105,0.4679 73.3665,-0.9151 73.3665,2.8899 L73.3665,25.1469 L75.4485,25.1469 C75.4485,25.1469 76.8365,27.1079 74.4075,28.8369" id="Stroke-7" stroke-width="0.445"></path><path d="M70.7309,24.7254 L70.7309,43.7474" id="Stroke-9" stroke-width="0.891"></path><path d="M100.9705,67.8881 C106.4425,66.3921 111.0395,69.1511 115.6365,70.9901 C122.0715,65.4731 129.4265,56.2781 125.7485,47.0821 C124.8295,45.2431 122.9905,44.3241 121.8555,43.6991 M85.9535,43.6991 C76.9365,47.7961 83.4005,61.4691 87.6805,66.7971" id="Stroke-11" stroke-width="0.445"></path><path d="M103.0121,90.848 L99.3151,90.848 L94.8101,89.69 C94.8101,89.69 89.3801,90.153 89.3801,96.29" id="Stroke-13" stroke-width="0.891"></path><path d="M77.8613,63.7625 C77.8613,63.7625 78.8993,61.4565 81.5523,66.8765 C82.6673,69.1545 84.0273,72.8195 85.2293,76.3015 C86.8863,81.1025 88.2423,85.5575 88.2423,85.5575 C92.2793,88.5555 92.5103,90.0545 92.5103,90.0545 M88.2423,85.5575 L79.2453,80.3675 C79.2453,80.3675 73.5933,76.3315 73.7093,83.9425 C73.8243,91.5535 80.9753,91.6685 80.9753,91.6685 L86.3963,95.3585 L95.2783,98.2415 L95.2783,101.0095 L100.3533,101.0095 M80.2833,81.1755 C80.2833,87.1025 85.0813,91.8995 91.0103,91.8995 M84.1123,50.0405 C84.1123,58.5095 87.4053,66.1025 92.6273,71.2785" id="Stroke-15" stroke-width="0.445"></path><path d="M127.5985,46.8318 L133.4835,43.2548 L134.9075,44.8918 L127.4815,48.7238 M103.1365,14.2948 C103.1365,14.2948 115.8325,16.1438 116.6965,17.6998 C120.5095,24.5728 107.1325,30.3228 104.9705,37.8788 L103.2525,37.8788" id="Stroke-17" stroke-width="0.891"></path><path d="M118.562,37.3509 C119.255,36.2569 120.249,35.3199 121.465,34.8789 C122.681,34.4379 124.127,34.5479 125.161,35.3259 C126.195,36.1039 126.701,37.5869 126.199,38.7809 C126.135,38.6529 126.071,38.5249 126.007,38.3969" id="Stroke-19" stroke-width="0.445"></path><path d="M117.4465,19.2523 C117.4465,19.2523 126.1025,19.3673 130.1415,36.5513 L121.7315,42.1043 M103.5975,90.8693 L107.2905,90.8693 L111.7915,89.7163 C111.7915,89.7163 117.2155,90.1773 117.2155,96.2893" id="Stroke-21" stroke-width="0.891"></path><path d="M114.0958,90.0572 C114.0958,90.0572 114.3198,88.5942 118.2368,85.6672 C118.2368,85.6672 122.1538,72.7232 124.7278,67.4332 C127.3018,62.1432 127.1018,63.9442 127.1018,63.9442" id="Stroke-23" stroke-width="0.433"></path><path d="M118.3679,85.5509 L127.3649,80.3599 C127.3649,80.3599 131.7169,77.5629 131.6019,85.1769 C131.4869,92.7909 125.6349,91.6649 125.6349,91.6649 L120.2139,95.3569 L111.3319,98.2409 L111.3319,101.0089 L106.2569,101.0089 M126.3269,81.1669 C126.3269,87.0969 121.5289,91.8959 115.5999,91.8959" id="Stroke-25" stroke-width="0.445"></path><path d="M130.1129,36.5447 C130.1129,36.5447 134.3939,36.7857 133.4839,43.2597" id="Stroke-27" stroke-width="0.891"></path><path d="M74.1594,87.5791 C74.1594,87.5791 69.6484,91.9271 70.7004,101.8231" id="Stroke-29" stroke-width="0.445"></path><path d="M73.1181,83.9772 C72.6681,83.9772 59.4821,88.4712 59.4821,88.4712 L56.9351,92.2172 L51.8411,93.7152 L49.4431,95.8122 L41.2021,109.8952 C41.2021,109.8952 43.0001,112.2922 42.5501,112.2922 C42.1011,112.2922 39.5541,110.7942 36.4071,114.3892 C33.2601,117.9852 30.1141,124.7262 29.5141,124.7262 C28.9151,124.7262 24.5941,126.5242 24.5941,126.5242 C24.5941,126.5242 23.6711,127.7222 24.4201,131.3182 C21.8721,133.1162 10.0351,153.9402 13.9311,164.5772 C13.9311,164.5772 9.0491,164.1342 8.0001,166.6812 C4.5541,167.5802 4.1911,169.5202 4.0411,171.3182 C3.8921,173.1162 0.4451,191.2432 0.4451,191.2432 C0.4451,191.2432 2.8191,193.1832 5.3661,201.8722 C2.5191,202.6212 3.7421,202.6292 3.7421,202.6292 L7.0381,220.0082 C7.0381,220.0082 18.2761,215.6632 26.0681,219.1092 M3.5921,173.4162 C3.5921,171.1802 9.4231,167.8782 16.3801,167.8782 M8.0001,166.6812 C8.0001,166.4332 12.6351,165.8432 16.8591,165.8432 M3.7421,202.6292 C3.7421,201.7182 13.9291,200.9812 26.5181,200.9812 M0.4451,191.2432 C0.4451,187.1032 11.3691,183.7532 24.8691,183.7532 M2.8521,195.1692 C2.8521,190.6972 12.6911,186.4492 24.1201,186.4492" id="Stroke-31" stroke-width="0.891"></path><path d="M1.5009,184.9516 C1.5009,182.8786 4.5219,181.2006 8.2549,181.2006 M2.8519,180.6006 C2.8519,179.6056 5.2679,178.8006 8.2549,178.8006 M3.1519,177.5996 C3.1519,176.9366 5.5679,176.3996 8.5549,176.3996" id="Stroke-33" stroke-width="0.445"></path><path d="M105.6845,35.283 L112.3635,35.283 C112.3635,35.283 118.7545,34.218 121.7365,42.1 C125.7845,43.165 127.4885,45.934 127.4885,48.703 C127.4885,51.473 126.2105,62.763 126.2105,62.763 L122.0515,72.988 L115.3465,78.228 L112.5765,83.127 L104.0555,85.257 L102.5545,85.257 L94.0335,83.127 L91.2635,78.228 L83.9345,72.988 L80.3995,62.763 C80.3995,62.763 79.1215,51.473 79.1215,48.703 C79.1215,45.934 80.8255,43.165 84.8735,42.1 C87.8555,34.218 94.2465,35.283 94.2465,35.283 L100.7505,35.283" id="Stroke-35" stroke-width="0.891"></path><path d="M80.4086,114.762 C80.4086,114.762 71.4806,121.086 70.5506,128.155 C69.6206,135.223 69.9926,137.084 69.9926,137.084 L69.9926,166.474 C69.9926,166.474 70.9226,182.099 83.7566,187.307 M56.9226,92.222 L66.8306,100.997 L51.3916,119.04 L46.9276,118.668 L33.9076,136.526 L50.8336,122.575 C50.8336,122.575 58.6046,192.324 59.2036,157.545 C59.5756,135.968 50.8336,122.575 50.8336,122.575 M162.1006,133.52 C156.9956,144.507 157.9146,156.457 157.9146,168.406 C157.9146,169.326 159.7536,169.326 159.7536,169.326 C162.5106,158.295 163.4296,146.346 164.9976,135.195" id="Stroke-37" stroke-width="0.445"></path><path d="M57.7142,184.5132 L57.7142,172.2342 C55.4822,166.6522 53.0632,159.7682 53.0632,159.7682 L53.0632,183.3972 L60.8762,198.6532 L64.5152,202.5592 C64.5152,202.5592 83.3852,202.3742 83.3852,202.5602 L83.3852,196.2342 L103.4762,196.2342 L103.4762,189.0202 L110.2412,189.0202 L114.7862,190.6112 L129.5582,190.6112 L129.5582,188.1112 L132.2852,188.1112 L132.2852,194.7032 L134.7842,194.7032 L137.6252,197.5442 L137.6252,213.3412 L161.3732,213.3412 M32.9712,136.1682 C32.9712,136.1682 15.9732,144.0342 17.2422,165.8562 L52.2532,159.7662 L40.5832,170.4242 L29.4202,206.2022 L26.1212,209.7542 L25.3602,216.8592" id="Stroke-39" stroke-width="0.891"></path><path d="M40.1939,170.5944 C37.0049,170.9134 33.8159,171.2334 30.6269,171.5524 C29.5509,171.6594 28.1549,172.1144 28.2099,173.1934 C28.2449,173.8794 28.9249,174.3644 29.5929,174.5244 C30.2619,174.6854 30.9679,174.6314 31.6329,174.8024 C33.0819,175.1744 34.0849,176.5704 34.4299,178.0254 C34.7749,179.4794 34.5829,181.0014 34.3899,182.4844 C32.8939,182.9554 31.3979,183.4264 29.9009,183.8984 C31.9419,184.4594 33.6549,186.0954 34.3059,188.1084" id="Stroke-41" stroke-width="0.445"></path><path d="M24.1697,186.5519 C22.7657,189.4549 21.7497,193.6909 24.0867,195.9139 C27.0947,198.7739 27.6907,201.3919 30.6407,202.2119 M25.5597,219.3389 C25.5927,221.0579 25.6257,222.7779 25.6597,224.4969 C25.0947,224.3189 24.4407,224.4629 24.0027,224.8609 C24.5497,224.8069 25.1157,224.9629 25.5587,225.2899 M19.2287,237.8949 C18.7727,239.2509 18.4677,240.6559 18.3187,242.0789 C18.1737,243.4729 18.1707,244.9139 17.6387,246.2099 C17.4447,246.6809 17.1787,247.1869 17.3337,247.6719 C17.4287,247.9679 17.6667,248.1939 17.8217,248.4639 C18.4407,249.5449 17.6067,250.9749 18.0557,252.1369 C17.3767,252.3339 16.6987,252.5319 16.0207,252.7289 M25.9537,225.3569 C26.5937,226.9589 27.2347,228.5619 27.8747,230.1639 C28.7727,232.4129 29.6807,234.6799 31.0277,236.6929 C31.9677,238.0969 33.1477,239.4449 33.4097,241.1129 C33.5957,242.3029 33.2857,243.5069 32.9787,244.6709 C31.1497,244.7889 29.3167,244.8589 27.4847,244.8819 C27.6107,244.7219 27.6467,244.4939 27.5757,244.3019 C27.6477,244.5059 27.3847,244.4769 27.4567,244.6799 C27.1247,243.7459 26.4677,242.9699 25.8447,242.1999 C24.4187,240.4399 23.0997,238.5949 21.8967,236.6759 C21.2657,236.8169 20.3747,236.9549 19.7437,237.0959 C19.6007,237.1279 19.4217,237.2039 19.4327,237.3499 C19.4377,237.4289 19.5017,237.4909 19.5287,237.5659 C19.5547,237.6409 19.5037,237.7539 19.4287,237.7279 M15.5917,252.8819 C16.0967,253.8519 16.6307,254.8059 17.1937,255.7429 C18.4127,257.7719 19.8157,259.8769 19.7997,262.2429 C19.7297,262.0469 19.7127,261.8329 19.7497,261.6279 M7.2337,245.4269 C8.0457,247.5659 8.8567,249.7049 9.6687,251.8429 C9.8397,252.2929 10.0107,252.7419 10.2017,253.1819 C10.4407,253.7329 10.7107,254.2689 10.9817,254.8039 C12.2217,257.2599 13.4617,259.7169 14.7027,262.1729 C15.6157,263.9799 16.3227,264.1859 18.2977,263.5239 C18.8827,263.3279 19.5467,262.8719 19.4237,262.2669 M6.8377,220.1579 C7.2887,223.2099 6.0817,226.2429 5.8157,229.3169 C5.6957,230.7119 5.7697,232.1169 5.7517,233.5169 C5.7187,236.0729 5.3747,238.6239 4.7297,241.0969 C4.5737,241.6949 4.3987,242.3019 4.4307,242.9199 C4.4827,243.9399 5.0847,244.8379 5.6667,245.6779 C5.5727,245.4989 5.4797,245.3189 5.3857,245.1399 M5.6807,245.9509 C6.0127,247.8639 6.3447,249.7769 6.6757,251.6899 C6.9387,253.2039 7.2027,254.7249 7.6937,256.1799 C8.0737,257.3039 8.5847,258.3789 9.0947,259.4499 C9.8047,260.9409 10.5147,262.4329 11.2257,263.9239 C11.3997,264.2889 11.5837,264.6679 11.9017,264.9179 C12.1427,265.1079 12.4417,265.2079 12.7387,265.2799 C14.2697,265.6549 16.1877,265.1929 16.7927,263.7379 M16.9437,247.3239 C16.4117,247.1739 15.8287,247.2069 15.3167,247.4179 M17.3867,251.3499 C16.8327,251.2139 16.2797,251.0779 15.7257,250.9409 C15.4037,250.8619 14.9207,250.8969 14.9167,251.2279 C14.9157,251.2999 14.9397,251.3849 14.8897,251.4369 C14.8397,251.4899 14.7387,251.3739 14.8107,251.3639 M18.1177,252.4839 C18.3817,253.0799 18.6457,253.6759 18.9097,254.2719 C19.3197,255.1959 19.7377,256.1799 19.6007,257.1809 C19.5377,257.6369 19.3407,258.0979 18.9657,258.3659 C18.8687,258.4349 18.7557,258.4959 18.7067,258.6049 M26.1087,219.1159 C26.4757,219.2999 26.8417,219.4829 27.2087,219.6669 C27.3687,218.7369 27.1937,217.7539 26.7237,216.9359 C26.6877,217.0979 26.4727,217.1279 26.3077,217.1149 C24.3507,216.9689 22.5467,215.8859 20.5867,215.8059 C20.6767,215.9529 20.9287,215.9509 21.0167,215.8029" id="Stroke-43" stroke-width="0.891"></path><path d="M25.4169,209.6124 C19.8589,208.2544 14.2469,207.1184 8.5989,206.2084 C12.4719,205.6414 16.2709,205.4574 20.1849,205.4954 C21.1149,205.5044 22.0449,205.5294 22.9729,205.5974 C23.7929,205.6574 25.0459,206.0934 25.8339,205.9244 C27.1609,205.6404 27.4819,203.3644 28.1999,202.3254 C27.7999,202.2404 27.3889,202.1514 27.0429,201.9324 C26.6959,201.7134 26.4209,201.3334 26.4439,200.9244" id="Stroke-45" stroke-width="0.445"></path><path d="M24.5851,126.5233 C27.4841,130.7653 29.2221,133.6073 33.5341,136.4003 M24.4101,131.3183 C24.5331,132.6353 25.7891,132.8703 26.6521,133.8733 C27.8041,135.2143 29.1091,136.4213 30.5311,137.4703 M145.3281,139.0773 C145.3281,129.0933 144.6081,118.9603 135.1651,113.0523 C125.4171,106.9533 113.7471,107.2383 102.7131,107.2383 C91.3241,107.2383 76.6491,108.9853 70.1801,119.6613 C65.7351,126.9953 66.6431,135.6083 66.6431,143.7903 C66.6431,153.9053 66.6431,164.0193 66.6431,174.1343 L66.6431,174.8533 M145.3281,174.8533 L145.3281,160.5573" id="Stroke-47" stroke-width="0.891"></path><path d="M141.9735,161.7612 C141.9735,167.9852 141.2205,173.6272 137.7755,179.1352 M131.5555,114.7582 C139.5345,119.6862 143.2115,129.7982 141.9735,138.9162 M86.9635,123.1742 C92.3865,121.2142 98.7795,120.0832 105.6245,120.0832 C115.4345,120.0832 124.3145,122.4062 130.7435,126.1622" id="Stroke-49" stroke-width="0.445"></path><path d="M173.5723,152.2122 C169.8653,139.9042 168.0263,127.9552 162.5083,116.0052 C162.5083,115.0862 158.8293,116.9252 156.9903,116.0052 C156.0703,115.0862 156.0703,113.2482 156.0703,112.3292 C150.5523,107.7332 143.1953,104.0562 136.7573,100.3792 C136.7573,96.7032 136.7573,93.9452 134.5423,91.2842 M151.6213,109.6762 L151.6213,132.0612 C155.8883,131.2232 153.3553,155.1712 154.1903,158.4262 C156.0703,161.9642 156.9903,165.6412 157.9103,169.3182 C157.9103,171.1562 159.7493,172.9952 158.8293,176.6712 C158.8293,178.5102 159.7493,180.3482 159.7493,182.1862 C159.7493,184.9442 158.7653,186.0612 156.6073,187.6142 C157.7253,187.9082 158.0353,186.7092 156.6073,187.6142 C157.8453,187.8992 157.9103,188.6212 158.8293,189.5402 C159.7493,195.0552 157.9103,200.5702 159.7493,205.1662 C161.5883,208.8432 162.5083,214.3582 162.5083,218.9542 C163.4283,220.7922 165.2673,220.7922 167.1063,221.7112 C168.9463,222.6302 170.7853,223.5492 171.7053,225.3882 C172.6243,227.2262 174.4643,228.1452 175.3833,229.9842 C178.1423,247.4482 175.3833,263.9932 177.2233,281.4582 C177.2233,283.2962 176.3033,285.1342 175.3833,286.9732 C174.4643,287.8922 172.6243,287.8922 170.7853,289.7302 C169.8653,289.7302 168.9463,289.7302 167.7653,289.9912 C166.3743,277.3942 168.6263,289.7642 167.7653,289.9912 C165.2673,275.0242 164.3473,259.3972 163.4283,244.6912 C162.5083,241.9332 166.1873,238.2562 165.2673,234.5802 C164.3473,232.7412 164.3473,230.9032 165.2673,228.1452 C165.2673,227.2262 163.4283,226.3072 163.4283,226.3072 C155.1513,229.9842 146.8743,231.8222 138.2363,233.0932" id="Stroke-51" stroke-width="0.891"></path><path d="M73.7284,208.7673 L73.7284,202.7163 L82.8024,221.5673 L82.8024,204.5783 L76.0554,204.5783 M84.8964,198.0613 L84.8964,220.8693 L88.3864,224.3603 L126.0774,224.3603 M64.5144,202.5453 C62.4184,201.6143 59.4344,203.5393 58.7634,206.1643 C58.0924,208.7883 58.9064,211.7293 60.3504,213.8243 C61.7944,215.9193 63.7884,217.3093 65.7924,218.5123 C73.3034,223.0243 81.7384,225.5403 90.0474,224.5003" id="Stroke-53" stroke-width="0.445"></path><path d="M57.2114,206.1553 C56.5104,205.9223 53.2564,209.9223 53.2564,209.9223 L51.6194,228.7883 L55.1274,227.1573 L56.2964,218.7723" id="Stroke-55" stroke-width="0.915"></path><path d="M63.0338,228.2952 C63.0338,228.2952 70.7158,226.4332 78.3988,232.7172 C78.1658,232.4842 62.3358,283.6842 62.3358,283.6842 L56.5158,283.6842 L45.3408,265.9972 L60.9388,231.5532 M57.2138,230.6222 L49.0658,235.7422 L43.7108,255.5242 L44.8748,261.1092 L55.8168,235.0442 M51.1608,231.5532 L61.1718,225.7352" id="Stroke-57" stroke-width="0.891"></path><path d="M60.2444,243.886 L50.2314,265.062 L55.1214,273.905 M63.5044,268.087 L60.2444,277.628 L58.3814,273.905 L58.3814,279.955 L60.7104,279.955" id="Stroke-59" stroke-width="0.445"></path><path d="M148.0676,263.4116 C127.4466,267.7356 113.0346,282.0836 115.8466,295.4916 L113.1006,281.0176 L105.6046,278.5386 L99.7876,302.5016 L87.2236,333.4426 L78.6146,372.2946 C78.6146,372.2946 80.9416,375.0866 79.3126,382.2986 C81.1746,385.3226 77.4516,387.6496 77.4516,387.6496 L76.1596,392.2896 L73.3206,392.2896 L68.8376,395.8756 C68.8376,395.8756 60.7686,409.0246 56.8836,426.6546 C55.9866,429.4936 55.9866,433.2296 55.9866,433.2296 C55.9866,433.2296 57.6306,435.1716 57.0326,439.8036 C57.0326,443.5386 58.5276,445.6306 58.5276,445.6306 C58.5276,445.6306 64.9526,460.4226 65.4006,467.4446 C65.1026,469.8356 64.2056,473.7206 64.2056,473.7206 C64.2056,473.7206 54.1936,478.6516 50.4576,480.4436 C46.7226,482.2366 38.3536,480.8926 38.3536,480.8926 C38.3536,480.8926 29.6866,472.6746 27.5946,470.1346 C25.5026,467.5946 26.8476,454.7446 26.8476,454.7446 C26.8476,454.7446 29.3886,449.8146 31.0316,437.7116 C32.6756,425.6096 31.4736,429.6066 34.3166,425.5156" id="Stroke-61" stroke-width="0.977"></path><path d="M180.5144,150.5673 C185.4804,157.3633 190.9994,162.8803 194.6784,169.3163 C195.5984,172.9943 194.6784,176.6733 194.9534,180.1873 C195.5984,180.0093 196.2684,179.8973 196.9274,179.9123 C198.3584,185.8683 201.1174,191.3853 201.7844,197.0773 C195.6474,197.8293 200.8384,193.8933 201.7844,197.0773 C195.6474,197.8293 188.4684,200.0393 184.4504,205.0013 M196.7454,180.1163 C196.3274,179.3063 186.9314,183.3203 175.7374,189.0913 M194.4544,168.4823 C192.5564,164.8013 181.3054,166.8303 169.3014,173.0183 M194.1154,173.0753 C192.0644,169.1003 181.3674,169.8333 171.2044,175.0723" id="Stroke-63" stroke-width="0.891"></path><path d="M190.639,163.3837 C189.689,161.5397 186.237,161.4327 182.921,163.1447 M187.446,160.1337 C186.99,159.2487 184.474,159.6397 181.821,161.0097 M185.804,157.6017 C185.5,157.0117 183.108,157.6427 180.455,159.0117" id="Stroke-65" stroke-width="0.445"></path><path d="M173.9421,169.9786 C176.5211,171.9156 179.3651,175.2146 178.3071,178.2616 C176.9461,182.1816 177.6171,184.7816 175.3721,186.8616 M185.0191,204.9686 C185.7781,206.5116 186.5361,208.0546 187.2951,209.5986 C187.7151,209.1816 188.3621,209.0096 188.9341,209.1626 C188.4231,209.3666 187.9921,209.7636 187.7481,210.2566 M199.1511,218.5616 C200.1771,219.5576 201.0931,220.6666 201.8771,221.8626 C202.6461,223.0346 203.3091,224.3146 204.3761,225.2236 C204.7641,225.5536 205.2321,225.8806 205.3171,226.3826 C205.3681,226.6896 205.2611,226.9996 205.2471,227.3106 C205.1921,228.5546 206.5881,229.4436 206.7231,230.6816 C207.4161,230.5466 208.1091,230.4116 208.8021,230.2766 M187.4271,210.4976 C187.5931,212.2156 187.7591,213.9326 187.9251,215.6506 C188.1581,218.0606 188.3911,220.4916 188.1161,222.8976 C187.9251,224.5756 187.4941,226.3146 188.0271,227.9176 C188.4071,229.0596 189.2341,229.9886 190.0411,230.8816 C191.7201,230.1486 193.3801,229.3716 195.0191,228.5526 C194.8331,228.4686 194.6971,228.2826 194.6721,228.0796 C194.7011,228.2936 194.9221,228.1466 194.9511,228.3606 C194.8171,227.3786 195.0461,226.3886 195.2471,225.4176 C195.7061,223.2006 196.0321,220.9566 196.2221,218.6996 C196.8471,218.5366 197.7021,218.2506 198.3271,218.0866 C198.4691,218.0496 198.6621,218.0356 198.7201,218.1696 C198.7521,218.2426 198.7241,218.3276 198.7341,218.4056 C198.7441,218.4846 198.8421,218.5616 198.8971,218.5046 M207.3581,230.2266 C207.6131,231.2886 207.8361,232.3596 208.0251,233.4356 C208.4361,235.7666 208.7571,238.2756 210.3211,240.0526 C210.2461,239.8586 210.1181,239.6856 209.9561,239.5546 M213.2621,219.7616 C213.5211,222.0336 213.7801,224.3066 214.0391,226.5796 C214.0941,227.0566 214.1481,227.5346 214.1801,228.0136 C214.2201,228.6126 214.2251,229.2126 214.2311,229.8126 C214.2551,232.5636 214.2791,235.3146 214.3031,238.0666 C214.3201,240.0906 213.7861,240.5976 211.7281,240.9136 C211.1181,241.0076 210.3191,240.9066 210.1511,240.3126 M202.0291,197.1196 C203.0271,200.0396 205.4901,202.1826 207.1351,204.7926 C207.8821,205.9776 208.4591,207.2606 209.1181,208.4966 C210.3191,210.7536 211.7941,212.8636 213.5011,214.7656 C213.9141,215.2256 214.3471,215.6846 214.6021,216.2486 C215.0241,217.1786 214.9011,218.2536 214.7691,219.2666 C214.7701,219.0646 214.7711,218.8616 214.7711,218.6596 M214.8811,219.5156 C215.4631,221.3676 216.0461,223.2206 216.6281,225.0726 C217.0891,226.5376 217.5521,228.0106 217.7821,229.5296 C217.9611,230.7026 217.9991,231.8916 218.0371,233.0766 C218.0891,234.7276 218.1421,236.3786 218.1951,238.0296 C218.2081,238.4346 218.2181,238.8556 218.0501,239.2236 C217.9231,239.5016 217.7031,239.7276 217.4721,239.9286 C216.2841,240.9626 214.3671,241.4306 213.1631,240.4146 M205.5041,225.8956 C205.9081,225.5176 206.4411,225.2796 206.9921,225.2326 M184.4291,205.0216 C184.1871,205.3526 183.9461,205.6836 183.7041,206.0146 C183.1361,205.2626 182.8401,204.3086 182.8831,203.3656 C182.9891,203.4926 183.1941,203.4206 183.3351,203.3346 C185.0061,202.3086 186.1131,200.5186 187.8181,199.5496 C187.8051,199.7216 187.5801,199.8356 187.4341,199.7446" id="Stroke-67" stroke-width="0.891"></path><path d="M180.6866,196.2577 C185.0046,192.5027 189.4726,188.9197 194.0756,185.5197 C190.3736,186.7927 186.9126,188.3717 183.4516,190.2007 C182.6296,190.6347 181.8136,191.0837 181.0206,191.5697 C180.3186,191.9997 179.4056,192.9617 178.6276,193.1727 C177.3176,193.5287 175.9906,191.6537 174.8756,191.0597 C175.1926,190.7997 175.5166,190.5327 175.7246,190.1797 C175.9326,189.8267 176.0026,189.3627 175.7956,189.0097" id="Stroke-69" stroke-width="0.445"></path><path d="M134.3213,91.1022 C132.6893,91.1022 131.3533,89.7682 131.3533,88.1382 L131.3533,86.0852 C131.3533,84.4552 132.6893,83.1212 134.3213,83.1212 C135.9533,83.1212 137.2893,84.4552 137.2893,86.0852 L137.2893,88.1382 C137.2893,89.7682 135.9533,91.1022 134.3213,91.1022 Z" id="Stroke-71" stroke-width="0.891"></path><path d="M76.7751,99.2042 C75.7071,99.2042 74.8331,98.3322 74.8331,97.2672 L74.8331,94.3042 C74.8331,93.2382 75.7071,92.3662 76.7751,92.3662 C77.8431,92.3662 78.7171,93.2382 78.7171,94.3042 L78.7171,97.2672 C78.7171,98.3322 77.8431,99.2042 76.7751,99.2042 Z" id="Stroke-73" stroke-width="0.667"></path><path d="M89.0971,210.9507 C89.0971,206.8797 92.4281,203.5487 96.4991,203.5487" id="Stroke-75" stroke-width="0.567"></path><path d="M119.785,221.0636 L99.325,221.0636 C93.699,221.0636 89.096,216.4576 89.096,210.8286 C89.096,205.1986 93.699,200.5936 99.325,200.5936 L119.785,200.5936 C125.411,200.5936 130.015,205.1986 130.015,210.8286 C130.015,216.4576 125.411,221.0636 119.785,221.0636 Z" id="Stroke-77" stroke-width="0.667"></path><path d="M73.6416,202.4244 C73.6416,191.4884 103.7316,182.6404 140.9176,182.6404 M109.5526,197.8764 L126.3716,197.8764 L130.4626,197.8764 L133.6446,202.1974 L133.6446,215.6144 L161.6006,215.6144" id="Stroke-79" stroke-width="0.891"></path><path d="M140.2216,213.1076 L140.2216,200.7216 M142.0466,213.1076 L142.0466,200.7216 M143.8716,213.1076 L143.8716,200.7216" id="Stroke-81" stroke-width="0.445"></path><polyline id="Stroke-83" stroke-width="0.891" points="158.4198 208.5706 156.3708 204.6976 156.3708 198.0906 144.0768 198.0906"></polyline><polyline id="Stroke-85" stroke-width="0.445" points="159.487 177.3851 164.249 188.4931 171.732 194.1601"></polyline><path d="M171.6426,183.3538 C170.8686,186.5528 171.2506,190.0198 172.7026,192.9738 C174.1546,195.9278 176.6656,198.3468 179.6716,199.6878 C179.0706,201.3468 180.4196,203.3958 182.1816,203.4978 M162.6456,242.7728 L128.5766,258.9228 L124.3726,268.2148 L118.1786,273.5248 L111.9846,273.5248 M74.3756,246.7548 L101.1446,259.8078 L104.9046,265.5598 C104.9046,265.5598 107.5596,274.1888 107.3386,273.5248 C107.1176,272.8608 99.3746,264.4538 99.3746,264.4538 L72.6056,250.2948" id="Stroke-87" stroke-width="0.891"></path><path d="M102.6151,289.761 C105.4281,276.346 91.0111,261.991 70.3811,257.665 M101.2871,294.63 C104.1001,281.215 89.6831,266.86 69.0531,262.534" id="Stroke-89" stroke-width="0.713"></path><path d="M115.8363,295.5128 C113.0243,282.1008 127.3663,273.6808 147.9893,269.3558 M118.1783,273.5118 L128.1353,269.5288 L148.7113,253.5988 L156.8973,299.6198 L153.1363,303.8238 L153.7993,307.5848 L163.9773,310.2408 C163.9773,310.2408 166.6323,309.1338 164.6413,305.8148 C167.5173,303.8238 170.2413,300.4828 167.7733,289.9838 M156.8973,299.6198 C156.8973,303.0448 160.3603,305.8148 164.6413,305.8148 M80.3453,231.4728 C80.3453,238.1988 89.8453,243.6418 101.5853,243.6418" id="Stroke-91" stroke-width="0.977"></path><path d="M96.7422,227.5165 L96.5432,233.2075 C88.2292,234.2475 69.4242,228.8465 57.6692,218.5395 C55.7542,216.8605 55.2942,211.5755 55.9652,208.9495 C56.6362,206.3245 62.4142,201.6035 64.5122,202.5355" id="Stroke-93" stroke-width="0.915"></path><path d="M127.2334,221.7413 L137.8644,221.7413 L137.8644,229.2723 C137.8644,229.2723 134.7634,240.7893 128.1194,243.6683 C139.8714,243.6683 149.3814,238.2203 149.3814,231.4863" id="Stroke-95" stroke-width="0.977"></path><path d="M99.5968,227.9459 L100.7028,234.1429 L105.5708,236.7989 L99.5968,227.9459 Z M133.4478,223.2979 L132.7848,235.0289 L135.2178,231.0449 L133.4478,223.2979 Z M96.5208,233.1929 L104.4638,243.2179 L125.2618,243.2179 L96.5208,233.1929 Z" id="Stroke-97" stroke-width="0.445"></path><polyline id="Stroke-99" stroke-width="0.977" points="94.9645 234.7255 102.9135 244.7745 123.7255 244.7745"></polyline><path d="M167.7506,289.9836 C167.7506,254.2726 169.5146,225.3756 171.6946,225.3756 M167.7506,289.9836 C167.7506,258.9936 171.3026,233.9156 175.6926,233.9156" id="Stroke-101" stroke-width="0.445"></path><path d="M163.9722,310.2119 L164.4152,315.2999 L165.9642,317.2909 C165.9642,317.2909 168.3982,329.0149 168.3982,331.4479 L168.3982,333.8809 L169.5042,334.7659 C169.5042,334.7659 167.0702,346.7119 167.5132,347.1539 C169.2832,347.8179 169.2832,349.1449 167.5132,349.5869 C165.7422,350.0299 157.5552,347.1539 157.5552,347.1539 M168.8402,335.6509 C168.8402,331.8609 161.5162,328.7939 152.4652,328.7939 M168.8402,332.3329 C168.8402,328.5429 161.5162,325.4749 152.4652,325.4749 M168.3982,334.7659 L152.6872,331.0059 C152.6872,331.0059 149.5892,317.2909 152.9082,315.5209 C156.2272,313.7509 164.4152,315.2999 164.4152,315.2999 M166.6272,350.2509 C164.3512,355.8829 161.5922,361.3989 159.7532,367.8329 C155.1562,369.6719 150.5582,366.9139 146.2742,366.3309 M120.6012,380.3349 L117.9452,369.4959 C117.9452,369.4959 118.8312,361.7539 119.7162,351.3569 C117.9452,340.9599 119.9372,338.0839 119.9372,338.0839 L118.8312,332.5539 C118.8312,332.5539 118.8312,325.2539 118.3882,323.7059 C117.9452,322.1569 117.7242,319.0599 117.7242,318.3969 C117.7242,317.7329 117.0602,312.6449 117.0602,312.6449 L118.6092,308.4419 L115.2902,301.8059 L115.8242,295.4869 M160.7272,382.9349 L141.8842,382.9349 L136.7542,381.6629 L131.6652,383.4319 L120.6012,380.3349 M158.8832,368.8329 L161.7472,376.3169 L161.7472,382.9349 M157.1412,399.9139 L153.1112,403.0789 L132.9602,403.0789 C132.9602,403.0789 131.8092,397.0359 122.0222,395.5969 C119.1432,394.1579 119.1432,390.9929 119.1432,390.9929 C119.1432,390.9929 114.8622,384.6419 120.6012,380.3349 M153.1112,404.2299 C151.4782,411.9549 151.4782,419.3089 154.2362,426.6629 C156.9952,433.0969 162.5122,438.6129 165.4692,445.6849 C165.4692,445.6849 172.1152,452.7939 174.5182,454.8359 C176.9212,456.8779 176.6362,459.5909 176.8382,463.3389 C176.9472,465.3389 175.3852,467.1079 173.5462,467.1079 C164.3512,465.2699 156.0752,467.1079 147.8002,466.1889 C143.2022,465.2699 139.5242,462.5119 136.7662,459.7549 C134.9272,457.9159 136.7662,455.1589 134.9272,454.2389 C131.2482,453.3199 126.6512,456.9969 122.9732,454.2389 C120.2142,451.4819 122.0532,446.8859 120.2142,443.2089 C119.2952,439.5319 122.0532,435.8549 122.9732,432.1779 C122.9732,432.1779 123.8922,431.2589 124.8122,431.2589 C125.7312,430.3399 125.7312,428.5009 125.7312,426.6629 C123.8922,415.6319 122.9732,405.5209 122.0222,395.5969" id="Stroke-103" stroke-width="0.977"></path><path d="M155.3057,383.4721 C151.8357,388.0641 151.0257,393.1541 151.2157,398.7441 C151.3217,401.8661 149.5497,403.0541 148.7987,405.7931 C148.0207,408.6321 148.8717,412.3381 149.0457,415.2411" id="Stroke-105" stroke-width="0.445"></path><path d="M156.7434,399.3652 L161.7534,382.9192 M142.3914,417.5682 L150.5704,416.3342 L150.5704,419.1102 L139.7684,419.1102 L133.2874,423.5842 L151.3424,423.5842 M154.5834,427.1322 C153.9654,426.9772 142.8544,425.5892 139.7684,430.6802 C131.8984,431.2972 130.7754,433.0442 125.4724,429.5482 M125.0174,429.7822 C122.6254,439.9062 122.7054,448.5742 125.1954,449.1622 M163.2004,456.3552 C156.0804,457.9172 149.6424,462.5142 142.2844,458.8362 C137.6854,456.9972 135.8454,453.3202 132.2384,449.8692" id="Stroke-107" stroke-width="0.977"></path><path d="M122.9545,396.2811 C130.6745,396.2811 137.2365,405.8101 139.6825,419.1391" id="Stroke-109" stroke-width="0.567"></path><polyline id="Stroke-111" stroke-width="0.977" points="48.8416 418.7152 41.8306 416.3732 41.8306 421.6432 51.0906 421.6432 56.5216 426.9612"></polyline><path d="M57.1234,385.6534 C54.3314,393.3744 52.2944,408.0644 51.1604,421.6864" id="Stroke-113" stroke-width="0.567"></path><path d="M119.7365,350.4929 C119.7365,367.3719 124.5785,379.7439 134.7405,381.2379 M53.0865,279.2389 L49.2125,293.2419 L51.2985,298.9019 L48.3195,300.6899 L43.5515,327.5039 C43.5515,327.5039 39.3805,331.0789 46.2335,338.2289 C40.5725,354.0199 38.1885,359.6809 38.1885,359.6809 L39.3805,365.3409 L33.4215,376.9609 L34.0165,382.6209 C34.0165,382.6209 30.4415,392.4529 32.5275,406.1579 C34.6125,419.8629 34.3145,425.5239 34.3145,425.5239 L38.1885,427.9069" id="Stroke-115" stroke-width="0.977"></path><path d="M43.2843,329.0699 C43.8523,325.6409 55.1663,324.6739 68.5803,326.9069 M43.4333,332.8139 C44.0023,329.3849 55.3163,328.4179 68.7293,330.6509 M126.5103,329.3699 C127.0783,325.9409 138.3923,324.9729 151.8053,327.2069 M126.6593,333.1139 C127.2273,329.6849 138.5413,328.7169 151.9553,330.9509" id="Stroke-117" stroke-width="0.567"></path><path d="M117.7273,318.4163 C119.2633,309.7313 133.4733,301.8363 148.2173,300.7883 M117.9633,321.2393 C122.6403,308.5783 140.2873,306.2933 157.9173,309.2233" id="Stroke-119" stroke-width="0.713"></path><path d="M78.1756,98.0633 C82.8376,103.5943 91.0876,107.2663 100.4986,107.2663 M74.0986,89.0983 C73.7756,90.0263 73.8876,91.7503 74.8356,94.3183 M131.4336,87.5933 C131.4336,98.4673 119.6466,107.2663 105.0796,107.2663 M66.8226,101.0153 C66.8226,96.3083 64.1826,91.9293 59.6396,88.2663 M75.1236,27.5433 L70.7266,27.5433 M80.6806,78.0933 C80.6806,78.0933 82.3446,83.0853 87.3366,85.0823 M135.0926,44.2743 L134.4906,57.7933 L127.8276,63.7643 L125.0056,78.0933 M125.0056,78.0933 C125.0056,78.0933 123.3686,83.5643 118.3766,85.5603" id="Stroke-121" stroke-width="0.891"></path><path d="M103.1415,103.5323 C101.6775,103.5323 100.4795,102.3343 100.4795,100.8703 C100.4795,99.4073 101.6775,98.2093 103.1415,98.2093 C104.6055,98.2093 105.8035,99.4073 105.8035,100.8703 L105.8035,100.8713 C105.8035,102.3343 104.6055,103.5323 103.1415,103.5323 Z M213.8605,238.6103 C213.8605,238.6103 212.4365,233.6443 211.8255,231.9663 C211.2155,230.2883 211.0635,224.9493 211.0635,224.9493 L204.0465,214.8823 L200.6905,215.1873 L191.8425,202.8313 L204.3515,211.2213 L206.7925,204.0523 L213.8605,238.6103 Z M17.7925,263.0833 C17.7925,263.0833 13.5645,255.2093 13.2005,253.4613 C12.8375,251.7133 10.1595,247.0913 10.1595,247.0913 L10.8335,234.8383 L13.8485,233.3333 L14.8755,218.1723 L8.6485,231.8853 L5.8945,231.9663 L17.7925,263.0833 Z M41.9495,366.9063 C39.5135,369.6483 38.1625,373.2163 37.5295,376.8293 C36.8965,380.4413 36.9345,384.1343 36.9745,387.8013 C37.1135,400.6563 37.2525,413.5113 37.3925,426.3653 L41.9495,366.9063 Z M36.5395,429.9473 C35.6855,429.8023 35.0825,430.9023 35.2795,431.7463 C35.4755,432.5903 36.1315,433.2353 36.6075,433.9593 C38.0425,436.1423 37.7085,439.3193 35.8495,441.1563 C34.1615,441.4033 33.0675,443.0423 32.3515,444.5903 C29.7995,450.1103 29.2805,456.5433 30.9145,462.4013 C32.5495,468.2593 36.3235,473.4943 41.3645,476.8963 L36.5395,429.9473 Z" id="Stroke-123" stroke-width="0.445"></path><path d="M55.9844,433.2326 C54.7894,433.0836 42.3864,436.2206 32.3754,430.0956 M55.5364,428.3026 C55.5364,428.3026 45.9734,429.6466 41.1914,428.4516 M33.4204,376.9616 C33.4204,376.9616 43.2834,383.9276 47.1684,385.7206 C47.1684,385.7206 60.3174,381.5376 78.6974,382.1346 M39.3794,365.3436 L49.8584,373.3196 L64.2024,373.6186 L78.2484,349.7136 L73.3174,340.4506 L50.0074,337.9106 M66.4444,339.8526 L78.2484,349.7136 M48.0654,339.1056 L40.7434,359.7236 L49.7084,371.0786 L41.0424,364.3556 M55.9844,285.6176 L53.7434,293.6856 L49.7084,293.0876 M51.2974,298.9116 C51.6514,299.3626 55.6854,301.6036 55.6854,301.6036 L48.3174,300.6996 M57.6284,285.7666 L55.5364,293.9846 L57.1794,301.7536 L58.2254,306.6836 L48.9614,309.3736 L45.9734,324.3136 M147.4324,331.7846 L133.3864,345.8286 C133.3864,345.8286 138.1684,348.6676 138.0184,348.2196 C137.8694,347.7716 138.0184,342.5416 138.0184,342.5416 M161.0304,360.7696 C161.0304,360.7696 129.6504,354.0466 123.8234,350.3116 C128.4554,361.5166 129.8004,362.4136 129.8004,362.4136 L145.7884,366.4476 M119.1914,344.7826 C119.1914,344.7826 138.3174,349.5636 137.4214,349.4146 C136.5244,349.2656 123.8234,350.3116 123.8234,350.3116 L119.4904,348.9666 M73.3174,340.8986 L84.0764,344.0356 M77.6514,349.2656 L82.7314,350.7596 M147.9904,269.3516 C149.7264,273.3696 151.4814,277.4576 151.9964,281.8036 C152.5114,286.1496 151.6194,290.8686 148.6324,294.0676 C145.6924,297.2166 141.2924,298.4126 137.2434,299.8816 C130.9554,302.1636 124.9614,305.4776 119.9814,309.9086 M63.2864,280.6976 C62.4964,282.8936 61.6984,285.2716 62.3504,287.5126 C63.2534,290.6176 66.5204,292.2736 69.3654,293.8116 C79.2494,299.1536 87.6094,307.2626 93.2984,316.9456 M120.3184,380.4536 L114.6374,378.8896 C114.6374,378.8896 110.8504,384.2396 112.9084,389.0966 C113.4024,390.3316 114.2264,391.6486 114.2264,391.6486 L117.2724,392.2246 C117.2724,392.2246 114.9664,389.9196 114.9664,386.2976 M79.3094,382.3036 L83.2714,382.2646 C83.2714,382.2646 85.0004,385.8036 82.0364,388.6846 C81.8724,390.0016 81.9544,392.5536 81.9544,392.5536 L77.8384,392.4716 L79.9784,388.4376 M176.2004,463.2446 C176.2004,463.2446 175.2394,460.3616 169.7144,460.4826 C164.1884,460.6026 155.1804,466.2476 148.6934,466.3676 M157.5194,171.8836 C157.0014,169.6726 154.1764,168.6096 152.0334,169.3596 C149.8894,170.1096 148.4374,172.1476 147.6244,174.2676 C145.8534,178.8926 146.6334,184.4056 149.6184,188.3576" id="Stroke-125" stroke-width="0.977"></path><path d="M151.1476,181.4393 C151.2176,182.6513 151.1886,183.8623 150.9786,185.0593 C150.5096,187.7493 148.9566,190.4073 146.4386,191.4643 C144.4356,192.3043 142.0376,192.0673 140.1976,193.2233 C139.7546,193.5023 139.3736,193.8413 139.0436,194.2253" id="Stroke-127" stroke-width="0.445"></path><path d="M150.0058,178.2213 C150.0058,176.3473 151.5408,174.8143 153.4168,174.8143 C155.2928,174.8143 156.8278,176.3473 156.8278,178.2213 C157.0618,180.6103 157.1078,184.0823 156.8278,186.1713 C156.1898,190.9363 153.2318,193.0673 150.8928,194.5833 C149.1888,195.6873 146.8068,196.3323 144.8998,196.7683" id="Stroke-129" stroke-width="0.977"></path><path d="M62.588,167.685 C62.588,126.802 57.775,93.72 51.828,93.72" id="Stroke-131" stroke-width="0.445"></path><path d="M131.0007,80.8175 C131.0007,79.0895 128.8657,77.4945 125.2647,76.2115 M80.1837,75.9595 C76.1357,77.2825 73.7077,78.9735 73.7077,80.8175 M84.1727,52.7925 C89.1187,53.8815 95.4507,54.5355 102.3537,54.5355 C112.2417,54.5355 120.9607,53.1935 126.1087,51.1535" id="Stroke-133" stroke-width="0.548"></path><path d="M136.2369,84.0922 C136.2369,79.3342 131.7469,75.3712 125.7689,74.4552" id="Stroke-135" stroke-width="0.891"></path><path d="M121.6481,43.2913 C117.3681,45.4613 111.1481,46.8263 104.2251,46.8263 C96.1581,46.8263 89.0451,44.9723 84.8441,42.1523" id="Stroke-137" stroke-width="0.445"></path><path d="M117.7092,213.1116 C119.2442,213.0846 120.0072,213.0686 121.5142,213.0296 C123.8162,212.9696 125.6422,211.3956 125.6422,209.5546 C125.6422,207.7136 123.8162,205.4406 121.5142,204.7676 C118.1652,203.7896 116.4412,203.4736 112.9872,203.1906 C111.5322,203.0706 110.2412,203.9066 109.4562,205.2096 C108.6702,203.9066 107.3792,203.0706 105.9252,203.1906 C102.4712,203.4736 100.7462,203.7896 97.3982,204.7676 C95.0952,205.4406 93.2692,207.7136 93.2692,209.5546 C93.2692,211.3956 95.0952,212.9696 97.3982,213.0296 C99.1702,213.0756 100.0692,213.0936 101.8782,213.1226 M101.2022,207.9716 C99.6672,207.9986 98.9052,208.0146 97.3972,208.0536 C95.0952,208.1136 93.2692,209.6876 93.2692,211.5286 C93.2692,213.3696 95.0952,215.6426 97.3982,216.3156 C100.7462,217.2936 102.4712,217.6096 105.9252,217.8926 C107.3792,218.0126 108.6702,217.1766 109.4562,215.8736 C110.2412,217.1766 111.5322,218.0126 112.9872,217.8926 C116.4412,217.6096 118.1652,217.2936 121.5142,216.3156 C123.8162,215.6426 125.6422,213.3696 125.6422,211.5286 C125.6422,209.6876 123.8162,208.1136 121.5142,208.0536 C119.7412,208.0076 118.8422,207.9896 117.0332,207.9606" id="Stroke-139" stroke-width="0.506"></path><path d="M101.9686,203.6906 L101.9686,217.1916 M117.1876,204.0336 L117.1876,217.1916 M75.3756,210.6696 L56.5416,210.6696 M93.6156,210.6696 L85.5036,210.6696 M125.5406,210.5556 L133.2066,210.5556 M54.0206,95.8386 C63.7226,99.2616 73.0086,104.3366 80.1406,111.7516 C82.5916,114.3006 84.7706,117.1466 86.5766,120.2026" id="Stroke-141" stroke-width="0.567"></path><path d="M134.3071,91.0738 C134.3071,91.0738 152.1231,100.7118 156.2931,104.4638 C160.4631,108.2158 163.0681,115.8818 163.0681,115.8818 L166.0651,115.6678 L172.2731,124.0148 L176.7691,139.4258 L177.4111,140.7098 L178.6951,148.8438 C178.6951,148.8438 180.8361,150.3418 179.7661,153.9808" id="Stroke-143" stroke-width="0.891"></path><path d="M156.3009,104.4649 C156.3009,104.4649 139.0669,104.1099 141.2219,118.6699 C142.4789,127.1689 130.0089,129.6479 130.0089,129.6479 L130.0089,139.8809" id="Stroke-145" stroke-width="0.445"></path><path d="M34.7484,116.3478 C36.7794,116.9778 38.6494,118.1968 40.0714,119.9748 L47.7314,129.5478 M32.5904,120.3848 C35.2524,120.7798 37.7784,122.1368 39.5824,124.3918 L47.2424,133.9658 M29.9964,124.6918 C33.3944,124.5488 36.8174,125.9648 39.0934,128.8088 L46.7534,138.3828 M166.4654,116.0918 C164.4334,116.7218 162.5634,117.9418 161.1424,119.7188 L153.4824,129.2918 M169.6454,120.3858 C166.9834,120.7798 164.4574,122.1368 162.6534,124.3918 L154.9934,133.9658 M172.2394,124.6918 C168.8414,124.5488 165.4184,125.9648 163.1424,128.8088 L155.4824,138.3828" id="Stroke-147" stroke-width="0.567"></path><path d="M83.2605,102.9902 C78.0045,104.2212 74.2965,105.8942 69.7655,109.5722 C65.1905,113.2852 61.2725,119.6152 60.7615,126.2652 M151.7805,128.8222 C150.5025,118.5922 145.8785,112.5612 142.1965,109.5722 C136.7155,105.1232 129.4245,102.9412 123.4175,101.8722" id="Stroke-149" stroke-width="0.445"></path><path d="M101.6532,149.3997 C103.1672,150.5097 106.2232,152.2297 110.6212,152.2297 C117.1152,152.2297 123.7922,147.7487 123.7922,140.6147 C123.7922,133.3887 118.2122,127.9017 108.6092,127.9017 C98.2732,127.9017 86.1092,137.2357 86.1092,150.3097 C86.1092,164.1197 95.2552,175.0947 108.2432,175.0947 C119.1272,175.0947 123.8122,166.8637 123.8122,166.8637 L123.7922,166.1317 M118.4872,130.5537 C118.4872,130.5537 123.6092,133.5717 126.3532,137.8707 C129.0962,142.1697 129.8282,149.1207 124.8892,154.6077 C119.9502,160.0957 114.5542,161.5587 108.1512,161.2847 C101.7492,161.0097 98.6392,156.8027 101.6572,149.3947 M114.8582,137.6437 C114.8582,137.6437 107.7152,133.6447 99.6452,140.8887 C97.8122,142.5347 96.7012,144.5527 95.9942,146.6407 C93.5962,153.7207 96.9922,162.2297 102.5722,165.1257 C109.7982,168.8757 116.5662,166.5887 119.4012,162.9307 L123.7922,166.1317 C123.7922,166.1317 119.7672,172.8997 109.6152,172.8997 C99.9202,172.8997 91.1392,163.5707 91.1392,152.1387 C91.1392,145.4397 94.7042,140.4817 98.9182,137.6437 C101.8962,135.6377 105.2382,134.8797 107.4342,134.8797 C113.0622,134.8797 117.3892,138.7577 117.3892,143.2667 C117.3892,147.6567 113.1822,150.6747 109.2492,150.6747 C105.3162,150.6747 103.5782,149.0287 103.5782,149.0287 L101.6572,149.3947" id="Stroke-151" stroke-width="0.506"></path><path d="M42.9751,107.35 C43.1291,109.038 43.8521,110.477 45.1641,111.34 C47.4801,112.862 49.8251,111.203 49.8251,111.203 L49.9401,110.994 M47.9711,103.191 C48.1121,103.715 48.4801,104.627 49.4161,105.242 C50.7971,106.15 52.9521,105.824 54.1201,103.818 C55.3041,101.786 55.0161,99.462 52.9731,98.118 C52.0271,97.497 50.7281,97.313 49.3831,97.598 M54.6401,100.246 C54.6401,100.246 55.2351,101.811 55.1151,103.404 C54.9941,104.997 54.0111,107.054 52.0621,107.907 C50.1121,108.759 48.7241,108.416 47.4071,107.443 C46.0901,106.47 46.1171,104.852 47.9731,103.191 M52.7061,101.732 C52.7061,101.732 51.8421,99.608 48.9381,100.517 C48.2791,100.723 47.7121,101.135 47.2191,101.624 C45.5491,103.28 44.8781,106.148 45.5911,107.743 C46.5141,109.808 48.3281,110.112 49.5311,109.48 L49.9401,110.994 C49.9401,110.994 47.9761,112.335 45.8161,110.914 C43.7531,109.558 43.4131,105.706 45.2861,102.491 C46.3831,100.607 47.9541,99.711 49.3151,99.502 C50.2771,99.355 51.1121,99.609 51.5801,99.917 C52.7771,100.704 53.0621,102.4 52.3241,103.668 C51.6051,104.903 50.2151,105.163 49.3781,104.613 C48.5421,104.062 48.4421,103.356 48.4421,103.356 L47.9731,103.191 M80.5721,91.753 C80.5721,88.079 83.8291,85.106 87.8561,85.106 M125.6371,91.663 C125.6371,88.344 122.3311,85.659 118.2441,85.659 M130.6651,89.324 C130.6651,85.58 127.2361,82.55 122.9981,82.55 M95.2751,98.237 C95.2751,94.017 97.2721,90.603 99.7401,90.603 M111.3401,98.237 C111.3401,94.3 109.2951,91.114 106.7691,91.114 M91.2711,78.21 C91.2711,84.562 92.8561,89.702 94.8141,89.702 M115.3431,78.21 C115.3431,84.562 113.7591,89.702 111.8011,89.702" id="Stroke-153" stroke-width="0.445"></path></g></g></svg> 