<?xml version="1.0" encoding="UTF-8"?> <svg xmlns="http://www.w3.org/2000/svg" xmlns:xlink="http://www.w3.org/1999/xlink" width="295px" height="490px" viewBox="0 0 295 490"><!-- Generator: Sketch 52.3 (67297) - http://www.bohemiancoding.com/sketch --><title>class_centurion</title><desc>Created with Sketch.</desc><g id="class_centurion" stroke="none" stroke-width="1" fill="none" fill-rule="evenodd"><g id="Group-188"><g id="Group-73" transform="translate(58.000000, 18.415000)" stroke="#81735B" stroke-linecap="round" stroke-linejoin="round"><path d="M152.0602,330.238 C176.0062,344.854 176.7822,305.05 177.5922,286.252 C178.7652,258.994 173.9382,238.358 164.1412,237.661 C139.4412,235.904 137.5102,321.261 137.5102,321.261 C135.2672,373.362 142.8312,415.147 156.1032,415.686 C167.2252,416.138 173.3502,385.28 173.3502,385.28 L173.4482,382.518 M173.8052,248.078 C173.8052,248.078 179.2172,259.604 180.6542,276.008 C183.7852,311.745 174.4912,345.3 174.4912,345.3 C169.2312,360.669 164.0372,364.74 158.2532,363.582 C152.7352,362.477 150.1042,350.775 152.0602,330.238 M168.9452,274.672 C168.9452,274.672 162.3402,259.307 152.8732,286.284 C146.9522,303.155 146.6082,326.456 146.6082,326.456 C145.7142,347.957 147.8802,369.21 151.9272,377.841 C158.7022,392.288 165.9902,383.943 169.4812,370.26 L173.4482,382.518 C173.4482,382.518 168.2362,407.884 157.8622,407.462 C147.9542,407.06 140.5332,371.502 142.3542,328.371 C143.6662,297.287 149.2272,281.588 152.6572,274.01 C156.0252,266.567 159.5642,263.847 161.8082,263.938 C167.5592,264.172 171.3512,278.983 170.6182,295.993 C170.0732,308.67 167.1382,318.213 163.9892,321.918" id="Stroke-1" stroke-width="0.682"></path><path d="M190.9083,401.1258 C188.6173,395.0658 185.3853,386.5398 183.5653,381.8288 M168.9903,425.2368 C168.9903,425.2368 169.1193,426.6328 168.4053,428.7718 C167.6923,430.9108 160.7413,440.1808 171.6143,441.7848 C182.4883,443.3888 189.4403,443.2108 192.2923,443.3888 C195.1443,443.5678 202.9873,448.3798 214.9303,447.8458 C226.8733,447.3108 236.3213,443.9238 236.3213,442.6758 C236.3213,441.4288 232.5773,437.1498 229.1913,436.2588 C225.8043,435.3678 220.6343,434.1198 220.1003,433.9418 C219.5653,433.7638 213.6823,430.5548 213.6823,430.5548 L209.2263,427.5248 L204.0573,421.9988 L199.6003,417.1858 L194.0713,408.9628 M194.3693,408.6488 L182.2983,417.6328 C182.2983,417.6328 188.9853,423.7818 192.7543,424.9208 M191.1233,400.1608 L192.1553,400.3748 L195.9223,407.4938 L194.3693,408.6488 M173.7433,413.5138 L178.2773,412.8158 L190.9043,401.3638 M209.2263,427.5248 C209.2263,427.5248 195.9223,429.9898 191.4863,439.8118 M236.3213,442.6758 C231.2313,447.8148 202.2673,442.7198 198.7743,440.4458 C195.0473,438.0198 210.4973,429.6728 212.0813,429.9898 M166.1383,434.4258 C166.1383,434.4258 170.5743,439.8118 183.5653,438.8618 C183.5653,438.8618 186.3143,436.3918 190.1883,431.4378 C195.8753,424.1648 207.0123,425.2368 207.0123,425.2368 M195.6053,413.1968 C195.6053,413.1968 178.9183,422.2238 174.1663,438.3828 M181.9813,387.5328 C181.9813,387.5328 186.4173,401.1568 187.3673,402.7408 M221.2493,434.2818 C220.0783,433.4808 198.7743,436.9608 200.6753,445.5158 M185.4663,398.6218 L176.7903,405.6268 M168.9073,214.2648 C150.8153,215.7668 135.6413,219.6288 123.9863,225.4568 C123.9863,225.4568 121.7003,258.8378 120.3253,291.7968 L119.7223,308.2878 C119.2343,324.2018 119.1083,338.5858 119.7433,347.2258 C121.8653,376.0768 129.0783,421.4748 146.4733,456.2658 C155.6293,448.1788 163.1383,437.2378 169.2773,424.2728 M188.5993,354.3028 C197.8963,305.3308 197.8113,279.3408 197.8113,279.3408 C197.8113,279.3408 194.3863,252.2168 189.1663,235.4278 M169.2773,424.2728 C177.7963,404.6088 184.3823,380.3408 188.5993,354.3028 M168.7103,213.4948 C156.7343,214.3368 130.5823,217.0898 119.3193,225.4568 C119.3193,225.4568 117.1583,257.0108 115.7743,289.0528 L115.1423,305.5418 C114.5843,322.5368 114.4053,338.0918 115.0763,347.2258 C117.1983,376.0768 125.6833,419.3538 143.0793,454.1448 L146.4733,456.2658" id="Stroke-3" stroke-width="0.903"></path><path d="M151.5648,438.8706 C155.7838,433.7926 159.1038,427.9646 162.1958,422.1566 C173.5718,400.1456 180.3248,376.5286 184.7048,352.2796 C184.7048,352.2796 191.3768,314.3776 192.7198,281.9646 C192.7788,280.5376 192.7198,279.3926 192.7198,277.9636 C192.7198,277.9636 188.7208,249.2216 184.9188,241.6176" id="Stroke-5" stroke-width="0.605"></path><path d="M53.9666,353.6442 C50.6256,354.5902 47.7586,355.3952 47.7586,355.3952 C47.3056,354.4882 37.1096,346.7842 34.1636,345.1982 C31.2176,343.6122 31.2176,347.2382 31.2176,347.2382 L29.1786,348.3712 L29.4046,352.9022 C29.4046,352.9022 39.1486,357.2082 46.1726,378.2802 C46.1726,378.2802 38.9216,377.3742 34.6166,372.6162 C30.3116,367.8572 30.3116,366.9512 30.3116,366.9512 C30.3116,366.9512 30.0846,358.5672 30.5376,355.3952 C30.5376,355.3952 49.0186,387.8732 43.3766,433.9542 M62.4446,380.7262 C62.9516,377.8052 62.6926,379.1812 62.9406,377.1472 C64.0736,367.8572 66.3386,358.1142 66.3386,358.1142 C66.3386,358.1142 69.7376,361.2862 72.0036,354.2622 C72.0036,354.2622 72.6716,348.7662 73.5776,348.7662 C74.4846,348.7662 66.5656,349.9572 63.6196,350.8632 C62.5906,351.1802 61.4766,351.4282 58.9886,352.1382 M59.1116,421.8192 L57.0486,408.8702 C57.0486,408.8702 57.6576,406.0012 58.4916,401.8902 M29.8586,364.9122 L28.0456,365.5912 L28.4986,369.6702 C28.4986,369.6702 27.1396,369.4432 33.0306,376.2412 L33.4836,391.1962 C33.4836,391.1962 36.6556,414.9882 36.6556,415.6682 C36.6556,416.3472 37.1096,428.5832 37.1096,428.5832 L35.0696,430.8492 L34.3896,439.2332 C34.3896,439.2332 32.3506,449.6562 31.4446,452.6012 C30.5376,455.5472 33.2576,462.5712 43.4536,468.2362 C53.6506,473.9012 59.9946,465.9702 61.5806,462.3452 C63.1666,458.7192 58.1816,439.0062 58.1816,439.0062 L59.9946,436.2872 L59.5416,429.0362 L47.9856,419.9732 L38.9216,426.5442 M59.6796,431.2442 L60.6746,429.4892 L60.6746,424.0512 L57.5026,419.5202 L48.8916,411.8152 L38.2416,419.9732 L38.2416,413.6282 L46.8526,411.5892 M59.6226,357.1202 C63.4206,355.8142 65.8096,355.1312 66.5656,354.9422 M31.2176,347.2382 C32.1246,347.6912 41.8676,354.0352 47.3056,361.5132 C47.3056,361.5132 50.5516,360.3752 54.3886,359.0442 M55.5646,366.5612 C51.0846,371.7952 47.5326,377.6012 47.5326,377.6012 C47.5326,377.6012 52.8796,377.9492 57.2466,377.2312 M64.2996,359.0202 C63.2866,359.4812 61.2676,360.9462 60.2156,361.7722" id="Stroke-7" stroke-width="0.903"></path><path d="M45.2663,382.9343 C37.6393,381.6643 34.7053,378.7003 34.7053,378.7003 L28.9683,378.5693 L28.9683,383.6203 L33.2333,389.1113" id="Stroke-9" stroke-width="0.811"></path><path d="M58.6162,349.9042 C69.1702,349.6182 77.4422,348.1442 77.4422,348.1442 L83.7862,347.9172 C83.7862,347.9172 84.9192,345.8782 84.6932,344.9722 C84.4662,344.0652 86.0522,304.4122 86.0522,304.4122 L87.1902,286.5132 L88.2452,269.9132 L90.9892,217.1382 L58.6162,349.9042 Z M37.3352,271.1042 C37.3352,271.1042 34.3902,284.4722 34.8432,289.0042 C35.2962,293.5362 30.9912,309.3972 30.9912,309.3972 C30.9912,309.3972 26.2332,331.3762 25.1002,335.9082 L25.3262,337.0412 L26.0062,342.2532 C26.0062,342.2532 34.1632,345.1982 48.4382,348.5972 C50.1632,349.0082 51.8932,349.3122 53.6042,349.5312 L37.3352,271.1042 Z M161.6402,208.3192 C155.9142,207.8792 150.6292,199.9512 150.6292,194.4462 C150.6292,188.9402 153.0512,181.8932 155.9142,177.4892 C158.7772,173.0852 166.7042,169.7812 173.3112,170.6622 C179.9172,171.5432 178.7062,179.9112 178.7062,179.9112 C178.7062,179.9112 177.7152,171.3232 170.6682,173.3052 C163.6212,175.2872 157.2352,177.2692 154.8132,186.9582 L161.6402,208.3192 Z M178.7062,179.9112 L181.8992,189.1602 L187.1852,196.8682 L187.6252,201.2722 L181.4592,196.2072 L171.9902,200.1712 L178.7062,179.9112 Z M184.1022,206.5572 L191.1482,214.0452 L187.6252,201.2722 L184.1022,206.5572 Z M191.1482,214.0452 C191.1482,214.0452 192.0292,215.3662 192.2502,218.0092 C192.4702,220.6512 192.2502,223.7342 192.2502,223.7342 C192.2502,223.7342 192.6902,226.8172 192.6902,228.7992 C192.6902,230.7812 184.3222,242.4532 184.3222,242.4532 L181.0192,243.1132 L179.0372,241.1312 L176.6142,241.1312 L175.2932,236.0662 L170.2282,236.5072 L166.4842,232.1032 L168.0262,229.4602 L175.2932,225.7162 L175.5132,219.5502 L168.9072,214.2652 L191.1482,214.0452 Z M158.7772,214.0452 L163.6212,207.8792 C163.6212,207.8792 166.0442,203.4742 175.0732,205.0162 C177.7152,207.8792 178.8162,208.7602 178.8162,208.7602 C178.8162,208.7602 184.3222,209.6402 185.4232,214.4852 C188.5062,218.2292 192.2502,223.7342 192.2502,223.7342 L158.7772,214.0452 Z M40.8102,236.5372 C40.8102,236.5372 40.5212,247.5182 40.7412,248.1782 C40.9612,248.8392 44.2642,256.3262 44.2642,256.3262 L43.3832,260.7312 L38.7592,260.9512 L36.5572,258.7492 L33.0332,258.0882 L29.7302,253.9042 C29.7302,253.9042 27.3082,254.1242 26.8672,253.4632 C26.4272,252.8032 20.7012,245.9762 20.7012,245.9762 L15.8562,239.1492 L20.0402,226.8172 C20.0402,226.8172 18.2792,225.2762 17.8382,223.7342 C17.3982,222.1932 20.0402,221.9732 20.0402,221.9732 L16.2972,197.7492 C16.2972,197.7492 12.7732,195.5472 13.8742,193.1242 C14.9752,190.7022 19.1602,187.8392 30.1702,186.7382 C41.1812,185.6372 44.0442,192.0232 44.7052,192.4642 C44.7052,192.4642 47.7882,195.5472 46.2462,196.8682 C44.7052,198.1892 43.6042,200.1712 43.6042,200.1712 L42.0622,226.3772 L47.3472,233.8642 L50.4302,239.3702 L50.4762,246.0412 L40.8102,236.5372 Z M13.2592,192.7142 L10.6162,183.6852 C10.6162,183.6852 9.9562,181.2632 13.7002,179.2812 C17.4432,177.2992 23.3892,170.0322 23.3892,170.0322 C23.3892,170.0322 26.4722,162.3242 19.4252,151.5342 C12.3782,140.7432 7.0932,140.7432 4.0102,141.8442 C0.9272,142.9452 7.5342,149.5522 7.5342,149.5522 C7.5342,149.5522 3.5702,155.2772 3.3492,158.8012 C3.1292,162.3242 5.7722,172.4542 5.7722,172.4542 L13.2592,192.7142 Z M44.0442,190.9222 L46.0262,173.7452 L48.2282,153.0452 C48.2282,153.0452 42.2822,152.8252 33.2532,152.1642 C24.2252,151.5032 16.0772,146.6592 16.0772,146.6592 L44.0442,190.9222 Z M5.5062,144.4562 C6.1672,144.2362 14.3152,143.5762 19.1602,157.0092 C24.0042,170.4422 21.3622,168.6802 18.4992,170.2222 C15.6362,171.7632 3.7442,173.9652 3.7442,173.9652 L5.5062,144.4562 Z M4.9292,170.4552 C2.8182,170.9422 0.6612,173.3052 0.6612,173.3052 C0.6612,173.3052 0.4412,174.8462 0.8822,175.7272 C1.3222,176.6082 4.8462,176.3882 4.8462,176.3882 L8.5892,175.7272 L4.9292,170.4552 Z M5.9472,176.3882 L7.4882,180.7922 L10.5312,183.3642 L5.9472,176.3882 Z M150.8492,193.5652 C150.8492,193.5652 144.4632,182.7742 144.4632,182.1132 C144.4632,181.4532 143.8022,177.0482 143.8022,176.3882 C143.8022,175.7272 139.6182,167.5792 139.6182,167.5792 C139.6182,167.5792 142.2602,160.3122 147.5462,153.2652 C152.8312,146.2182 174.1922,142.2542 174.1922,142.2542 C174.1922,142.2542 179.2572,142.6952 176.8342,145.7782 C174.4122,148.8612 174.4122,151.2832 174.4122,151.2832 L174.1922,166.4782 L175.7332,171.1032 L150.8492,193.5652 Z M172.4302,146.6592 C171.3292,146.6592 153.9322,152.3842 153.9322,152.3842 L149.5282,155.9082 L142.4812,167.7992 L172.4302,146.6592 Z M159.8782,133.4462 C159.2172,133.4462 142.4812,139.6122 138.5172,147.9802 C138.2972,149.7422 138.5172,152.8252 138.5172,152.8252 C138.5172,152.8252 147.5462,141.5942 161.8602,140.7132 C162.5202,140.0522 159.8782,133.4462 159.8782,133.4462 Z M45.3652,152.3842 L46.2462,146.4382 C46.2462,146.4382 47.5262,145.0312 49.1352,142.9342 C51.7462,139.5322 55.2232,134.3152 55.4952,130.3632 L61.3042,102.9332 L45.3652,152.3842 Z M44.3062,147.0732 C44.3062,147.0732 38.9792,148.4202 29.7302,146.2182 C20.4812,144.0162 13.2142,139.8322 13.2142,139.8322 L12.5532,143.1352 L44.3062,147.0732 Z M163.8422,102.6152 C166.0002,101.9222 166.2642,107.2402 166.2642,107.2402 L166.9252,110.5432 L165.8242,114.2872 L164.2822,116.4892 L165.3832,120.8932 L161.4192,123.9762 L163.8422,102.6152 Z M14.0952,126.8392 C14.0952,126.8392 9.6902,122.8752 9.9112,120.6732 C10.1312,118.4712 12.7732,117.5902 13.6542,117.1502 L14.2232,111.3862 L14.0952,126.8392 Z" id="Stroke-11" stroke-width="0.903"></path><path d="M159.878,133.4459 C159.878,133.4459 163.622,131.2439 163.401,127.9409 C163.181,124.6369 161.419,123.9769 161.419,123.9769 L160.539,116.4889 C161.64,116.2689 142.481,106.3589 143.142,103.4969 C143.802,100.6339 141.6,94.0269 141.6,94.0269 C152.17,89.8429 156.134,99.0919 156.134,99.0919 C156.134,99.0919 165.824,96.2289 166.484,96.2289 C167.145,96.2289 168.466,94.0269 167.586,91.1649 C166.705,88.3019 161.419,90.5039 161.419,90.5039 C161.419,90.5039 152.207,85.6069 144.186,90.6599 C144.186,85.6559 149.7,82.0399 156.875,82.0399" id="Stroke-13" stroke-width="0.737"></path><path d="M160.5387,89.4026 C160.5387,89.4026 156.1897,78.5896 151.5647,74.8456" id="Stroke-15" stroke-width="0.903"></path><path d="M59.5634,48.4715 L60.7014,57.7765 L57.8384,62.6205 C57.8384,62.6205 38.9124,68.7355 36.2694,72.2595 C33.6274,75.7825 33.4734,75.0885 38.5384,78.8325 C43.6034,82.5755 49.1094,79.7135 57.0374,82.1355 C64.9644,84.5575 68.9284,89.6225 68.9284,89.6225 L76.4164,77.5105 C76.4164,77.5105 76.8564,72.2255 73.1124,70.2435 C69.3694,68.2615 68.7084,59.6735 67.6074,56.8105 C66.5064,53.9475 68.2874,46.6855 63.5274,48.4715 C58.7484,50.2655 59.5634,48.4715 59.5634,48.4715 C59.5634,45.1685 62.6464,44.0675 66.6104,44.5075 C70.5744,44.9485 69.3694,50.4245 71.3514,54.1685 C73.3334,57.9115 71.5714,64.0775 74.4344,66.5005 C77.2974,68.9225 80.1594,74.8685 80.1594,74.8685 L76.4164,77.5105" id="Stroke-17" stroke-width="0.605"></path><path d="M125.2732,45.4003 C126.8342,45.3293 129.4332,45.8823 131.2502,47.7823 C136.0942,52.8463 137.4162,58.3523 134.9932,62.3163 C134.9932,62.3163 147.3812,69.1203 150.6842,71.7633 C153.9872,74.4053 148.9222,78.5893 148.9222,78.5893 L141.3802,78.3923 L141.3802,83.0163 L144.6832,92.4853 M134.9932,62.3163 C134.9932,62.3163 135.6542,69.5833 136.5352,70.6843 C137.4162,71.7853 138.5172,86.0993 138.5172,86.0993 C138.5172,86.0993 129.0472,72.4463 129.0472,71.7853 C129.0472,71.1243 127.7262,68.2623 127.7262,68.2623 L123.8672,57.9713" id="Stroke-19" stroke-width="0.903"></path><path d="M125.2732,45.4003 C125.2732,45.4003 134.9932,50.8643 131.6902,60.5543 L132.7912,70.0233 C132.7912,70.0233 134.7732,73.3273 134.5532,80.5943" id="Stroke-21" stroke-width="0.605"></path><path d="M129.9286,73.9875 C129.9286,74.6485 122.4416,84.5575 112.0906,90.9445 C91.3906,86.0995 80.1596,74.8685 80.1596,74.8685" id="Stroke-23" stroke-width="0.903"></path><path d="M123.751,58.5722 C123.751,58.5722 128.377,63.5362 125.294,71.4632 C122.211,79.3912 111.81,85.8812 111.81,85.8812 C111.81,85.8812 96.321,82.5042 74.739,61.5832" id="Stroke-25" stroke-width="0.513"></path><path d="M112.13,91.9142 C112.13,91.9142 114.46,125.5112 113.084,172.8302 C113.084,172.8302 128.274,172.9782 132.017,162.4072 C135.761,151.8372 135.541,123.8692 135.541,123.8692 C135.541,123.8692 141.046,117.0432 140.826,106.2522 M72.767,92.0082 C92.218,104.4342 105.391,120.6502 107.678,144.6572 C108.535,152.6592 107.552,164.6832 107.552,172.6902 C107.552,175.4942 66.536,166.6682 51.687,147.9772 M137.523,92.3792 C136.913,92.5992 117.108,116.5492 116.295,138.7912 C115.482,161.0332 115.236,172.4832 115.236,172.4832 M75.18,60.7032 C83.108,66.8692 101.239,81.6972 112.911,79.9362 C124.582,78.1742 123.867,57.9712 123.867,57.9712 C121.039,54.7172 126.05,51.1992 118.169,50.3302 M144.298,68.9002 C143.637,68.9002 146.225,75.7492 136.535,70.6842 M49.135,142.9342 C49.135,142.9342 52.853,159.8722 55.275,164.9372 C66.901,166.5262 92.272,185.6372 111.871,186.2982 C131.47,186.9582 135.434,167.3592 135.434,167.3592 L138.517,152.8252 M53.514,162.0742 C53.514,162.0742 51.532,162.0742 51.091,167.5792 C50.651,173.0852 52.413,177.2692 52.413,177.2692 L55.936,179.4712 C55.936,179.4712 75.755,180.3522 90.51,194.4462 C105.264,208.5392 111.871,204.5752 111.871,204.5752 C111.871,204.5752 128.387,201.7132 132.791,182.3342 C135.434,174.8462 137.636,174.6262 137.636,173.7452 C137.636,172.8642 140.603,164.3552 136.419,163.0332 M54.394,179.2512 L49.99,190.7022 C49.99,190.7022 59.68,192.4642 72.893,198.1892 C86.106,203.9152 97.68,210.3372 97.68,210.3372 M137.856,174.6262 L144.022,185.1972 C144.022,185.1972 140.939,193.5652 134.113,194.6662 C127.286,195.7672 125.084,197.3082 125.084,197.3082 M52.853,191.5832 C52.853,191.5832 50.871,195.5472 49.99,200.8322 C49.109,206.1172 44.485,229.6802 44.485,229.6802 M51.174,195.9842 C51.538,198.2892 74.694,213.2232 109.754,223.5912 M133.012,194.6662 L116.055,217.1282 M142.481,188.5002 L145.344,194.2252 L127.066,220.8722 M118.754,228.2132 L109.162,225.6702 C109.162,225.6702 111.408,216.4452 112.068,216.0052 M71.351,197.7492 C71.351,197.7492 84.819,208.6162 127.837,220.5832 M144.903,195.5472 C144.903,195.5472 147.106,200.6122 146.885,202.5942 C146.665,204.5752 146.004,206.7782 146.004,206.7782" id="Stroke-27" stroke-width="0.903"></path><path d="M147.6318,206.4926 C146.2778,206.5956 144.3158,206.7676 140.0288,207.0026 C133.9008,207.3366 140.0288,211.5876 140.0288,211.5876 C140.0288,211.5876 151.7308,209.8066 155.1788,209.2226 C155.8538,209.1086 156.2128,209.0406 156.1038,209.0406 C155.4438,209.0406 147.6318,206.4926 147.6318,206.4926" id="Stroke-29" stroke-width="0.793"></path><path d="M32.4013,189.1108 C32.4013,189.1108 27.3733,188.2018 22.7483,190.1838 C18.1243,192.1658 16.2973,194.0048 16.2973,194.0048 L17.6183,197.5288 L21.5823,221.3118 L18.2793,223.0738 M14.0953,126.8398 C14.0953,126.8398 12.3333,129.7018 11.2323,133.8858 C10.1313,138.0708 13.2143,139.8318 13.2143,139.8318 M34.0673,76.8838 C34.0673,76.8838 28.5783,82.3908 26.5973,85.0338 C24.6153,87.6758 18.0583,104.3768 18.0583,104.3768 C16.7373,104.3768 10.5713,99.9728 10.7913,104.1568 C11.0123,108.3408 15.1963,112.7458 18.4993,113.8468 C21.8023,114.9478 29.5103,109.6628 29.5103,109.6628 C29.5103,109.6628 27.3083,93.3668 59.2393,100.4138 L53.9543,116.9298" id="Stroke-31" stroke-width="0.903"></path><path d="M108.1614,31.248 C108.2084,31.647 108.2184,32.057 108.5944,32.091 C109.4094,31.637 111.0024,32.208 111.8844,32.384 C113.0924,32.624 114.8884,32.139 115.8694,31.286 C115.5154,29.983 113.6664,29.588 112.4354,29.738 C111.6664,29.832 111.0844,29.739 110.3344,30.047 C109.9794,30.192 109.5564,30.413 109.2514,30.648 C108.9834,30.854 108.5854,31.502 108.3554,31.472" id="Stroke-33" stroke-width="0.636"></path><path d="M116.5844,29.8506 C114.1564,27.3156 109.8584,28.0526 107.8214,30.6126 C108.0704,30.7306 108.1264,31.0146 108.1614,31.3046" id="Stroke-35" stroke-width="0.83"></path><path d="M117.6846,28.0891 C117.9176,27.4851 116.0846,26.9931 115.6136,26.9901 C114.6196,26.9831 113.4366,27.2261 112.4896,27.4981 C111.1566,27.8801 110.0226,28.4561 108.8326,29.1291 C107.9726,29.6161 107.9556,29.1531 107.3226,28.4381 C108.2846,28.2391 109.1466,27.7711 110.0776,27.4751 C111.0116,27.1801 111.9596,27.0451 112.9266,26.9191 C113.5886,26.8321 114.2496,26.7171 114.9166,26.7021 C116.1476,26.6731 117.2126,27.2881 118.4596,27.3301" id="Stroke-37" stroke-width="0.846"></path><path d="M99.9933,28.747 C98.4563,28.238 97.3893,27.066 95.9393,26.407 C94.5313,25.768 93.1833,25.524 91.6093,25.367 C89.0083,25.109 86.8853,26.052 85.0173,27.395 C85.0863,27.515 85.2103,27.73 85.3053,27.837 C85.9613,27.544 86.9143,27.161 87.6343,27.053 C88.6423,26.902 89.7733,26.936 90.7973,27.036 C93.6623,27.317 97.5713,29.441 99.9933,28.747" id="Stroke-39" stroke-width="0.923"></path><path d="M93.6273,29.4928 C94.4013,29.7008 94.1783,30.7498 93.5183,30.9628 C92.7263,31.2178 92.0523,30.6648 91.8803,29.9118 C91.7223,29.2178 92.6143,28.9348 93.4733,29.0238 C94.2863,29.1078 93.5293,30.3068 92.8003,30.3228 C92.7923,30.2568 92.8293,30.2188 92.9113,30.2088 M113.1143,30.5248 C113.7593,30.6978 113.5573,31.8168 113.0063,31.9948 C112.2143,32.2498 111.4503,31.6968 111.2793,30.9438 C111.1213,30.2498 112.1013,29.9668 112.9613,30.0558 C113.7743,30.1398 112.9273,31.3388 112.1983,31.3548 C112.1903,31.2888 112.2273,31.2508 112.3103,31.2398 M96.1913,29.9098 C95.5183,28.9808 94.1733,28.4648 93.0483,28.4168 C92.1883,28.3808 91.5033,28.6098 90.7323,28.9868 C90.2683,29.2138 88.9963,30.1618 88.4993,30.1488" id="Stroke-41" stroke-width="0.83"></path><path d="M88.8571,31.3413 C89.7901,30.7683 91.5841,31.4173 92.6131,31.6123 C94.0141,31.8783 94.8701,31.2063 96.0721,30.6253 M96.6091,31.4603 C95.7911,31.7583 95.4211,32.7183 94.4441,32.9853 C93.0091,33.3763 91.5111,32.7443 90.2881,31.9973" id="Stroke-43" stroke-width="0.624"></path><path d="M107.3419,38.6756 C108.1739,39.1626 109.5069,39.8556 109.6539,40.9266 C109.8119,42.0766 108.2379,42.6286 107.2819,42.6706 L107.3419,38.6756 Z M100.3649,38.3776 C99.5029,37.8396 97.2309,39.9736 97.1729,40.8926 C97.0019,43.5556 99.5049,42.4676 100.4549,42.5696 C101.0809,42.6366 102.0549,43.2476 102.6939,43.2526 C104.1599,43.2616 105.6529,43.2146 106.6859,42.4916 L100.3649,38.3776 Z M106.8129,46.6696 C105.5439,46.6666 104.5399,47.4546 103.7129,47.2536 C103.4139,47.1806 102.8869,46.8176 102.5269,46.6996 C101.9469,46.5086 101.5259,46.3466 100.9069,46.3676 C99.6089,46.4126 98.2629,47.2476 97.0819,47.7696 C96.6299,47.9696 95.4569,49.0466 95.0529,48.7706 C95.0089,49.4556 95.6039,49.8176 95.9659,50.2966 C97.0779,49.7486 98.5349,49.5866 99.7679,49.5876 C100.4099,49.5886 101.1009,49.5146 101.7249,49.6446 C102.4599,49.7976 103.1339,50.1016 103.8949,50.1706 C104.9459,50.2656 105.9099,49.6836 106.9669,49.7636 C107.6969,49.8196 108.4719,49.9806 109.1899,50.1376 C109.6259,50.2326 110.1039,50.5416 110.5529,50.4776 C110.4989,49.9636 111.1709,49.1356 111.4359,48.7666 C110.6979,49.0776 108.0819,46.6716 106.8129,46.6696 Z M96.4409,51.6026 C96.4449,52.3176 100.8629,53.9336 101.5019,54.0006 C102.6179,54.1156 103.7649,54.0596 104.8879,54.0596 C105.9339,54.0596 109.9209,52.5346 110.5419,51.2916 C110.5419,51.2916 111.4419,56.0066 109.6839,58.6436 C107.9259,61.2806 105.2889,64.5766 105.2889,63.9176 C105.2889,63.2576 103.7509,56.2256 103.7509,56.2256 L101.7729,64.3566 C101.7729,64.3566 91.9749,56.8376 96.4409,51.6026 Z M119.1489,42.0146 C119.3209,42.2676 119.6089,42.2676 119.6089,42.5556 C119.6089,44.5706 119.8969,46.2986 119.3209,48.3146 C119.0329,49.1786 118.4569,49.7536 118.1689,50.3296 C117.3049,52.6336 116.1599,55.5116 114.8349,57.8976 C114.8349,57.8976 114.2079,62.7796 113.8689,63.9296 C113.5309,65.0786 109.7439,69.1366 109.7439,69.1366 C109.7439,69.1366 97.6369,69.3396 97.4339,69.1366 C97.2309,68.9346 94.1199,64.2676 92.5639,62.7116 L119.1489,42.0146 Z" id="Stroke-45" stroke-width="0.83"></path><path d="M119.6144,43.3455 C120.1554,42.5995 120.3884,42.0115 120.5894,41.1465 C120.7274,40.5515 121.0674,40.0965 121.3174,39.5355 C121.8584,38.3225 122.0794,36.9945 122.1134,35.6655 C122.1324,34.9225 121.8844,33.9955 121.3194,33.4735 C120.9114,33.0965 120.0024,32.9585 119.7364,33.5985" id="Stroke-47" stroke-width="0.848"></path><path d="M79.555,31.9376 C79.071,31.1686 77.638,31.7586 77.121,32.2356 C76.58,32.7356 76.147,33.5726 75.885,34.2666 C75.445,35.4296 75.815,36.2896 75.993,37.4486 C76.138,38.3906 76.579,39.2376 76.691,40.1346 C76.799,41.0016 77.266,41.8966 77.655,42.7476 C78.118,43.7606 78.488,44.6886 79.191,45.5326 C79.682,46.1226 79.617,46.3906 80.495,46.4296 C81.626,46.4806 82.677,46.2196 82.954,45.0556" id="Stroke-49" stroke-width="0.83"></path><path d="M78.9437,37.1265 C78.7137,36.6985 77.7127,36.9815 77.4347,37.2485 C76.9857,37.6785 76.9177,38.7175 77.0467,39.2735 C77.2177,40.0125 77.5347,40.7585 77.7567,41.4945" id="Stroke-51" stroke-width="0.848"></path><path d="M81.1053,36.3501 C80.6623,36.7911 80.2823,37.3971 80.1723,38.0161 C80.0803,38.5391 80.2743,39.9521 80.9863,39.9281 M82.9543,45.9501 C82.9543,49.3931 82.7783,53.4091 82.8073,56.8511 M79.7383,31.9831 C80.3463,28.6441 79.7613,27.1141 79.4733,23.3701 C79.4733,22.5061 79.1953,20.7651 79.1953,19.9011 C79.1953,17.0221 78.9073,14.1421 80.0593,11.5511 C80.9233,9.8231 81.7863,7.8071 83.2263,6.3681 C86.3943,3.2001 91.0053,0.5221 95.6083,0.3211 C97.1083,0.2551 97.8613,0.1881 99.0133,0.1881 C105.0603,0.1881 111.7333,1.1851 116.6283,5.5041 C117.2043,6.0801 117.4923,6.6561 118.0683,6.9441 C120.0833,10.1111 121.8113,13.5661 121.6643,17.1991 L121.8143,22.1701 C121.6653,25.7991 120.8853,29.3811 120.4063,33.1111" id="Stroke-53" stroke-width="0.83"></path><path d="M114.7171,59.9222 C116.6901,63.5562 121.3251,66.8682 123.1731,66.2672" id="Stroke-55" stroke-width="0.824"></path><path d="M72.7665,61.7913 C77.1605,60.8403 80.1885,58.5463 82.8075,56.8513 L80.8965,62.1593" id="Stroke-57" stroke-width="0.807"></path><path d="M120.5893,41.1464 C122.6223,41.1534 126.9763,41.6394 129.2213,42.8094 C129.2213,42.8094 132.6043,44.3644 131.2503,47.7814" id="Stroke-59" stroke-width="0.824"></path><path d="M92.7657,63.0045 C89.6627,59.8325 85.3437,57.5285 83.2177,53.3165" id="Stroke-61" stroke-width="0.83"></path><path d="M52.1373,337.6708 C41.3143,336.8468 30.2193,334.9438 23.2003,330.8948 C23.2003,330.8948 33.3573,272.8948 33.0333,258.0878 M84.3263,337.6868 C84.3263,337.6868 72.0253,338.6478 57.8513,338.0138" id="Stroke-63" stroke-width="0.903"></path><path d="M54.6046,245.3411 C55.4046,243.2041 56.2316,241.1861 57.0836,239.3111 C70.5996,209.5751 90.6046,218.2251 90.6046,218.2251 M52.5276,334.4341 C48.2126,335.2981 43.4566,335.6151 36.5376,335.0091 C36.5376,335.0091 38.8306,313.4921 43.3156,289.4961" id="Stroke-65" stroke-width="0.824"></path><path d="M51.4789,242.2155 C52.2789,240.0785 53.1059,238.0605 53.9579,236.1855 C67.4739,206.4485 87.4789,215.0995 87.4789,215.0995 M51.2769,331.0895 C48.3349,331.6955 44.8169,332.0095 40.6099,331.8875" id="Stroke-67" stroke-width="0.624"></path><path d="M81.6343,237.9506 L69.3843,321.3866 C69.3843,321.3866 69.5463,329.8726 56.6743,333.4716 M84.6373,217.2856 L82.1093,234.6836" id="Stroke-69" stroke-width="0.824"></path><path d="M59.2392,100.4134 C59.2392,100.4134 65.0072,107.3774 67.9702,101.4524 C70.9322,95.5274 81.3002,77.7534 81.3002,77.7534 C81.3002,77.7534 85.1982,107.3884 113.3122,111.7144 C113.3122,111.7144 140.4972,97.6374 126.4512,78.6134 C126.4512,78.6134 139.0672,89.6024 139.0672,96.2684 C139.0672,102.9334 143.5112,105.8964 143.5112,105.8964 C152.4242,109.1834 162.4972,102.9224 163.8422,102.6154" id="Stroke-71" stroke-width="0.903"></path></g><polyline id="Stroke-74" stroke="#81735B" stroke-width="0.869" stroke-linecap="round" stroke-linejoin="round" points="196.517 166.3951 196.327 136.9011 200.396 152.5331 205.115 156.8221 204.686 150.3881 198.681 129.7991"></polyline><g id="Group-105" transform="translate(70.000000, 80.415000)" stroke="#81735B" stroke-linecap="round" stroke-linejoin="round"><path d="M59.5107,44.1288 C59.8697,44.3098 60.1587,44.6578 60.2757,45.1068 C58.7247,44.8618 57.3107,46.4438 57.0727,48.2138 C56.9937,48.7988 56.9757,50.1308 57.6747,50.2478 C58.2367,50.3428 58.4727,49.4138 58.7147,48.9728 C60.3997,45.9088 63.9007,44.6288 66.7457,45.8928 C68.4907,46.6688 69.9707,48.3098 70.7137,50.3578 C70.8577,48.5368 73.0037,47.5728 74.1217,48.8048 M85.2047,87.2748 C82.2127,92.3118 89.1017,97.3398 91.6647,100.9828 C94.2237,104.6198 93.0397,109.5268 93.6657,111.0168 M67.9467,52.6578 C66.9497,48.2608 61.4217,48.7178 60.9547,53.2438 C62.1047,52.5968 63.9147,52.8028 64.4627,54.3888 C64.5557,55.6118 64.5557,57.0328 63.6657,57.0328 C62.7757,57.3888 61.8857,55.9668 60.6997,56.3228 C58.3267,57.3888 57.7337,61.2968 58.6227,64.1388 C58.9197,64.8498 59.5127,65.2048 60.1067,65.5608 C61.2927,66.2708 62.4797,66.2708 63.6657,65.9158 C72.2677,62.7178 79.3867,72.6668 80.9107,81.7538 C80.1827,80.0058 82.1477,78.3638 83.2647,79.7918 C83.9687,78.0548 83.2667,75.7178 81.7997,74.9168 C83.2427,74.0878 84.9067,75.4068 85.5117,76.9908 C86.3227,79.1178 85.5077,81.6168 84.6197,83.5058 M77.4117,82.4828 C76.7427,79.2698 75.9827,75.7618 73.9597,73.3518 C71.8337,70.8188 67.9257,69.5988 65.0927,70.9528 C63.6517,71.6418 62.4067,73.1658 62.2037,75.0618 C62.8527,74.0148 64.2587,73.4668 65.1867,74.3288 C65.9547,75.0408 66.1247,76.6898 65.2907,77.4268 C68.1277,77.8028 68.0217,82.9628 65.1717,83.1688 C65.9207,83.6058 66.8197,82.8638 67.5377,83.4148 C68.3707,84.0538 67.7217,84.8008 67.0897,85.1688 C65.9557,85.8298 63.1077,86.6158 63.1457,84.1608 C63.1717,82.4428 64.2657,80.7258 62.3757,79.8368 C60.9757,79.1778 59.2317,79.7188 57.8937,80.3398 M67.6617,76.3778 C67.5437,76.2088 67.5437,75.9238 67.8297,75.6378 C70.4017,74.2088 72.9747,77.3528 73.8317,79.3528 C74.9747,82.2108 75.2607,85.0688 75.0367,88.2868 C74.9637,86.9938 74.9847,85.0028 75.0367,88.2868 C74.9637,86.9938 73.5377,86.2358 72.3777,86.7138 C70.9227,87.3128 70.3597,89.2848 69.9227,90.6348 C70.4937,90.2908 72.2037,89.7068 72.5537,90.3938 C72.6887,91.0708 72.4027,91.6428 72.6887,91.9278 C73.8317,93.3568 74.1177,95.3578 73.1767,96.6798 C73.3507,95.3598 74.0067,95.5458 73.1767,96.6798 C73.3507,95.3598 74.9377,94.7818 75.9927,95.5238 C77.3227,96.4598 77.3337,98.6128 77.0877,100.0348 C78.9947,99.0378 81.8577,96.5468 79.8587,94.1928 C76.9757,93.3568 75.8327,90.4988 77.2617,87.9268 C77.8327,87.0698 78.6907,86.7838 79.5477,86.2118 L80.6907,86.2118 C80.9767,86.4978 81.2627,87.0698 81.2627,87.3558 C80.9767,91.3568 81.1587,95.9628 84.4057,98.5018 C92.3927,104.7428 91.0807,107.0578 91.2947,110.4828 M57.9647,68.7918 C56.5117,68.0768 55.3897,66.6258 54.9717,64.8028 C54.7597,63.8778 54.7257,62.8918 54.8697,61.9488 C54.9837,61.2068 55.6557,60.0928 55.4327,59.4608 C55.0347,58.3318 53.0527,58.2158 52.2287,58.2248 C51.6737,58.2308 50.5677,58.3208 50.6077,59.2828 C50.6427,60.1158 51.1197,59.5358 51.4967,59.8408 C51.7937,60.0798 51.6647,60.8138 51.6537,61.3638 C49.7607,60.2968 47.2487,61.8288 46.7807,64.2468 C46.2117,67.1908 48.2937,70.1618 50.6427,70.6818 M53.8937,46.0438 C53.6927,50.3078 54.4777,56.2478 58.6657,57.3488 M57.9247,69.9998 C54.9177,71.1478 53.3747,74.9828 50.3317,75.8348 C48.8487,76.2488 47.0687,76.5388 45.6237,75.8108 C44.4797,75.2358 43.2997,73.7308 43.7227,72.1198 C43.9327,71.3218 44.7457,70.5898 45.4337,71.1308 C45.6797,71.3238 45.8557,71.6968 45.8407,72.0568 C45.8097,72.8098 45.5287,72.6218 45.1147,72.3058 M118.5057,44.6348 C118.2457,44.9088 118.1287,45.2868 118.1507,45.6608 C119.0867,45.2018 120.1267,45.7808 120.7687,46.4708 C121.2557,46.9938 122.1407,48.3808 121.7817,49.1618 C121.3187,50.1688 120.1917,48.3928 119.7597,48.0418 C118.8947,47.3388 117.8447,46.8608 116.7307,46.7488 M109.2757,87.9838 C113.0287,91.6848 107.8937,96.6328 106.6497,100.5548 C106.1567,102.1108 104.2957,105.4778 104.9377,109.9738 M121.4237,64.4048 C118.9877,64.2058 116.4157,65.0628 114.7007,66.7778 C112.1287,69.9218 111.5567,73.9228 110.9857,77.6378 C110.9857,79.0668 110.6997,80.7818 111.2547,82.1968 C111.3477,80.9408 109.4427,79.3278 108.8797,81.0638 C107.9657,79.8488 107.6947,77.7108 108.7807,76.5078 C107.0407,76.0288 106.3007,78.3738 106.3757,79.6728 C106.4837,81.5308 107.6027,83.2088 108.7647,84.5918 M114.0177,54.0028 C113.8857,52.5018 114.5397,50.8198 116.1597,50.4898 C117.7927,50.1558 119.1447,51.4318 119.7177,52.8458 C118.6417,52.5658 117.3697,53.2078 117.2517,54.3888 C117.1627,55.2708 117.7687,57.2878 118.9857,56.6518 C119.9977,56.1238 120.1407,55.0098 121.5047,55.7098 C122.6297,56.2868 123.3497,57.5158 123.7877,58.6548 M122.1157,71.8318 C121.3177,72.7038 121.4577,74.1718 122.5317,74.7478 C121.2757,75.3228 121.3067,77.0008 121.7647,78.0948 M114.2207,81.9948 C113.9007,78.8988 113.4087,75.4348 114.9307,72.5598 C116.2477,70.0738 119.4067,68.0608 122.1707,69.5248 M120.3787,74.4058 C120.4167,74.2088 120.4167,73.6368 120.1307,73.6368 C114.1287,74.7808 116.7007,82.4968 117.6067,86.4378 C117.3267,85.3128 116.7907,83.5618 117.6067,86.4378 C117.3267,85.3128 118.2987,84.2298 119.4537,84.4748 C120.7337,84.7458 121.6157,86.2458 122.2717,87.2488 C121.6647,87.0658 120.2707,87.0138 120.1277,87.6858 C120.4167,89.0698 119.8447,90.2128 120.1307,91.6428 C120.4167,92.2138 120.9877,92.7858 121.2537,93.2388 C120.8047,92.1948 120.2937,92.4528 121.2537,93.2388 C120.8047,92.1948 119.4067,91.9868 118.7197,92.9138 C117.8727,94.0558 118.4717,95.9338 119.0177,97.0658 C117.1947,96.6518 114.1267,94.9848 115.3547,92.5688 C115.8437,91.9278 116.7007,91.3568 116.9867,90.4988 C117.2727,88.7838 116.7007,86.4978 114.7007,85.9268 C113.8437,85.6408 112.9857,85.9268 112.1287,85.9268 C113.2717,89.6418 114.9867,93.3568 112.9857,97.0728 C111.8427,99.3588 106.4357,104.6218 107.5067,109.3318 M123.4587,44.9518 C124.7207,48.5838 125.6347,53.8968 122.5957,55.8438 C122.7937,55.7578 122.9927,55.6728 123.1907,55.5868" id="Stroke-75" stroke-width="0.903"></path><path d="M26.0653,12.0783 C26.0653,12.0783 28.7183,16.3893 37.6723,16.0583 C46.6263,15.7263 51.6003,19.0423 58.2333,24.6803 M153.4103,29.6543 C152.4153,29.9863 144.7883,32.3073 144.7883,32.3073 C144.7883,32.3073 145.1193,26.6703 132.1863,28.6593" id="Stroke-77" stroke-width="0.286"></path><path d="M38.2727,55.029 C38.2727,55.029 35.6027,73.834 34.3157,75.549 C33.0287,77.265 27.0237,85.415 27.0237,85.415 M25.7337,55.656 L20.5897,75.12 L21.4477,84.986 L24.0217,76.407 L28.8687,55.342 M15.7027,56.283 L10.2957,74.263 L13.2267,82.799 M10.0607,81.663 L6.8647,73.405 L11.4127,57.141 M135.5437,46.382 L144.5507,66.542 L141.1197,73.834 M139.6837,48.699 L147.5537,66.542 L143.8367,72.893" id="Stroke-79" stroke-width="0.869"></path><path d="M32.8634,72.8199 C32.7234,74.2899 31.6304,75.3729 30.4214,75.2389 C29.2124,75.1049 28.3464,73.8059 28.4864,72.3359 C28.6264,70.8659 29.7194,69.7829 30.9284,69.9169 C32.1374,70.0499 33.0034,71.3499 32.8634,72.8199 Z" id="Stroke-81" stroke-width="0.513"></path><path d="M18.7598,72.5677 C18.3678,73.9857 17.1608,74.8487 16.0648,74.4957 C14.9678,74.1427 14.3968,72.7077 14.7888,71.2897 C15.1808,69.8717 16.3878,69.0087 17.4848,69.3617 C18.5808,69.7147 19.1518,71.1497 18.7598,72.5677 Z" id="Stroke-83" stroke-width="0.497"></path><path d="M34.5468,61.5544 C34.4068,63.0244 33.3138,64.1074 32.1048,63.9734 C30.8958,63.8394 30.0298,62.5394 30.1698,61.0704 C30.3098,59.6004 31.4028,58.5174 32.6118,58.6514 C33.8208,58.7844 34.6868,60.0844 34.5468,61.5544 Z" id="Stroke-85" stroke-width="0.513"></path><path d="M21.1387,63.2754 C20.7467,64.6934 19.5397,65.5564 18.4437,65.2034 C17.3467,64.8504 16.7757,63.4154 17.1677,61.9974 C17.5597,60.5794 18.7667,59.7164 19.8637,60.0694 C20.9597,60.4224 21.5307,61.8574 21.1387,63.2754 Z" id="Stroke-87" stroke-width="0.497"></path><path d="M5.6847,70.8172 C5.2907,72.2302 4.1577,73.1132 3.1537,72.7892 C2.1497,72.4652 1.6547,71.0572 2.0487,69.6442 C2.4417,68.2312 3.5747,67.3482 4.5797,67.6722 C5.5837,67.9962 6.0787,69.4042 5.6847,70.8172 Z" id="Stroke-89" stroke-width="0.476"></path><path d="M141.0885,64.5514 C141.2345,66.0144 140.4205,67.2534 139.2705,67.3194 C138.1195,67.3844 137.0685,66.2514 136.9235,64.7874 C136.7775,63.3244 137.5915,62.0854 138.7415,62.0204 C139.8915,61.9544 140.9425,63.0884 141.0885,64.5514 Z M136.8155,53.6744 C136.9615,55.1374 136.1475,56.3764 134.9965,56.4424 C133.8465,56.5074 132.7955,55.3744 132.6495,53.9104 C132.5035,52.4474 133.3185,51.2084 134.4685,51.1434 C135.6185,51.0774 136.6695,52.2114 136.8155,53.6744 Z M148.3395,55.4874 C148.4855,56.9504 147.6715,58.1894 146.5215,58.2544 C145.3715,58.3204 144.3205,57.1864 144.1745,55.7234 C144.0285,54.2604 144.8425,53.0214 145.9925,52.9554 C147.1435,52.8904 148.1935,54.0234 148.3395,55.4874 Z" id="Stroke-91" stroke-width="0.497"></path><path d="M48.7438,109.0792 C45.0748,108.0602 41.4308,107.2492 39.3118,107.2492 M118.3908,116.5492 C118.3908,116.5492 113.0838,137.5102 99.8708,142.5752 C90.8768,146.0232 82.1958,125.3982 64.2448,115.0342" id="Stroke-93" stroke-width="0.605"></path><path d="M90.3829,159.9109 L90.3829,168.3959 L86.3199,174.6679 L84.8049,174.6679 L80.7419,168.3959 L80.7419,156.1049 M95.6649,174.9259 L95.6649,183.4109 L91.6019,189.6829 L90.0869,189.6829 L86.0239,183.4109 L86.0239,177.3839 M103.7729,189.6829 L102.2579,189.6829 L98.1949,183.4109 L98.1949,177.1399 M84.8719,174.9259 L84.8719,183.4109 L80.8089,189.6829 L79.2929,189.6829 M101.9349,165.9349 L101.8539,168.4509 L97.7319,174.6759 L96.2169,174.6589 L92.2139,168.3419 L92.2949,162.4539 M90.3829,190.9209 L90.3829,197.4249 L86.3199,203.6969 L84.8049,203.6969 L80.7419,197.4249 L80.7419,191.1259 M101.9349,190.6989 L101.8539,197.4799 L97.7319,203.7049 L96.2169,203.6879 L92.2139,197.3699 L92.2949,188.8859 M95.6649,204.2909 L95.6649,212.7769 L91.6019,219.0489 L90.0869,219.0489 L86.0239,212.7769 L86.0239,206.7489 M103.7729,219.0489 L102.2579,219.0489 L98.1949,212.7769 L98.1949,206.5059 M101.2169,246.0029 L99.7019,246.0029 L95.6389,239.7309 L95.6389,233.4599 M84.8719,204.2909 L84.8719,212.7769 L80.8089,219.0489 L79.2929,219.0489 M90.3829,220.2859 L90.3829,226.7909 L86.3199,233.0619 L84.8049,233.0619 L80.7419,226.7909 L80.7419,220.4909 M101.9349,220.0639 L101.8539,226.8449 L97.7319,233.0709 L96.2169,233.0539 L92.2139,226.7359 L92.2949,218.2509 M60.2159,21.8009 C60.2159,10.0939 53.7859,0.6209 45.8389,0.6209 M53.0059,37.7879 C53.0059,28.9509 36.0409,21.8009 15.0759,21.8009 M132.1859,28.6599 C132.1859,22.7889 137.4319,18.0389 143.9139,18.0389 M6.0589,42.3769 C6.0589,42.3769 7.8659,45.6249 12.2539,44.0569 C16.6429,42.4899 16.9559,35.5939 31.3759,33.0859 C45.7959,30.5779 53.0059,37.7879 53.0059,37.7879 C53.0059,30.1639 35.6209,23.9949 14.1349,23.9949" id="Stroke-95" stroke-width="0.737"></path><path d="M3.1633,62.2389 C3.1633,62.2389 -3.4197,58.7909 4.1033,57.2229 C11.6273,55.6559 41.9543,54.9299 41.9543,54.9299" id="Stroke-97" stroke-width="0.903"></path><path d="M40.1536,130.8903 C41.4076,130.8903 57.9206,148.7733 85.7526,148.7733" id="Stroke-99" stroke-width="0.605"></path><path d="M44.1656,309.1888 C41.6096,313.7748 39.9526,320.4968 40.4666,330.2618 C41.5776,351.3588 45.0486,346.8698 45.0486,346.8698 C35.3056,351.1748 35.5326,318.5468 35.5326,318.5468 M53.6326,300.1678 C53.6326,300.1678 50.9876,301.6788 48.6966,303.5568 M46.1816,377.0068 C46.1816,377.0068 42.9746,371.9538 37.0186,371.3268 C31.0626,370.6998 22.9126,375.7158 22.9126,375.7158 M23.3646,384.0148 C26.5976,382.3908 31.1206,382.3318 35.4516,381.9848 C43.2886,381.3578 47.0496,384.1798 47.0496,384.1798 M34.1976,403.9288 C34.1976,403.9288 46.7366,401.1068 49.2446,394.2108 C49.2446,394.2108 44.2286,386.0598 35.4516,388.2548 C29.7896,389.6698 24.5186,390.8248 21.4906,391.4658 M49.2446,399.2258 C48.3036,398.9128 31.8246,392.3688 27.3006,393.8968 C22.8626,395.3968 23.3226,399.7668 23.3226,399.7668" id="Stroke-101" stroke-width="0.903"></path><path d="M21.8473,333.05 L19.6723,333.237 L19.0573,337.783 L23.0483,342.54 M17.9563,301.511 L12.6743,301.511 L13.4503,304.446 L18.1613,316.257 M4.2973,135.749 L0.7483,137.302 L1.8303,141.627 L5.6763,144.421 M6.6963,147.575 L2.3703,148.656 L3.9923,153.522 C3.9923,153.522 7.3813,154.002 7.3813,155.788" id="Stroke-103" stroke-width="0.811"></path></g><path d="M82.0088,168.4917 L86.4278,181.4927 L86.4278,203.6597 M224.2978,166.8947 L224.2978,178.7887 L239.4588,214.6227 M219.8598,159.1277 L222.1358,162.5687" id="Stroke-106" stroke="#81735B" stroke-width="0.773" stroke-linecap="round" stroke-linejoin="round"></path><g id="Group-133" transform="translate(70.000000, 46.415000)" stroke="#81735B" stroke-linecap="round" stroke-linejoin="round"><path d="M75.709,274.4815 C75.709,274.4815 74.275,299.6715 87.382,311.3455 M102.537,287.3835 C82.262,275.7105 78.155,263.6565 78.769,264.0665 C78.769,264.0665 74.157,294.0625 102.376,314.4795 L72.466,315.3855" id="Stroke-107" stroke-width="0.903"></path><path d="M154.1043,198.0453 C154.1043,198.0453 134.0553,202.5393 124.7223,204.9583 C123.9683,212.0463 120.5823,237.8853 119.6723,270.9853 L119.4483,288.2653 C119.5253,327.8433 123.8143,374.1473 139.5653,410.8703 M112.9303,193.8913 C112.7123,193.8183 101.3763,190.3303 101.3763,190.3303 C101.3763,190.3303 99.4873,195.4173 99.4143,196.5073 M109.1513,194.3993 L102.5393,192.4383 C102.5393,192.4383 101.5213,195.4903 101.3033,196.7253" id="Stroke-109" stroke-width="0.605"></path><path d="M163.2931,208.0666 C163.2931,208.0666 167.9021,206.9576 169.8571,205.5356 C171.8111,204.1136 174.1211,202.5146 174.1211,202.5146 L174.6541,197.1846 C174.1821,196.2076 175.7921,190.2286 175.7921,190.2286 M167.0371,213.1316 C167.0371,213.1316 170.3901,211.0436 171.8111,209.9776 M49.5521,17.1776 C49.5521,17.1776 53.2901,15.4116 65.2311,14.4776" id="Stroke-111" stroke-width="0.903"></path><path d="M150.9637,69.2031 C151.6847,70.3101 152.1067,71.6091 152.1747,72.9291 C152.1947,73.3111 152.1857,73.6941 152.1757,74.0761" id="Stroke-113" stroke-width="0.869"></path><path d="M69.5556,0.3176 C69.5556,0.3176 69.3356,17.0186 78.5656,18.9966 C78.5656,18.9966 75.4886,22.9516 79.4446,28.4456 M107.1336,6.9096 C107.1336,6.9096 106.6936,18.5566 101.4196,18.3376 C101.4196,18.3376 104.4826,20.9776 101.1926,29.4366 L105.3866,23.4166" id="Stroke-115" stroke-width="0.83"></path><path d="M80.763,29.5445 C80.763,29.5445 80.104,35.0385 84.499,39.8725 M101.193,29.4365 C101.193,29.4365 100.88,38.6655 97.744,41.1375" id="Stroke-117" stroke-width="0.807"></path><path d="M114.4508,50.613 C114.4508,50.613 114.1178,71.508 100.2128,72.963 C84.0818,74.652 69.3008,49.753 69.3008,49.753" id="Stroke-119" stroke-width="0.513"></path><path d="M58.9675,54.0866 C58.9675,55.3566 57.9375,56.3866 56.6675,56.3866 C55.3975,56.3866 54.3685,55.3566 54.3685,54.0866 C54.3685,52.8166 55.3975,51.7866 56.6675,51.7866 C57.9375,51.7866 58.9675,52.8166 58.9675,54.0866 Z M55.0575,62.8256 C55.0575,64.0956 54.0285,65.1256 52.7585,65.1256 C51.4885,65.1256 50.4585,64.0956 50.4585,62.8256 C50.4585,61.5556 51.4885,60.5256 52.7585,60.5256 C54.0285,60.5256 55.0575,61.5556 55.0575,62.8256 Z M8.4895,137.9106 C8.4895,139.1806 7.4595,140.2106 6.1895,140.2106 C4.9195,140.2106 3.8895,139.1806 3.8895,137.9106 C3.8895,136.6406 4.9195,135.6106 6.1895,135.6106 C7.4595,135.6106 8.4895,136.6406 8.4895,137.9106 Z" id="Stroke-121" stroke-width="0.773"></path><path d="M4.2347,156.8831 C4.6757,158.4541 4.2317,159.9531 3.2447,160.2291 C2.2567,160.5061 1.0997,159.4571 0.6587,157.8851 C0.2187,156.3141 0.6617,154.8161 1.6487,154.5391 C2.6367,154.2621 3.7937,155.3121 4.2347,156.8831 Z" id="Stroke-123" stroke-width="0.789"></path><path d="M123.8188,63.2853 C123.8188,64.5553 122.7888,65.5853 121.5188,65.5853 C120.2488,65.5853 119.2198,64.5553 119.2198,63.2853 C119.2198,62.0153 120.2488,60.9853 121.5188,60.9853 C122.7888,60.9853 123.8188,62.0153 123.8188,63.2853 Z M130.9478,59.1463 C130.9478,60.4163 129.9178,61.4453 128.6478,61.4453 C127.3778,61.4453 126.3488,60.4163 126.3488,59.1463 C126.3488,57.8753 127.3778,56.8463 128.6478,56.8463 C129.9178,56.8463 130.9478,57.8753 130.9478,59.1463 Z" id="Stroke-125" stroke-width="0.773"></path><path d="M169.3528,193.9081 C169.3528,193.9081 174.6418,196.6681 174.8718,198.9671 M167.5128,196.6681 C167.5128,196.6681 173.3708,199.6231 174.1208,202.5151 M163.6038,201.4971 C163.6038,201.4971 164.2938,205.4061 167.9728,206.5561 M158.7738,203.1071 C158.7738,203.1071 158.5438,207.2461 161.9938,208.1661" id="Stroke-127" stroke-width="0.789"></path><path d="M6.3044,214.6054 C6.3044,214.6054 9.9834,214.8354 12.7434,214.3754 M9.5244,218.7444 C9.5244,218.7444 12.0534,218.9744 14.3534,218.2844 M12.0534,222.4244 C12.0534,222.4244 15.2734,222.6544 16.1934,221.7344 M17.7304,225.9044 C17.7304,225.9044 19.1824,225.4144 20.1024,224.9544 M17.1134,215.7554 L19.6284,220.8214 L24.5574,230.7484 M6.0744,206.5564 C6.0744,206.5564 11.8234,204.9464 15.0434,205.6364 M8.0404,198.8174 C8.0404,198.8174 12.7434,197.5874 15.0434,197.5874 M9.5824,193.3124 L15.2734,191.8384 M177.6314,179.6504 C177.1714,178.9604 171.8824,173.6704 171.8824,173.6704 M179.9314,191.6084 C180.2494,190.0084 174.4124,184.4794 174.4124,184.4794 M163.0734,177.0164 C163.0734,177.0164 163.6034,180.3404 162.2234,181.7194 C160.8444,183.0994 155.5544,181.2594 152.5654,185.6294" id="Stroke-129" stroke-width="0.903"></path><path d="M214.4269,407.5498 C213.5069,407.0898 203.6179,408.0098 206.6079,416.5188" id="Stroke-131" stroke-width="0.636"></path></g><path d="M177.3194,243.8716 L181.9864,243.8716" id="Stroke-134" stroke="#81735B" stroke-width="0.903" stroke-linecap="round" stroke-linejoin="round"></path><g id="Group-139" transform="translate(75.000000, 167.415000)" stroke="#81735B" stroke-linecap="round" stroke-linejoin="round"><path d="M26.831,93.8353 C26.831,93.8353 24.906,100.5773 29.088,104.9103 L32.867,99.3733" id="Stroke-135" stroke-width="0.933"></path><path d="M39.2494,43.2421 C39.2494,43.2421 50.9774,55.4301 69.3754,57.2701 M8.1084,40.5401 C8.4224,47.8681 9.8684,53.5861 12.7044,60.3511 C13.6794,62.6751 14.8054,64.9731 15.2274,67.4581 C15.6484,69.9421 15.2524,72.7171 13.5144,74.5411 C12.2704,75.8471 10.3074,76.8121 10.1654,78.6101 C10.1194,79.1971 10.2914,79.7971 10.1624,80.3721 C10.0324,80.9471 9.3734,81.4741 8.8764,81.1571 C8.6144,82.2541 8.7874,83.4501 9.3514,84.4271 C9.5024,84.6891 9.7704,84.9691 10.0564,84.8731 C10.3434,84.7771 10.0904,84.1961 9.8984,84.4301 M150.2394,25.9371 C149.6914,28.9101 150.9394,31.9381 152.6094,34.4581 C154.2794,36.9781 156.3904,39.1981 157.9034,41.8151 C159.1544,43.9801 159.8534,47.0141 158.0724,48.7691 C156.9914,49.8361 155.1404,50.2531 154.7134,51.7111 C154.4774,52.5181 154.7864,53.3691 154.9024,54.2011 M0.8374,89.7171 C0.5264,89.7891 0.7114,90.2721 0.9664,90.4651 C2.7524,91.8161 5.4474,91.7991 7.2164,90.4241 C7.4414,90.2501 7.6784,90.0461 7.9634,90.0431 C8.1564,90.0421 8.3354,90.1351 8.5074,90.2231 C10.1464,91.0631 11.9514,91.6411 13.7934,91.6381 C15.2844,91.6351 16.7474,91.2541 18.1904,90.8761 C20.1024,90.3741 21.8984,88.0381 23.8104,87.5371 C23.9684,87.4951 24.2694,89.2611 24.3024,89.1011 C24.3354,88.9421 24.0304,88.8401 24.0274,89.0031 M157.1924,17.4781 C157.1924,12.4401 153.6424,8.3631 149.2554,8.3631 M157.4074,12.8681 C157.4074,5.8731 153.8574,0.2121 149.4704,0.2121 M6.3914,21.8771 C6.3914,15.2381 17.3294,9.8651 30.8464,9.8651 M6.0214,11.3741 C6.0214,6.8361 10.5974,3.1641 16.2534,3.1641 M26.6034,51.1711 C26.6034,47.6661 18.4274,44.8301 8.3224,44.8301 M137.8134,37.9581 C137.8134,48.3961 142.4514,56.8431 148.1834,56.8431" id="Stroke-137" stroke-width="0.605"></path></g><path d="M106.4896,450.995 L106.4896,431.046" id="Stroke-140" stroke="#81735B" stroke-width="0.903" stroke-linecap="round" stroke-linejoin="round"></path><g id="Group-187" transform="translate(0.000000, 0.415000)"><path d="M148.7694,310.066 C148.7694,326.364 156.3684,341.006 167.3664,348.537" id="Stroke-141" stroke="#81735B" stroke-width="0.624" stroke-linecap="round" stroke-linejoin="round"></path><path d="M141.7394,255.2654 C141.7394,255.2654 137.1714,253.0384 136.9774,251.2084 C136.7834,249.3794 125.4824,264.3304 109.5644,265.6384" id="Stroke-143" stroke="#81735B" stroke-width="0.605" stroke-linecap="round" stroke-linejoin="round"></path><path d="M135.646,260.1084 L124.259,336.2604 C124.259,336.2604 124.278,344.1374 113.954,347.9254 M139.364,235.6334 L137.558,247.5244 M134.344,293.5954 C134.344,317.0324 138.454,340.5474 143.713,340.5474 M132.297,304.9414 C132.297,332.9904 136.783,355.6864 142.327,355.6864" id="Stroke-145" stroke="#81735B" stroke-width="0.624" stroke-linecap="round" stroke-linejoin="round"></path><path d="M90.9834,348.9734 C90.9834,348.9734 94.2724,327.7444 97.2294,309.2464" id="Stroke-147" stroke="#81735B" stroke-width="0.903" stroke-linecap="round" stroke-linejoin="round"></path><path d="M148.3331,120.6618 C148.3331,120.6618 156.7591,129.0878 167.6311,132.3488 C168.9901,143.2208 169.5331,164.9648 169.2621,170.1288 C166.0001,143.4928 160.8361,133.7078 158.3901,130.9898 C162.4671,133.4368 165.4561,134.2518 165.4561,134.2518 L166.5441,143.2208 M175.5061,141.4848 C177.1341,134.5058 178.8051,131.2668 179.7911,130.0328 C177.1621,131.8088 175.2341,132.4018 175.2341,132.4018 L174.5321,138.9168 M180.7131,127.3908 C178.7571,128.7798 176.4001,130.1518 173.8311,131.0198 C173.4221,134.7048 173.1281,140.1088 172.9481,145.2078 M172.3211,115.1128 C179.5051,112.8698 181.7481,101.9368 181.7481,101.9368 C181.7481,101.9368 176.9211,108.8838 172.8491,111.4678 L181.1021,116.4198 C176.4411,117.1968 172.2791,123.4598 172.4201,126.4198 C180.0611,123.5208 184.4631,115.3608 186.3741,110.8728 M167.6461,115.3188 C157.8401,113.5478 144.5811,100.2888 144.5811,100.2888 C144.5811,100.2888 158.4741,110.0288 167.5121,111.7718 L155.5781,117.6738 C164.2071,117.2768 167.3181,122.9428 167.0871,126.6418 C150.2361,121.7488 143.4411,104.3538 143.4411,104.3538" id="Stroke-149" stroke="#81735B" stroke-width="0.605" stroke-linecap="round" stroke-linejoin="round"></path><path d="M195.1653,226.7249 L195.3563,235.6959 M214.1043,227.0399 L214.0613,232.4509 M212.1523,230.1609 C212.1523,230.1609 199.9373,230.5419 198.0283,233.0239 C196.1193,235.5049 194.9743,230.3509 194.9743,230.3509 M197.2653,226.7249 L198.4103,228.0609 L208.1443,226.7249 L205.0903,225.7709 M176.6513,235.5049 L187.1493,222.1439 M183.1403,237.2229 C183.3313,236.2679 200.7003,212.0279 200.7003,212.0279 L198.6013,208.4019 M108.1293,217.5629 C108.1293,217.5629 113.8553,230.5419 123.2073,237.6039" id="Stroke-151" stroke="#81735B" stroke-width="0.793" stroke-linecap="round" stroke-linejoin="round"></path><path d="M104.442,271.9103 C110.322,318.1453 116.716,367.6853 122.55,413.9943 M74.683,40.8073 C77.313,60.9233 80.567,85.0383 83.174,105.1543" id="Stroke-153" stroke="#81735B" stroke-width="1.238" stroke-linecap="round" stroke-linejoin="round"></path><path d="M72.7275,25.0034 C73.1895,28.5254 73.4225,30.4044 73.8835,33.9264" id="Stroke-155" stroke="#81735B" stroke-width="1.238" stroke-linecap="round" stroke-linejoin="round"></path><path d="M72.0667,13.8404 C72.5977,18.3544 73.6357,19.1534 75.1767,20.4934 M123.8167,418.1124 L131.6477,483.2204 C131.6477,483.2204 132.2117,484.7034 129.7557,484.8204 C128.4657,484.8814 127.6637,484.1054 127.6637,484.1054 L118.8287,418.2534" id="Stroke-157" stroke="#81735B" stroke-width="0.903" stroke-linecap="round" stroke-linejoin="round"></path><path d="M100.6904,278.1739 C106.5224,323.4799 112.7124,368.7829 118.5824,414.0729 M68.4434,25.9439 C72.2314,54.9609 75.9994,83.9839 79.7554,113.0109" id="Stroke-159" stroke="#81735B" stroke-width="1.238" stroke-linecap="round" stroke-linejoin="round"></path><path d="M66.3884,14.3546 C66.6794,16.6246 65.8064,19.8726 64.7924,21.6116" id="Stroke-161" stroke="#81735B" stroke-width="0.903" stroke-linecap="round" stroke-linejoin="round"></path><path d="M124.4551,416.7367 C123.4101,416.1047 122.1311,416.0467 120.9371,416.1117 C119.7991,416.1727 118.5531,416.3087 117.9671,417.4177 C117.4111,418.4697 118.9441,419.5487 119.5071,418.4837 C119.9311,417.6817 122.1951,417.7957 123.1531,418.1667 C123.2861,418.2967 123.4651,418.3907 123.6961,418.4207 C123.7471,418.4267 123.7991,418.4337 123.8501,418.4397 C124.7551,418.5557 125.2461,417.2147 124.4551,416.7367" id="Fill-163" fill="#81735B"></path><path d="M121.1761,419.419 C121.1631,419.283 121.0791,419.151 120.9081,419.123 C120.0211,418.976 119.1791,419.313 118.5871,419.976 C118.3861,420.201 118.6291,420.456 118.8751,420.441 C118.8651,420.456 118.8521,420.465 118.8441,420.482 C118.8351,420.5 118.8271,420.518 118.8181,420.536 C118.7701,420.635 118.8141,420.757 118.8731,420.839 C119.1301,421.193 119.4931,420.973 119.6301,420.653 C119.7591,420.352 119.9611,420.089 120.2341,419.964 C120.4501,419.921 120.6721,419.904 120.9041,419.929 C121.1811,419.959 121.3171,419.602 121.1761,419.419" id="Fill-165" fill="#81735B"></path><path d="M116.7872,415.7207 C118.7282,414.3297 121.3042,413.8647 123.6092,414.4897 C124.2002,414.6497 124.9072,414.8357 125.1732,415.3877 C125.8262,416.7417 124.9052,417.8947 124.4382,418.2897 M116.7872,415.7207 C116.2482,416.7417 116.4492,417.1737 116.8862,417.9457 C117.3342,418.7367 118.1632,419.3107 119.0682,419.3857 M71.5262,3.1017 C72.8492,4.0797 73.7072,5.6517 73.7072,7.4237 C73.7072,9.4377 72.6002,11.1927 70.9612,12.1127 M63.0082,6.7057 C63.2382,4.9797 64.2882,3.5137 65.7532,2.7097" id="Stroke-167" stroke="#81735B" stroke-width="0.903" stroke-linecap="round" stroke-linejoin="round"></path><path d="M66.3884,14.3546 C63.3774,13.5066 61.1694,10.7396 61.1694,7.4576 C61.1694,3.5006 64.3774,0.2936 68.3334,0.2936 C72.2904,0.2936 75.4984,3.5006 75.4984,7.4576 C75.4984,10.1416 74.0214,12.4816 71.8364,13.7086" id="Stroke-169" stroke="#81735B" stroke-width="1.415" stroke-linecap="round" stroke-linejoin="round"></path><path d="M71.962,13.9583 C71.374,13.0323 69.32,12.9683 68.267,13.2743 M65.9,24.5553 C65.6,24.3653 65.425,24.1433 65.407,23.8963 C65.338,22.9753 67.492,22.0643 70.217,21.8623 C72.942,21.6613 75.206,22.2443 75.274,23.1663 C75.291,23.3963 75.169,23.6263 74.934,23.8443 M65.256,22.7243 C64.924,22.5133 64.729,22.2673 64.709,21.9933 C64.633,20.9703 67.023,19.9593 70.047,19.7353 C73.072,19.5123 75.585,20.1593 75.66,21.1823 C75.679,21.4383 75.544,21.6933 75.283,21.9353" id="Stroke-171" stroke="#81735B" stroke-width="0.903" stroke-linecap="round" stroke-linejoin="round"></path><path d="M67.981,26.2851 C67.802,26.1941 67.698,26.0851 67.689,25.9631 C67.655,25.5071 68.961,25.0391 70.605,24.9171 C72.249,24.7961 73.609,25.0671 73.642,25.5221 C73.651,25.6361 73.576,25.7511 73.432,25.8611 M65.946,24.7621 C66.426,25.2151 66.905,25.6671 67.385,26.1201 M74.945,23.6771 C74.604,24.2401 74.263,24.8021 73.922,25.3641" id="Stroke-173" stroke="#81735B" stroke-width="1.238" stroke-linecap="round" stroke-linejoin="round"></path><path d="M69.4337,33.5351 C68.3997,60.2601 58.1307,76.9271 51.7557,85.1101 C36.9507,104.1141 22.7367,125.1101 12.7717,151.1371 C2.8067,177.1641 -2.5893,208.9351 1.3777,238.8981 C4.3697,261.4911 12.3727,281.4891 21.2757,299.5161 C30.1797,317.5431 40.1547,334.2341 48.0927,353.4131 C51.8707,362.5411 54.3657,372.7631 55.3837,383.7131 C58.6107,418.4571 40.5837,418.7771 39.2707,422.9311 M87.2347,367.4861 C75.1267,377.9631 37.5797,366.9821 83.5967,396.9241 C83.5967,396.9241 104.5717,406.8151 39.1387,424.2121 M74.5337,74.6241 C63.8227,89.7671 53.9597,106.4571 46.4857,125.9781 C36.5207,152.0051 31.1247,183.7751 35.0917,213.7391 C38.0837,236.3321 46.0867,256.3291 54.9897,274.3561 C63.8937,292.3831 76.0157,313.3231 83.9537,332.5021 M1.9847,276.9621 C1.9847,330.0061 11.4587,373.1171 22.0237,373.1171 M39.1387,424.2121 C40.9977,407.1721 39.0337,389.3951 34.3087,371.5031 C34.3087,371.5031 3.8977,380.7941 32.5957,356.2381 C37.9467,351.6601 6.0717,313.6841 1.3777,272.3131 C-0.0263,259.9371 -0.3013,247.3121 0.9077,234.8801 M60.6557,377.8741 C46.1607,350.4691 28.9157,304.4191 22.3547,254.7231 M58.9987,202.8911 C56.9447,236.3131 67.5997,269.9891 89.1157,293.0431 M30.7877,357.6131 L34.3087,371.5031" id="Stroke-175" stroke="#81735B" stroke-width="0.903" stroke-linecap="round" stroke-linejoin="round"></path><path d="M74.04,34.2698 C74.673,39.8608 85.65,45.7548 90.92,69.6138 C93.222,80.0328 90.942,87.0588 91.447,91.3598 M70.449,41.3208 C70.204,40.7838 92.347,34.3948 88.374,69.6138 C86.78,83.7468 88.51,91.6708 89.16,95.9918" id="Stroke-177" stroke="#81735B" stroke-width="0.773" stroke-linecap="round" stroke-linejoin="round"></path><path d="M73.8837,33.9259 C71.7767,32.8039 69.7377,33.7569 69.3917,34.5139" id="Stroke-179" stroke="#81735B" stroke-width="1.238" stroke-linecap="round" stroke-linejoin="round"></path><path d="M74.7886,312.6961 C66.7236,320.3721 74.8986,333.6841 77.7866,341.6471 C80.6706,349.5971 76.0066,357.9591 76.4096,361.0001 M46.8296,263.2731 C62.2506,264.3891 69.4786,283.0351 67.8036,299.3921 C67.3436,295.8281 71.6546,295.4671 72.9956,298.6451 C75.1716,295.8311 75.0566,291.2041 72.7556,288.9921 C75.8366,288.2141 78.2396,291.4731 78.5546,294.6751 C78.9786,298.9751 76.2116,303.1241 73.6186,306.1231 M41.4636,244.8021 C37.5846,246.6811 35.2576,252.5341 35.4376,257.4751 C35.6256,258.9251 36.5406,259.8771 37.4556,260.8291 C39.2866,262.7321 41.4756,263.3381 43.8446,263.2941 C44.8716,263.2091 45.8676,263.2041 46.8296,263.2731 M54.0376,276.0271 C51.0476,273.8081 47.3746,272.6261 43.9316,273.2251 C40.9246,273.7481 37.8586,275.8981 36.5246,279.2581 C38.2526,277.6771 41.1226,277.3931 42.4006,279.4401 C43.4566,281.1331 42.9386,284.2321 41.0266,285.1541 C46.0716,287.2881 43.2686,296.6611 37.9056,295.5841 C39.0676,296.7641 41.1006,295.8681 42.1456,297.2391 C43.3616,298.8331 41.7856,299.8661 40.4346,300.2161 C38.0066,300.8461 32.3566,300.8271 33.6656,296.3621 C34.5816,293.2361 37.4676,290.6581 34.4306,288.0691 C32.1796,286.1511 30.8786,286.0031 28.0956,286.4551 M60.8356,300.5761 C61.0366,297.3681 61.2326,294.0041 61.0286,290.7521 M45.9306,284.4461 C45.7996,284.0791 45.9436,283.5571 46.6156,283.1811 C52.0836,281.8821 55.2406,288.9381 55.8116,293.0311 C56.4776,298.8361 55.5606,304.2031 53.5206,309.9671 C54.0396,307.5681 55.0846,303.9421 53.5206,309.9671 C54.0396,307.5681 51.7916,305.4561 49.4106,305.7361 C46.4236,306.0881 44.3876,309.4041 42.8996,311.6481 C44.1256,311.3111 47.5776,311.1171 47.8756,312.5501 C47.7826,313.8551 46.9656,314.7541 47.3486,315.4221 C48.7366,318.6161 48.2526,322.4171 45.8496,324.3511 C46.8366,322.0291 47.9536,322.7031 45.8496,324.3511 C46.8366,322.0291 50.0576,321.7831 51.6286,323.6771 C53.6106,326.0661 52.5416,330.0051 51.3706,332.4781 C55.3926,331.6291 61.9326,328.5391 59.4346,323.2171 C54.5366,320.2201 53.8716,314.4151 57.8076,310.4451 C59.2956,309.1701 61.0216,309.0861 62.8926,308.4791 C63.4196,308.6251 64.4746,308.9161 65.0016,309.0621 C65.3846,309.7301 65.6236,310.9201 65.4786,311.4421 C62.9296,318.6071 60.9376,327.1161 65.6476,333.4101 C77.2296,348.8881 73.6406,352.4481 72.3046,358.8151 M24.3966,247.5591 C21.3836,246.2931 15.2766,248.1331 13.5336,251.6301 C10.9956,256.7181 13.3366,263.2081 17.4076,265.3571 M31.8716,265.6391 C29.5516,263.5911 28.2146,260.3681 28.3656,256.8251 C28.4416,255.0261 28.8766,253.2091 29.6196,251.5581 C30.2036,250.2611 32.0076,248.5691 31.9156,247.3011 C31.8116,245.8711 29.0226,245.4041 27.5676,244.7491 M7.4556,230.0101 C13.9086,236.1511 8.6886,245.5091 4.8646,253.0841 M13.1496,195.1791 C11.8636,202.7721 11.9096,211.0911 12.5896,217.7311 C13.0496,214.1661 8.5946,212.1691 7.2546,215.3481 C5.0786,212.5341 5.1926,207.9061 7.4946,205.6941 C4.4136,204.9161 2.0096,208.1751 1.6946,211.3781 C1.2706,215.6771 4.0376,219.8271 6.6306,222.8251 M26.7326,174.3111 C26.1616,174.8261 25.8046,175.6081 25.8146,176.4871 C28.5536,175.2491 31.9606,177.4181 33.2946,180.5301 C33.7366,181.5591 34.4416,183.9831 33.2116,184.5541 C32.2236,185.0131 31.3186,183.4371 30.6476,182.7541 C25.9926,178.0171 18.8846,177.4641 14.2756,181.2261 C11.4476,183.5341 9.5446,187.2871 9.2106,191.4081 M14.8806,190.1671 C18.5466,185.9861 26.9286,185.9011 29.3306,192.0301 C26.8816,191.4341 23.6466,192.7341 23.4376,195.9111 C23.8836,198.1931 24.6016,200.7891 26.2436,200.3351 C28.0646,200.5301 28.9886,197.4801 31.3576,197.5231 M13.1496,195.1791 C13.0586,193.1561 13.7426,191.4641 14.8806,190.1671 M38.0306,232.6261 C31.4896,233.1291 31.1036,242.4611 34.4006,241.0541 C36.7776,239.4781 30.1916,238.4851 28.6206,240.3801 C26.6386,242.7691 27.7076,246.7071 28.8796,249.1801 C24.8566,248.3321 18.3176,245.2411 20.8146,239.9201 C25.7126,236.9221 26.3776,231.1181 22.4416,227.1481 C20.9536,225.8731 19.2276,225.7881 17.3566,225.1821 C16.8296,225.3271 15.7746,225.6191 15.2476,225.7651 C14.8646,226.4331 14.6266,227.6231 14.7706,228.1451 C17.3196,235.3091 19.3116,243.8181 14.6016,250.1131 M34.3196,201.1491 C34.4506,200.7821 34.3056,200.2591 33.6346,199.8831 C28.1666,198.5851 25.0086,205.6411 24.4376,209.7331 C24.1086,212.6051 19.4366,225.7451 36.8686,224.2521" id="Stroke-181" stroke="#81735B" stroke-width="0.605" stroke-linecap="round" stroke-linejoin="round"></path><path d="M50.7444,114.9605 C47.8144,111.4765 44.5554,108.1515 40.9994,105.0095 M69.5714,133.1005 C66.6724,123.7455 61.6944,114.9585 55.0064,107.0055 M38.4164,151.7185 C33.3804,146.5535 27.5634,141.7605 21.0744,137.4145 M59.6374,175.9985 C56.2934,164.7155 49.7604,154.2035 40.6894,144.9005" id="Stroke-183" stroke="#81735B" stroke-width="0.464" stroke-linecap="round" stroke-linejoin="round"></path><path d="M64.3367,145.5175 C61.4367,136.1625 56.4597,127.3765 49.7707,119.4225 M36.6397,157.4855 C31.6037,152.3205 25.7857,147.5275 19.2977,143.1825 M51.6237,172.4125 C48.5467,166.6555 44.5927,160.6305 39.8947,155.4935 M39.4787,147.9445 C34.8287,145.0515 31.7337,139.8955 31.7337,134.0165 C31.7337,125.7375 37.8717,118.8915 45.8447,117.7815 M58.9987,202.8915 C53.5547,202.3045 48.5277,199.0035 45.9747,193.7065 C42.3797,186.2495 44.9237,176.8745 51.6237,172.4125" id="Stroke-185" stroke="#81735B" stroke-width="0.903" stroke-linecap="round" stroke-linejoin="round"></path></g></g></g></svg> 