<?xml version="1.0" encoding="UTF-8"?> <svg xmlns="http://www.w3.org/2000/svg" xmlns:xlink="http://www.w3.org/1999/xlink" width="263px" height="459px" viewBox="0 0 263 459"><!-- Generator: Sketch 52.3 (67297) - http://www.bohemiancoding.com/sketch --><title>class_commando</title><desc>Created with Sketch.</desc><g id="class_commando" stroke="none" stroke-width="1" fill="none" fill-rule="evenodd"><g id="Group-261" stroke="#52C9F4"><path d="M116.9204,362.5359 C116.9204,364.9749 120.9564,366.9489 125.9434,366.9489 L116.9204,362.5359 Z M113.5894,357.7049 C113.5894,359.7199 120.0294,361.3509 127.9874,361.3509 L113.5894,357.7049 Z M187.5664,384.7929 C187.3894,388.1099 190.0654,395.5009 201.9494,395.5009 L187.5664,384.7929 Z M207.5314,410.8859 C196.7084,410.8859 187.9504,406.5099 187.9504,401.1009 C187.7584,399.9499 186.9904,384.9839 186.9904,384.9839 L188.3344,379.8039 C188.3344,382.2429 191.9404,384.2169 196.3974,384.2169 L207.5314,410.8859 Z M207.5314,410.8859 C216.0204,410.8859 222.8894,406.1669 222.8894,400.3339 L222.4744,390.7129 L207.5314,410.8859 Z M202.5404,323.2029 L201.3884,328.1919 C201.3884,328.1919 204.2684,334.3309 205.0364,335.2909 C205.8044,336.2499 217.7064,332.6049 219.4344,329.1509 C221.1624,325.6969 213.8674,316.6799 213.8674,316.6799 C213.8674,316.6799 206.3804,322.0519 202.5404,323.2029 Z M219.7184,336.3789 L217.8984,330.6859 L219.7184,336.3789 Z M207.2314,350.1019 C207.5664,351.1259 208.1504,352.2919 208.1504,353.4589 C208.1504,359.8739 208.4424,365.9969 208.4914,372.3209 C210.5414,371.5609 208.4584,371.1649 208.4914,372.3209 C210.5414,371.5609 212.5914,370.8009 214.6414,370.0409 L207.2314,350.1019 Z M213.8674,316.6799 C212.8184,316.4269 211.9434,315.5519 210.7764,315.8439 C207.5664,317.5929 204.6494,319.6339 201.4404,321.3839 C200.8564,321.6759 200.5644,322.2589 200.2734,322.8419 C200.2734,324.5909 198.8144,326.3409 199.1064,328.0909 C199.9814,330.1319 201.4404,331.5899 202.3154,333.6309 C203.7744,337.4209 204.3574,341.2119 205.7324,345.1449 L213.8674,316.6799 Z M214.6744,367.0069 C212.5654,368.3729 208.4914,372.3209 208.4914,372.3209 L214.6744,367.0069 Z M215.7864,366.5649 C215.5964,366.4889 215.1954,366.6689 214.6744,367.0069 L215.7864,366.5649 Z M115.0004,392.8509 L111.3534,397.6479 L106.3614,403.2119 L102.1384,407.2409 L98.2994,409.7349 L95.2274,411.8459 C95.2274,411.8459 86.9724,412.2299 85.6284,414.1479 C84.2844,416.0669 83.5174,418.7529 83.9004,420.8639 C84.2844,422.9739 82.9414,423.9329 87.9324,426.0439 C92.9234,428.1539 97.3394,429.8809 98.8744,429.8809 C100.4104,429.8809 108.6654,429.4979 111.1614,429.1139 C113.6564,428.7299 118.6484,425.8519 120.1844,424.7009 C121.7194,423.5499 123.8314,420.6719 123.8314,420.6719 C123.8314,420.6719 123.8314,414.7239 141.3014,416.8339 L115.0004,392.8509 Z M148.0204,391.1239 C148.0204,391.1239 149.5554,392.4669 149.5554,393.6179 C149.5554,394.7699 148.4044,396.4959 148.4044,396.4959 C148.4044,396.4959 145.9084,399.1829 133.2384,400.7179 L148.0204,391.1239 Z M148.4044,396.4959 L148.4044,399.3739 C148.4044,399.3739 145.1404,404.3629 142.8364,405.7059 C140.5334,407.0489 136.8854,404.7469 132.6624,405.3219 C128.4384,405.8979 125.7514,410.8859 124.0234,413.5729 C122.2954,416.2589 119.6084,420.8639 110.5854,423.3579 C101.5624,425.8519 97.1474,424.3169 94.2674,422.9739 C91.3874,421.6309 89.2764,417.9859 93.3074,416.6419 C97.3394,415.2989 104.8264,414.9159 104.8264,414.9159 L108.6654,412.2299 L106.1694,410.1189 C106.1694,410.1189 112.8894,401.6769 121.7194,413.1889 L148.4044,396.4959 Z M148.4044,399.3739 C148.4044,399.3739 149.9394,400.9089 150.3234,403.5959 C150.7074,406.2819 149.9394,408.5839 149.9394,408.5839 C149.9394,408.5839 149.7474,413.1889 149.7474,414.7239 C149.7474,416.2589 148.9804,421.0549 139.1894,422.0149 C132.4704,422.2069 129.3984,420.2879 129.3984,420.2879 C129.3984,420.2879 126.5194,418.1769 123.8314,420.6719 L148.4044,399.3739 Z M126.5194,408.9679 C125.7514,408.1999 115.9604,400.1419 107.8974,401.4849 L126.5194,408.9679 Z M114.0404,394.9619 C114.0404,394.9619 121.5274,401.2929 119.2244,409.7349 L114.0404,394.9619 Z" id="Stroke-1" stroke-width="1.242" stroke-linecap="round" stroke-linejoin="round"></path><path d="M119.9685,395.0909 C119.9685,395.0909 125.5895,400.6129 124.2785,406.5159" id="Stroke-3" stroke-width="0.431" stroke-linecap="round" stroke-linejoin="round"></path><path d="M193.7628,408.5609 C193.7628,408.5609 192.8028,407.9839 192.8028,410.8689 C192.8028,413.7529 194.5308,417.0219 194.5308,417.0219 C194.5308,417.0219 195.1068,423.7519 194.7228,425.4829 C194.3388,427.2139 192.9198,434.5719 191.2668,438.1749 C188.0038,445.2899 187.0438,447.2129 187.0438,451.2509 C187.0438,455.2889 184.9328,458.7499 198.3698,458.7499 C211.8078,458.7499 218.7188,459.1349 219.4858,449.3279 C220.2538,439.5209 219.8698,426.6369 219.8698,426.6369 C219.8698,426.6369 218.5268,420.8679 218.3348,420.2909 C218.1428,419.7139 219.6778,413.5609 219.6778,413.5609 L221.7898,411.8299 C221.7898,411.8299 223.1338,406.2529 221.0218,405.0999 M188.0038,445.8669 C188.0038,445.8669 187.8118,448.5589 188.9638,447.7889 C190.1158,447.0199 189.5398,443.5589 197.9858,443.5589 C206.4328,443.5589 207.0088,448.9429 207.2008,449.7119 C207.3928,450.4819 209.1198,452.9809 216.9908,448.5589 C218.2168,447.8689 218.7398,446.5129 218.7478,444.7129 M197.2178,409.5229 C197.2178,409.5229 200.2898,415.8679 199.1378,423.3679 C197.9858,430.8669 192.9948,437.9819 200.8658,437.9819 C208.7358,437.9819 209.1198,436.2519 209.1198,432.4059 C209.1198,428.5599 209.8878,413.1759 214.3028,409.3299 M194.7228,425.4829 C194.7228,425.4829 198.5618,418.1759 215.2628,418.1759 M215.0708,431.4439 C215.0708,423.4729 205.8838,417.0219 194.5308,417.0219 M131.3738,405.8689 C131.3738,399.8099 123.6468,394.9079 114.0968,394.9079 M113.5218,415.6759 C113.5218,412.5939 110.2588,410.0989 106.2268,410.0989 M215.0708,431.4439 C215.0708,428.5739 207.6008,426.2519 198.3698,426.2519 M111.6018,373.9479 C111.6018,373.9479 113.3298,387.4089 152.4898,362.0249 C152.4898,362.0249 123.5038,376.4479 116.9768,372.7939 M147.6908,378.3709 C147.6908,378.3709 134.6378,388.1779 123.3118,387.4089 C137.5168,393.1769 149.6108,389.7159 149.6108,389.7159 M188.3878,379.7169 C185.6998,377.4089 178.5978,364.7179 178.5978,364.7179 L174.7578,330.2969 L176.4858,327.9889 C176.4858,327.9889 180.1328,332.7959 187.0438,330.2969 C193.9548,327.7969 198.1778,318.9509 198.1778,318.9509 L207.5848,313.1819 L210.8478,315.6819 M207.5848,313.1819 C207.7758,312.0279 208.1598,305.8749 206.6248,303.5669 C205.0888,301.2599 201.6338,302.0289 201.6338,302.0289 C201.6338,302.0289 196.4508,300.6829 198.1778,318.9509 M202.5928,302.0289 C202.5928,302.0289 198.9458,301.2599 196.0668,303.1829 C193.1868,305.1059 193.7628,312.9899 193.7628,312.9899 M151.7228,308.9519 C151.1468,308.7589 141.9318,313.1819 141.9318,313.1819 L135.0218,324.3349 C135.0218,324.3349 126.5748,328.5659 120.4318,327.4119 C114.2888,326.2579 114.6728,322.7969 114.6728,322.7969 L114.6728,329.9119 L113.3298,332.6039 L113.3298,357.6029 L116.9768,362.4099 L111.6018,373.9479 L114.4808,391.4469 C114.4808,391.4469 116.0168,395.8699 131.5658,395.8699 C147.1148,395.8699 149.0348,388.9469 149.0348,388.9469 L147.6908,378.3709 L153.2578,362.4099 L159.7848,347.0259 C159.7848,347.0259 160.7448,329.7199 157.8648,323.5659 C154.9858,317.4129 158.4408,318.7589 154.2178,312.4129 C149.9948,306.0669 148.6508,303.7599 148.6508,303.1829 C148.6508,302.6059 153.0658,275.1079 153.0658,274.5309 M115.4408,315.6819 L114.6728,322.7969 M114.6728,329.9119 C114.6728,331.2939 121.9708,332.4119 130.9898,332.4119 M113.2618,332.5019 C113.2618,337.0729 119.4438,340.7709 127.0828,340.7709 M223.2998,53.1289 C223.2308,52.1969 223.1648,51.3019 223.0728,50.0639 C223.0178,49.3139 223.6068,48.5979 224.3828,48.4729 C226.3098,48.1639 228.2368,47.8539 230.1628,47.5449 C230.9388,47.4199 231.6328,48.0019 231.7048,48.8369 C231.9198,51.3269 232.0278,52.5719 232.2428,55.0619 C232.2428,55.0619 242.8198,54.2969 242.9978,54.3369 C242.7678,52.0009 242.5378,49.6659 242.3078,47.3309 C242.2148,46.3899 241.5038,45.7229 240.7288,45.8469 C238.8018,46.1569 236.8748,46.4659 234.9478,46.7759 C234.1718,46.9009 233.5988,47.7019 233.6748,48.5569 C233.7768,49.7059 233.8788,50.8549 233.9808,52.0039" id="Stroke-5" stroke-width="1.242" stroke-linecap="round" stroke-linejoin="round"></path><path d="M233.2605,66.2016 C233.0505,63.7726 232.9455,62.5586 232.7345,60.1296 C232.6645,59.3136 231.9695,58.6626 231.1905,58.6826 C229.2565,58.7306 227.3225,58.7786 225.3885,58.8266 C224.6095,58.8456 224.0175,59.4606 224.0715,60.1926 C224.2325,62.3736 224.3135,63.4636 224.4755,65.6446 C224.5295,66.3766 225.2245,67.0276 226.0195,67.0916 C227.9945,67.2506 229.9685,67.4086 231.9435,67.5676 C232.7385,67.6316 233.3315,67.0166 233.2605,66.2016 Z" id="Stroke-7" stroke-width="0.817" stroke-linecap="round" stroke-linejoin="round"></path><path d="M244.452,66.8843 C244.225,64.6193 243.998,62.3533 243.772,60.0873 C243.68,59.1753 242.964,58.4453 242.179,58.4643 C240.23,58.5123 238.28,58.5593 236.331,58.6073 C235.547,58.6263 234.966,59.3213 235.041,60.1503 C235.226,62.2103 235.412,64.2703 235.598,66.3303 C235.673,67.1603 236.39,67.8903 237.191,67.9543 C239.181,68.1123 241.171,68.2693 243.161,68.4273 C243.962,68.4913 244.543,67.7963 244.452,66.8843 Z M255.325,67.5643 C255.048,65.0463 254.771,62.5283 254.494,60.0103 C254.383,58.9963 253.65,58.1833 252.865,58.2023 C250.916,58.2503 248.967,58.2973 247.018,58.3453 C246.233,58.3643 245.669,59.1423 245.764,60.0733 C246,62.3863 246.236,64.6983 246.472,67.0103 C246.567,67.9423 247.301,68.7553 248.102,68.8193 C250.092,68.9773 252.081,69.1353 254.071,69.2923 C254.872,69.3563 255.437,68.5783 255.325,67.5643 Z" id="Stroke-9" stroke-width="1.242" stroke-linecap="round" stroke-linejoin="round"></path><path d="M234.371,77.6225 C234.158,75.1775 234.051,73.9555 233.838,71.5105 C233.766,70.6905 233.045,69.9515 232.235,69.8675 C230.224,69.6605 228.213,69.4535 226.201,69.2465 C225.391,69.1625 224.774,69.6975 224.829,70.4335 C224.993,72.6285 225.075,73.7265 225.239,75.9215 C225.294,76.6575 226.015,77.3975 226.841,77.5645 C228.894,77.9795 230.946,78.3945 232.998,78.8095 C233.825,78.9775 234.443,78.4425 234.371,77.6225 Z M245.588,79.7125 C245.36,77.4195 245.132,75.1265 244.904,72.8345 C244.812,71.9105 244.074,71.0875 243.264,71.0035 C241.253,70.7965 239.241,70.5895 237.23,70.3825 C236.42,70.2985 235.819,70.9175 235.894,71.7565 C236.081,73.8415 236.268,75.9265 236.455,78.0105 C236.53,78.8505 237.268,79.6735 238.095,79.8415 C240.147,80.2565 242.2,80.6715 244.253,81.0865 C245.079,81.2545 245.68,80.6355 245.588,79.7125 Z" id="Stroke-11" stroke-width="0.817" stroke-linecap="round" stroke-linejoin="round"></path><path d="M256.8702,81.802 C256.5982,79.28 256.3262,76.757 256.0552,74.235 C255.9452,73.219 255.2092,72.321 254.4192,72.238 C252.4572,72.033 250.4952,71.828 248.5342,71.623 C247.7442,71.54 247.1732,72.236 247.2672,73.169 C247.4982,75.485 247.7302,77.801 247.9622,80.118 C248.0552,81.051 248.7912,81.949 249.5972,82.115 C251.5992,82.526 253.6012,82.937 255.6032,83.348 C256.4092,83.513 256.9792,82.818 256.8702,81.802 Z" id="Stroke-13" stroke-width="1.242" stroke-linecap="round" stroke-linejoin="round"></path><path d="M235.3561,89.0199 C235.1431,86.5679 235.0361,85.3419 234.8231,82.8899 C234.7511,82.0669 234.0131,81.2409 233.1831,81.0539 C231.1201,80.5899 229.0581,80.1259 226.9961,79.6619 C226.1651,79.4749 225.5311,79.9259 225.5861,80.6649 C225.7501,82.8669 225.8321,83.9679 225.9961,86.1689 C226.0511,86.9079 226.7891,87.7339 227.6361,88.0049 C229.7391,88.6779 231.8431,89.3509 233.9461,90.0229 C234.7931,90.2939 235.4281,89.8429 235.3561,89.0199 Z M246.8531,92.5219 C246.6251,90.2219 246.3971,87.9219 246.1691,85.6229 C246.0771,84.6969 245.3221,83.7859 244.4911,83.5989 C242.4291,83.1349 240.3661,82.6709 238.3041,82.2069 C237.4731,82.0199 236.8551,82.5559 236.9311,83.3979 C237.1181,85.4889 237.3051,87.5799 237.4921,89.6709 C237.5671,90.5129 238.3221,91.4229 239.1691,91.6939 C241.2731,92.3669 243.3761,93.0399 245.4801,93.7129 C246.3271,93.9839 246.9451,93.4479 246.8531,92.5219 Z" id="Stroke-15" stroke-width="0.817" stroke-linecap="round" stroke-linejoin="round"></path><path d="M237.5754,133.8545 C237.0604,133.4655 236.5464,133.0765 236.0314,132.6875 C235.5664,134.9385 234.8084,137.0945 233.8794,139.2835 C233.5354,140.0935 233.1804,140.8985 232.8114,141.6945 C233.7384,142.5055 234.6654,143.3165 235.5914,144.1285 C236.3894,144.8265 237.1884,144.6275 237.3694,143.6865 C237.8164,141.3485 238.2644,139.0105 238.7114,136.6725 C238.8924,135.7315 238.3804,134.4635 237.5754,133.8545 Z M251.1084,128.0235 C249.0844,126.7855 247.0614,125.5475 245.0374,124.3095 C244.2224,123.8105 243.4064,124.1905 243.2244,125.1525 C242.7724,127.5405 242.3204,129.9295 241.8684,132.3185 C241.6864,133.2805 242.1974,134.5485 243.0044,135.1365 C245.0094,136.5975 247.0134,138.0575 249.0174,139.5185 C249.8244,140.1065 250.6404,139.7275 250.8304,138.6755 C251.3014,136.0645 251.7734,133.4525 252.2444,130.8415 C252.4344,129.7895 251.9234,128.5215 251.1084,128.0235 Z M248.5404,142.1415 C246.5404,140.6305 244.5404,139.1185 242.5414,137.6075 C241.7354,136.9985 240.9284,137.2875 240.7464,138.2495 C240.2934,140.6385 239.8414,143.0275 239.3894,145.4155 C239.2074,146.3775 239.7114,147.7355 240.5084,148.4345 C242.4894,150.1685 244.4694,151.9025 246.4494,153.6365 C247.2474,154.3345 248.0544,154.0455 248.2444,152.9935 C248.7164,150.3825 249.1874,147.7715 249.6594,145.1605 C249.8494,144.1085 249.3454,142.7505 248.5404,142.1415 Z M240.0124,121.2355 C238.3314,120.2075 236.6514,119.1795 234.9714,118.1515 C236.0894,121.5995 236.6584,125.2185 236.5154,128.7925 C236.4944,129.3115 236.4554,129.8205 236.4024,130.3245 L238.0284,131.5105 C238.8354,132.0985 239.6434,131.8095 239.8234,130.8675 C240.2714,128.5295 240.7184,126.1915 241.1664,123.8535 C241.3464,122.9125 240.8274,121.7345 240.0124,121.2355 Z M229.1364,176.9715 L239.6484,161.8385 L239.6674,155.7725 C239.6674,155.7725 244.5394,159.7545 246.6324,159.5275 C248.7264,159.3005 250.5924,157.4395 251.9944,155.3445 C253.3964,153.2485 262.1564,103.3455 262.3944,101.7125 C262.6324,100.0805 262.1714,98.6785 261.2434,97.9765 C260.3154,97.2735 257.2964,95.8635 257.2964,95.8635 L257.3204,88.3975 C257.3204,88.3975 261.0464,86.5425 261.0514,84.9095 C261.0574,83.2765 259.0224,64.6035 258.5664,61.8025 C258.1094,59.0015 257.8834,56.9005 256.2584,56.1955 C254.6324,55.4905 247.4854,52.6545 247.4854,52.6545 C247.4854,52.6545 246.7604,50.0295 246.0564,46.3635 C245.1594,41.6885 240.7184,43.0805 240.7184,43.0805 L224.1974,46.0615 C219.5794,47.2885 220.5094,49.1555 220.5094,55.2215 L229.1364,176.9715 Z M229.3464,54.7545 L222.8344,54.9885 C222.8344,54.9885 210.2774,55.9215 206.0914,60.8215 C201.9054,65.7205 203.5334,66.8875 203.5334,66.8875 L229.3464,54.7545 Z" id="Stroke-17" stroke-width="1.242" stroke-linecap="round" stroke-linejoin="round"></path><path d="M219.618,54.2577 L213.126,54.4877 C213.126,54.4877 200.605,55.4047 196.431,60.2237 C192.257,65.0427 193.88,66.1907 193.88,66.1907" id="Stroke-19" stroke-width="0.817" stroke-linecap="round" stroke-linejoin="round"></path><path d="M214.827,103.9597 C215.611,103.4357 216.329,102.8157 216.973,102.1257 L214.827,103.9597 Z M242.314,42.8437 C242.314,42.8437 213.579,38.9617 206.824,38.9617 L201.821,38.9037 C194.356,39.2147 177.734,42.2827 174.995,43.7767 L242.314,42.8437 Z M224.61,43.4267 C224.61,44.1357 221.795,44.7097 218.321,44.7097 C214.848,44.7097 212.032,44.1357 212.032,43.4267 C212.032,42.7187 214.848,42.1437 218.321,42.1437 C221.795,42.1437 224.61,42.7187 224.61,43.4267 Z M208.969,41.5747 C208.969,42.2827 206.154,42.8577 202.68,42.8577 C199.207,42.8577 196.391,42.2827 196.391,41.5747 C196.391,40.8657 199.207,40.2917 202.68,40.2917 C206.154,40.2917 208.969,40.8657 208.969,41.5747 Z M257.29,88.3757 L249.069,86.2317 L257.29,88.3757 Z M257.266,95.8397 L250.932,92.9957 L257.266,95.8397 Z M239.608,155.7337 L230.9,149.4467 L239.608,155.7337 Z M239.589,161.7987 L234.394,158.0777 L239.589,161.7987 Z M224.665,102.5417 C224.672,102.5447 224.679,102.5487 224.686,102.5517 C226.741,103.4647 228.797,104.3787 230.852,105.2917 C231.68,105.6597 232.497,105.2807 232.668,104.4497 C233.177,101.9727 233.431,100.7347 233.941,98.2577 C234.112,97.4267 233.568,96.5197 232.732,96.2417 L226.507,94.1687 C225.672,93.8907 224.855,94.2697 224.692,95.0107 C224.206,97.2207 223.963,98.3257 223.477,100.5347 C223.388,100.9397 223.511,101.3937 223.775,101.7827 C224.077,102.0297 224.372,102.2847 224.665,102.5417 Z M255.488,103.8167 C253.412,103.1267 251.338,102.4357 249.263,101.7447 C248.427,101.4667 247.594,102.0257 247.412,102.9877 C246.959,105.3757 246.506,107.7637 246.053,110.1517 C245.871,111.1127 246.399,112.2007 247.227,112.5687 C249.282,113.4817 251.338,114.3957 253.393,115.3087 C254.221,115.6767 255.054,115.1177 255.244,114.0657 C255.716,111.4557 256.189,108.8447 256.661,106.2337 C256.851,105.1827 256.323,104.0947 255.488,103.8167 Z M235.956,107.5597 C238.012,108.4737 240.067,109.3867 242.123,110.3007 C242.951,110.6687 243.776,110.1987 243.956,109.2577 C244.404,106.9207 244.853,104.5837 245.301,102.2467 C245.482,101.3047 244.946,100.3077 244.11,100.0297 C242.035,99.3387 239.96,98.6477 237.885,97.9567 C237.049,97.6787 236.224,98.1477 236.051,98.9987 C235.623,101.1137 235.194,103.2287 234.765,105.3427 C234.592,106.1947 235.128,107.1927 235.956,107.5597 Z" id="Stroke-21" stroke-width="1.242" stroke-linecap="round" stroke-linejoin="round"></path><path d="M200.5874,109.8657 C204.4254,108.0877 208.2054,106.9217 212.5664,105.7547 C214.0204,105.4637 215.4744,105.4637 216.9284,106.0467 C218.0914,106.6297 219.5454,107.2127 220.1264,108.3787 C220.9984,110.4197 221.5804,112.7517 222.4524,114.7927 C223.3254,117.9997 223.6154,121.4977 224.4884,124.7047 C224.7784,125.2877 225.0694,125.5797 225.3604,126.1627 L225.3604,128.2027 C226.2324,130.5347 226.5234,132.8677 227.6864,134.9077 C228.2674,136.3657 228.8494,137.5317 229.4314,138.6977 C229.7214,141.0307 230.0124,143.0707 229.3694,145.4097 M227.0384,142.7287 C227.6624,143.4117 227.7484,144.6797 227.9434,145.5457 C228.1944,146.6607 228.5434,147.7027 228.9654,148.7727 C229.2584,149.5157 229.5484,150.1977 229.3544,151.0247 C229.2764,151.3607 229.1374,151.4557 229.1424,151.8657 C229.1464,152.2297 229.0234,152.7547 229.2474,153.0467 C229.4814,153.3537 229.7264,153.1857 230.0244,153.3177 C230.3004,153.4387 230.6264,153.8017 230.8744,153.9797 C231.4674,154.4067 232.4344,154.7137 232.6274,155.4937 C232.7894,156.1447 232.6914,156.9637 232.2974,157.4897 C232.1434,157.6957 231.9044,158.0397 231.6584,158.1427 C231.3514,158.2717 230.6694,158.0127 230.4334,158.2017 C230.0224,158.5337 230.5234,158.6737 230.7774,158.8277 C231.0534,158.9947 231.4574,159.3157 231.6584,159.5837 C232.0634,160.1237 232.2614,161.1857 232.3924,161.8217 C232.5694,162.6877 231.9854,163.0537 231.2964,163.4087 C230.1844,163.9827 231.3584,164.0947 231.6764,164.8617 C231.9704,165.5687 231.7374,166.8847 231.4774,167.5607 C231.2774,168.0807 231.0854,169.3967 230.3264,169.4647 C229.9774,169.4957 229.3874,169.0387 229.0284,168.9137 C228.6194,168.7717 228.3034,168.5597 227.9184,168.3747 C227.5344,168.1907 227.1094,168.1447 226.7284,167.9777 C226.2054,167.7487 225.7174,167.3987 225.3744,166.9557 C225.0484,166.5337 224.6554,165.8917 224.1994,165.6187 C223.6664,165.2997 222.8524,165.4517 222.2584,165.4527 C221.0084,165.4547 219.7584,165.4527 218.5094,165.4527 C217.0444,165.4527 215.5804,165.4587 214.1164,165.4477 C212.9104,165.4387 211.7614,165.6847 210.5724,165.8577 C209.1734,166.0617 207.9404,166.4657 206.6244,166.9757 C206.0424,167.2007 205.5094,167.4197 204.8954,167.5727 C204.3354,167.7127 203.6924,167.7307 203.1684,167.9777 C202.8074,168.1477 202.5724,168.2207 202.7274,168.7457 C202.8444,169.1397 203.2914,169.4847 203.4914,169.8507 C203.3404,169.6177 203.1674,169.4007 202.9714,169.2017 M203.4974,152.0397 C202.7384,152.7227 201.8544,153.1117 201.1504,153.8627 C200.6574,154.3887 200.4704,154.9257 200.1684,155.5597 C199.8274,156.2757 199.4994,156.5907 200.2264,157.2057 C200.4794,157.4187 200.9554,157.6337 201.1144,157.9437 C201.4164,158.5327 200.9784,159.0467 200.5704,159.3997 C200.2344,159.6907 199.9254,160.0977 199.8114,160.5257 C199.6814,161.0167 199.7944,161.5177 199.6504,162.0177 C199.4154,162.8347 199.2894,163.3167 199.2914,164.1757 C199.2924,164.6587 199.2694,165.1457 199.2864,165.6277 C199.3134,166.3647 199.9124,166.4787 200.1794,167.0857 C200.3554,167.4867 200.3264,168.0387 200.4534,168.4517 C200.5224,168.6777 200.6474,168.7787 200.7024,169.0157 C200.7574,169.2517 200.5684,169.5827 200.7284,169.7987 C200.9844,170.1427 201.7364,170.2577 202.1074,170.4897 C202.6274,170.8147 203.1134,171.1517 203.6794,171.4317 C204.2264,171.7027 204.8074,171.7667 205.3794,171.9537 C205.9374,172.1357 206.6224,172.1127 207.1214,172.3987 C206.5624,171.8967 205.8304,171.7077 205.1324,171.4847 M215.4134,103.7797 C215.5854,104.2817 215.9814,105.0327 215.8854,105.5927 C215.8604,104.8387 216.0404,104.2547 216.1144,103.5457 C216.1554,103.1617 216.2604,102.9747 216.4124,102.6197 C216.6084,102.1637 216.5804,101.7527 216.5804,101.2667 C216.5794,99.9837 216.2084,99.0057 215.7624,97.8327 C215.6234,97.4707 215.5704,96.9387 215.3964,96.6177 C215.2084,96.2717 214.9344,96.2387 214.5874,96.0757 C213.8224,95.7167 213.7724,95.2097 213.7794,94.3727 C213.7844,93.5987 213.8064,92.8197 213.7944,92.0467 C213.7684,90.3847 213.2674,88.7767 212.6104,87.2647 C211.0314,83.6267 209.0894,80.1207 207.8034,76.3587 C207.3204,74.9467 208.5054,66.9507 201.1654,66.7157 C193.8244,66.4807 185.3434,68.0257 180.3674,73.9827 C175.3904,79.9397 175.9554,90.4127 174.3794,97.6797 C172.8044,104.9457 179.4214,111.5817 179.4214,111.5817 C179.4214,111.5817 176.5854,100.5227 176.5854,99.5747 C176.5854,98.6267 179.7364,83.4617 181.3124,81.2497 C182.8884,79.0377 184.4634,72.4027 191.0814,71.4557 C196.3844,70.6957 204.0014,70.5077 204.0014,70.5077 L206.8374,75.2467" id="Stroke-23" stroke-width="1.226" stroke-linecap="round" stroke-linejoin="round"></path><path d="M215.7192,97.6452 C215.7192,95.3552 211.4612,93.5022 206.1992,93.5022" id="Stroke-25" stroke-width="0.817" stroke-linecap="round" stroke-linejoin="round"></path><path d="M231.4944,163.6025 C231.4944,161.5215 228.1634,159.8365 224.0454,159.8365 M229.8914,152.3405 C229.8914,151.8105 226.3644,151.3815 222.0054,151.3815" id="Stroke-27" stroke-width="1.226" stroke-linecap="round" stroke-linejoin="round"></path><path d="M227.8088,147.3151 C227.8088,147.5781 223.3328,147.7911 217.8008,147.7911 M199.3788,165.6641 C199.3788,162.3281 206.6798,159.6291 215.7028,159.6291" id="Stroke-29" stroke-width="0.817" stroke-linecap="round" stroke-linejoin="round"></path><path d="M175.3011,68.9316 C173.7501,68.6226 170.3381,68.9316 170.3381,68.9316 C170.3381,68.9316 161.3431,73.2626 159.4821,82.8516" id="Stroke-31" stroke-width="1.226" stroke-linecap="round" stroke-linejoin="round"></path><path d="M179.1383,111.7314 C179.2323,112.2184 179.7113,112.1944 180.0823,112.4254 C180.4643,112.6644 180.6813,112.9864 180.9573,113.3204 C181.2863,113.7194 181.5803,114.2284 181.9573,114.5834 C182.3733,114.9744 182.8953,115.1994 183.3173,115.5904 C184.3733,116.5664 185.2983,117.2484 185.6673,118.6614 C185.8723,119.4454 186.0493,120.1554 186.0713,120.9644 C186.0853,121.4754 185.9693,121.9894 186.1273,122.4904 C186.2513,122.8854 186.6003,123.5164 186.9993,123.6824 C187.2903,123.8044 187.6133,123.6294 187.8883,123.7924 C188.6063,124.2194 188.1723,124.7934 187.9503,125.2914 C187.2683,126.8254 185.7133,128.8714 186.4243,130.6754 C186.5733,131.0524 186.0543,131.2784 186.2793,131.6224 C186.5263,132.0004 187.6693,132.4814 187.8733,132.8864 C188.3783,133.8844 188.8083,134.9794 189.1243,136.0494 C189.4563,137.1744 189.6193,138.3554 189.9203,139.4884 C190.2493,140.7304 190.8243,141.9264 191.3453,143.0964 C192.1803,144.9724 193.1183,146.8044 193.9533,148.6764 C194.3643,149.5974 194.0213,150.6844 194.5553,151.5284 C194.7593,151.8524 194.8073,151.8294 195.1853,152.0514 C195.7683,152.3944 196.0663,152.8104 196.3873,153.4244 C196.7883,154.1924 197.2093,154.7594 198.0513,155.1294 C198.8793,155.4934 199.8003,155.2724 200.6113,155.7914 C200.3963,155.6754 200.1633,155.6184 199.9123,155.6184 M228.8283,167.7944 C228.8283,167.7944 229.0473,186.8324 228.2363,199.4974 C228.2363,199.4974 228.3103,199.7194 228.1953,200.0194" id="Stroke-33" stroke-width="1.242" stroke-linecap="round" stroke-linejoin="round"></path><path d="M206.7145,168.4709 C206.7145,168.4709 210.0315,181.6599 211.8405,188.8829 C212.8925,193.0819 213.3695,201.4429 213.4945,205.3729" id="Stroke-35" stroke-width="1.226" stroke-linecap="round" stroke-linejoin="round"></path><path d="M197.9059,83.2455 C198.3889,83.4805 199.3129,83.7905 200.4009,83.4525 C202.0079,82.9535 203.2239,81.0225 202.5279,78.7645 C201.8239,76.4785 199.9079,75.1705 197.5319,75.9075 C194.9739,76.7015 192.8729,80.5895 194.1479,84.7275 C195.4939,89.0975 198.8279,91.8685 202.0419,90.8705 C204.7349,90.0345 205.0919,87.0705 205.0919,87.0705 L205.0159,86.8405 M200.2349,75.9885 C200.2349,75.9885 201.7959,76.5505 202.8949,77.6995 C203.9929,78.8495 204.8509,80.9925 204.1639,83.1085 C203.4769,85.2245 202.2839,86.1025 200.6729,86.5075 C199.0619,86.9125 197.8819,85.8195 197.9069,83.2435 M200.0279,78.5105 C200.0279,78.5105 197.8699,77.7945 196.5789,80.7065 C196.2859,81.3685 196.2079,82.0915 196.2369,82.8075 C196.3329,85.2315 198.0029,87.6635 199.6669,88.1515 C201.8199,88.7835 203.2719,87.5395 203.6169,86.1645 L205.0159,86.8405 C205.0159,86.8405 204.6799,89.2915 202.1669,90.0705 C199.7679,90.8155 196.6859,88.5375 195.5709,84.9195 C194.9179,82.7995 195.3169,80.9575 196.0829,79.7355 C196.6249,78.8715 197.3779,78.3755 197.9209,78.2065 C199.3139,77.7745 200.7629,78.6695 201.2019,80.0955 C201.6299,81.4855 200.8829,82.7635 199.9099,83.0655 C198.9369,83.3675 198.3459,82.9805 198.3459,82.9805 L197.9069,83.2435 M193.0479,86.1915 C192.9449,85.9285 192.8509,85.6595 192.7659,85.3845 C191.3179,80.6835 193.1239,75.9465 196.8009,74.8055" id="Stroke-37" stroke-width="0.817" stroke-linecap="round" stroke-linejoin="round"></path><path d="M204.732,76.5635 C205.766,77.7915 206.604,79.3075 207.134,81.0315 C208.824,86.5405 206.716,92.0905 202.425,93.4275 C198.134,94.7645 193.286,91.3825 191.596,85.8745 C189.906,80.3655 192.014,74.8155 196.304,73.4785 C197.305,73.1665 198.335,73.1115 199.349,73.2795 M180.879,109.7555 C179.691,108.9125 179.255,107.2905 179.434,105.8375 C179.613,104.3845 180.299,103.0525 180.975,101.7565 C182.837,98.1825 184.847,94.4425 188.239,92.2945 C189.003,91.8105 190.12,91.4655 190.714,92.1505 C190.979,92.4555 191.047,92.8815 191.084,93.2845 C191.539,98.2905 188.84,102.9595 187.423,107.7795 C186.838,109.7655 186.492,112.0045 187.457,113.8335 C188.421,115.6625 191.184,116.5685 192.592,115.0595 C191.918,116.4115 191.233,117.8015 191.082,119.3075 C190.931,120.8125 191.428,122.4805 192.685,123.3085 C193.202,123.6485 193.848,123.8575 194.175,124.3865 C195.023,125.7545 193.071,127.0385 191.825,128.0515 C189.676,129.7995 189.198,132.9115 189.37,135.6895 C189.734,141.5535 192.694,147.5685 197.961,150.0845" id="Stroke-39" stroke-width="1.242" stroke-linecap="round" stroke-linejoin="round"></path><path d="M215.6177,107.2288 C218.4747,109.7968 216.7377,114.7938 218.5497,118.2018 C219.3957,119.7938 221.0017,120.9868 221.3877,122.7528 C221.5427,123.4598 221.4817,124.1948 221.4967,124.9198 C221.6197,130.9318 226.8837,135.9568 226.7867,141.9688" id="Stroke-41" stroke-width="0.817" stroke-linecap="round" stroke-linejoin="round"></path><path d="M175.3813,68.8265 C179.6793,67.1225 184.4913,66.7645 188.9903,67.8125 C188.7643,67.7735 188.5383,67.7345 188.3123,67.6945 M157.0073,109.3215 C157.5973,110.3555 157.8993,111.5435 158.5493,112.5415 C159.1133,113.4065 160.4813,113.6605 160.9413,114.3615 C161.6663,115.4655 161.3303,116.5505 161.2523,118.0245 C161.0763,121.3555 161.2313,124.7055 161.6983,128.0075 C162.6333,134.6135 164.8263,141.0435 168.1763,146.8025 C173.7743,156.4245 178.1353,165.4405 188.3743,169.6785" id="Stroke-43" stroke-width="1.242" stroke-linecap="round" stroke-linejoin="round"></path><path d="M142.992,168.2673 C159.93,168.0233 175.005,165.8213 175.005,165.8213 M123.38,167.4443 C124.983,167.6273 126.615,167.7763 128.267,167.8963 M106.124,93.7763 C105.514,98.5293 104.903,103.2813 104.293,108.0333 C103.972,110.5383 103.677,113.2153 104.806,115.4733 C104.413,115.6273 104.195,116.1243 104.347,116.5183 C103.167,116.6153 101.971,116.5323 100.815,116.2723 C101.041,116.5433 101.266,116.8143 101.492,117.0853 C101.129,116.7953 100.563,117.2243 100.534,117.6883 C100.505,118.1513 100.79,118.5673 101.022,118.9703 C101.615,120.0033 101.919,121.1893 102.574,122.1853 C103.141,123.0493 104.518,123.3033 104.981,124.0033 C105.71,125.1063 105.371,126.1893 105.293,127.6623 C105.116,130.9893 105.272,134.3343 105.742,137.6323 C106.683,144.2303 108.89,150.6513 112.261,156.4023 C112.729,157.2003 113.188,157.9943 113.642,158.7803" id="Stroke-45" stroke-width="1.242" stroke-linecap="round" stroke-linejoin="round"></path><path d="M123.2803,84.1516 C121.5983,78.8206 120.8693,72.4986 124.2113,68.0196 C123.4763,70.7696 123.9733,73.7456 125.1453,76.3386 C126.3163,78.9316 128.1243,81.1856 130.0643,83.2656 C132.1843,85.5386 138.1343,92.6786 141.6503,92.5106 C143.8143,92.4076 143.8073,90.1556 144.7043,88.5146 C145.8173,86.4756 147.4953,84.7636 149.1043,83.1156 C150.4343,81.7526 151.7643,80.3886 153.0953,79.0256 C153.9393,78.1606 154.9263,77.2326 156.1353,77.2456 C155.1903,75.9796 155.3813,74.0056 156.5493,72.9436 C157.7183,71.8816 159.6993,71.8826 160.8673,72.9466 M169.2213,101.8336 C165.7843,114.4726 172.5543,127.9696 177.6693,140.0266 C182.7833,152.0846 191.3343,162.5066 201.4593,170.8046 M175.0583,127.3346 C175.4563,148.9846 185.6953,167.7916 202.5003,184.6196 L210.9543,186.6836 L203.6933,177.6826 L195.7403,172.8356 L203.6933,182.5296 M176.9253,109.2816 C175.5523,115.5146 174.9513,121.5266 175.0583,127.3346 M145.1793,86.5766 C136.0483,85.9896 127.9163,78.1786 126.9533,69.0696 C128.2423,74.2096 132.6163,79.2086 137.7803,80.3736 C140.3093,80.9436 142.9423,80.8216 145.5023,81.2296 C145.8333,81.2826 146.1823,81.3526 146.4333,81.5756 C146.7723,81.8786 146.8453,82.3846 146.7943,82.8366 C146.5903,84.6636 144.8883,85.8726 143.6733,87.2506 C142.4583,88.6296 141.8403,91.1196 143.4183,92.0596 M218.2363,52.7706 C218.2363,52.2646 220.4243,49.7376 217.0583,48.8946 C213.6933,48.0526 179.8663,44.6826 177.3423,45.0196 C174.8173,45.3566 173.1343,44.1776 171.2833,47.8836 C169.4323,51.5906 170.1053,47.8836 180.2033,48.5576 C190.3003,49.2316 214.8713,52.0966 214.8713,52.0966 L216.7223,53.4446 M170.6103,51.4226 C170.6103,51.4226 172.7983,50.0746 175.6593,50.2426 C178.5203,50.4116 203.9323,52.9386 203.9323,52.9386" id="Stroke-47" stroke-width="1.242" stroke-linecap="round" stroke-linejoin="round"></path><path d="M193.1279,45.973 C193.1279,45.973 191.2939,47.811 190.6269,49.148 C188.4589,50.151 188.2919,49.984 187.7919,51.321 C187.1249,52.658 173.5519,62.197 175.3869,67.712" id="Stroke-49" stroke-width="0.817" stroke-linecap="round" stroke-linejoin="round"></path><path d="M159.4241,242.5031 C160.6621,242.0301 174.0271,242.1531 178.8951,243.5521 C183.7621,244.9511 185.5001,289.6361 185.1941,293.5701 C184.8881,297.5041 176.3181,297.7671 170.5911,296.0181 C164.8641,294.2701 164.0051,293.2201 164.0051,293.2201 C164.0051,293.2201 152.7781,245.0421 159.4241,242.5031 Z" id="Stroke-51" stroke-width="0.859" stroke-linecap="round" stroke-linejoin="round"></path><path d="M159.1629,239.3756 C160.5789,238.8636 175.8679,238.9966 181.4359,240.5116 C187.0039,242.0266 188.9919,290.4136 188.6419,294.6736 C188.2919,298.9336 178.4879,299.2186 171.9369,297.3246 C165.3859,295.4306 164.4039,294.2946 164.4039,294.2946 C164.4039,294.2946 151.5609,242.1246 159.1629,239.3756 Z" id="Stroke-53" stroke-width="0.956" stroke-linecap="round" stroke-linejoin="round"></path><path d="M167.832,242.8664 L165.435,248.5994 C165.435,248.5994 165.793,281.2754 170.558,296.0144 M178.84,243.5544 C178.84,243.5544 176.523,249.2024 165.435,248.5994 C154.347,247.9954 158.242,243.4704 158.242,243.4704" id="Stroke-55" stroke-width="0.855" stroke-linecap="round" stroke-linejoin="round"></path><path d="M217.8285,272.2455 C217.9275,278.4565 217.8705,283.2975 217.7745,284.4855 C217.6665,285.8305 216.5425,286.6085 214.9615,287.3295 C197.8125,295.1555 186.3675,297.7585 186.3675,297.7585" id="Stroke-57" stroke-width="0.899" stroke-linecap="round" stroke-linejoin="round"></path><path d="M208.3749,290.1771 C207.0649,293.0381 206.3859,297.2041 206.9199,300.3061 C207.0499,301.0611 207.2329,301.8531 206.9809,302.5761 C206.7279,303.3001 207.8729,306.1031 207.2309,305.6851 M175.8399,328.9571 C174.1169,327.7661 172.3939,326.5751 170.6719,325.3841 C170.2389,325.0851 169.7889,324.7671 169.5479,324.2991 C169.2959,323.8111 169.3089,323.2341 169.2989,322.6841 C169.2139,317.8081 166.8749,313.2201 166.4999,308.3581 C166.3759,306.7431 166.4699,305.1211 166.4179,303.5021 C166.3269,300.7361 165.8039,297.9841 164.8709,295.3771 M118.4479,318.7601 C118.9449,316.8761 117.2589,315.2201 116.1589,313.6121 C114.0629,310.5491 113.9129,306.6011 113.8349,302.8891 C113.6519,294.1721 113.0209,286.8181 112.8379,278.1011 C112.8539,278.4891 112.8219,278.1921 112.8379,278.5801 C110.3739,262.5951 108.9129,245.0931 108.4589,228.9251 L108.5539,222.5991 L105.2969,219.5911 L105.0459,212.3211" id="Stroke-59" stroke-width="1.242" stroke-linecap="round" stroke-linejoin="round"></path><path d="M223.4355,316.5921 C221.8925,316.3881 220.8685,316.2071 220.8775,316.1261 C220.8915,316.0021 223.3155,316.1581 226.2915,316.4751 C229.2675,316.7921 231.6675,317.1501 231.6535,317.2741 C231.6385,317.3981 229.2155,317.2411 226.2395,316.9241 C226.0005,316.8991 225.7645,316.8731 225.5345,316.8471 L223.4355,316.5921 Z M220.5395,319.0361 C220.5045,319.3361 222.8885,319.8361 225.8645,320.1531 C228.8405,320.4701 231.2805,320.4841 231.3155,320.1841 L220.5395,319.0361 Z M229.0385,326.5481 L226.8425,328.5961 L229.0385,326.5481 Z M231.6335,317.4411 L231.2365,320.8641 L229.6295,321.4541 L231.6335,317.4411 Z M231.2875,321.6311 C231.2235,322.1841 229.6625,322.4721 225.6155,322.0411 L231.2875,321.6311 Z M229.0385,326.5481 C229.0175,326.7321 227.7745,326.7511 225.1015,326.4661 L229.0385,326.5481 Z M226.8425,328.5961 C226.5235,328.9661 225.3915,328.8171 224.8335,328.7781 L226.8425,328.5961 Z M221.2425,325.7171 L222.9155,328.1781 L221.2425,325.7171 Z M220.7985,316.2861 L220.4015,319.7101 L221.8345,320.6231 L220.7985,316.2861 Z M220.1765,320.4471 C220.1115,321.0011 221.5685,321.6091 225.6155,322.0411 L220.1765,320.4471 Z M221.2425,325.7171 C221.2215,325.9021 222.4295,326.1821 225.1015,326.4661 L221.2425,325.7171 Z M222.9155,328.1781 C223.1415,328.6051 224.2805,328.6981 224.8335,328.7781 L222.9155,328.1781 Z M231.2365,320.8641 L230.7475,325.0801 L231.2365,320.8641 Z M220.4015,319.7101 L219.9175,323.8851 L220.4015,319.7101 Z M230.7545,324.9981 C230.7255,325.2511 227.9505,328.0031 224.9585,327.6841 C221.9665,327.3651 219.8905,324.0971 219.9195,323.8431 L230.7545,324.9981 Z M222.9675,328.3231 L221.9705,336.9151 L219.0645,338.3941 L216.1265,367.8341 L218.2885,375.6891 L216.6285,389.9921 C216.6285,389.9921 217.0095,391.6761 218.9295,391.8801 L222.9675,328.3231 Z M217.6895,395.4151 C217.6895,395.4151 218.0775,391.7891 219.9965,391.9941 C221.9165,392.1991 222.6745,390.6371 222.6745,390.6371 L228.5405,340.0961 L225.8295,337.3261 L226.8425,328.5961 L217.6895,395.4151 Z M223.7535,337.1051 L224.8035,340.0061 C226.9925,340.1801 228.5225,340.2501 228.5405,340.0961 L223.7535,337.1051 Z M217.4715,397.0681 C217.4715,397.0681 217.8285,397.1061 218.8625,397.2161 C219.8975,397.3261 220.3965,395.7031 220.3965,395.7031 L221.6785,384.6531 L217.4715,397.0681 Z M220.0065,342.0191 L217.9905,362.2261 L220.9065,367.7011 L217.6895,395.4151 L220.0065,342.0191 Z M227.1685,355.4321 C227.0775,356.2131 224.5625,356.2151 220.8985,355.8251 L227.1685,355.4321 Z M227.0465,356.4801 C226.9555,357.2621 224.4405,357.2631 220.7765,356.8731 L227.0465,356.4801 Z M230.7475,325.0801 L229.1605,326.3961 L230.7475,325.0801 Z M227.7005,318.8091 C227.6305,319.4101 226.7685,319.8111 225.7745,319.7051 C224.7805,319.6001 224.0305,319.0271 224.1005,318.4261 C224.1705,317.8251 225.0325,317.4241 226.0265,317.5301 C227.0205,317.6361 227.7695,318.2091 227.7005,318.8091 Z" id="Stroke-61" stroke-width="1.105" stroke-linecap="round" stroke-linejoin="round"></path><path d="M145.3702,3.7445 C150.7552,2.9515 156.3952,2.4965 161.7932,3.2045 C166.2412,3.7875 169.3672,5.7905 171.9032,9.5105 C173.8672,12.3925 174.6802,16.0375 174.1262,19.4815 C174.5732,19.4175 174.6452,20.1515 174.8452,20.5565 C175.0452,20.9625 175.0672,21.4295 175.0862,21.8815 C175.1312,22.9885 175.1762,24.0955 175.2212,25.2025 M142.5552,1.3615 C167.6672,-1.8135 170.9832,6.4135 171.9032,9.5105 M155.1592,14.4475 C147.0142,14.3265 138.8522,16.9475 132.2982,21.7895 M170.7402,18.5445 C172.4082,18.7305 173.4012,19.1345 174.8622,19.9615 M154.4642,16.4725 L155.0452,16.4725 C149.8052,16.5545 144.9292,17.5785 140.0512,19.4995 M164.7932,3.6625 C168.6962,6.7035 171.1492,11.5305 171.3052,16.4775 M142.5552,1.3615 C136.3972,2.2675 131.8952,5.3225 128.8502,10.7565 C126.9462,14.1525 126.0872,18.1035 126.3052,21.9895 M139.2722,4.3705 C134.7042,5.7865 130.9152,9.5105 129.4192,14.0565 C128.5112,16.8175 127.8232,18.7085 128.5592,21.5175 M145.3702,3.7445 C141.5092,4.6615 137.6002,6.8805 135.0212,9.8975 C132.4412,12.9155 131.2352,17.2705 132.5972,21.0005 C132.5232,20.7965 135.1342,21.6685 135.4122,21.9135 C136.1902,22.5975 136.7182,23.5285 136.5522,24.5575 C136.3832,25.6095 135.8552,26.1025 136.3072,27.2785 C136.6982,28.2945 137.2802,27.1935 138.2422,27.5415 C140.6992,28.4275 143.3232,28.7525 145.8542,28.1085 C153.6342,26.1315 161.3222,24.3905 169.2512,25.6325 C173.4272,26.2875 177.3112,26.3555 180.9542,28.3505 C181.3552,28.5705 181.5612,29.0505 181.3982,29.4785 C181.3472,29.6115 181.2782,29.7245 181.1922,29.7915 C180.9322,29.9905 180.2482,30.9085 179.9352,31.0055 C178.1152,31.5695 175.9052,32.8465 173.5852,33.0365 M138.6272,29.6775 C140.0322,26.6035 145.5912,25.2435 149.4512,24.2155 C153.3222,23.1855 157.3392,22.8105 161.3332,23.1005 C167.4362,23.5435 169.3242,23.5745 175.2212,25.2025 C175.2212,25.2025 181.9852,26.6435 182.2182,27.5785 C182.4522,28.5125 181.1922,29.7915 181.1922,29.7915 M171.9032,39.3465 C171.9032,39.6955 171.4352,43.6955 170.2722,47.3015 C169.1102,50.9085 166.7852,55.7945 166.7852,55.7945 C166.7852,55.7945 167.7152,56.4925 167.3662,58.3535 C167.0182,60.2155 163.2202,65.0375 163.2202,65.0375" id="Stroke-63" stroke-width="1.291" stroke-linecap="round" stroke-linejoin="round"></path><path d="M134.413,48.1659 C137.351,51.4879 142.609,53.6989 148.612,53.6989" id="Stroke-65" stroke-width="0.849" stroke-linecap="round" stroke-linejoin="round"></path><path d="M134.5705,41.0156 C134.5705,46.2646 139.5015,51.3236 145.0215,51.3236 L146.7635,49.5856 L150.2475,49.5856 C150.2475,49.5856 151.5245,50.0496 151.5245,52.1336 L151.5245,54.6816 C151.5245,54.6816 151.9895,55.6086 149.6665,55.6086 C147.3445,55.6086 144.7895,55.7246 143.9765,54.9136 M166.7375,55.9556 L162.1245,61.6086 L155.7905,64.3236 C155.7905,64.3236 148.8085,64.6816 146.3815,64.0376 C141.4845,59.6196 135.3635,52.2236 135.3635,52.2236 L131.6015,51.2596 C130.5255,50.7886 125.0145,49.1246 125.0145,49.1246 M165.9535,62.6136 L167.0735,68.5006 L173.8345,69.1986 M131.8665,52.2236 C131.8665,65.3336 139.1515,76.9656 156.0335,76.9656 M131.6335,59.6646 C131.6335,65.4466 134.5075,70.6006 139.0055,73.9666" id="Stroke-67" stroke-width="1.291" stroke-linecap="round" stroke-linejoin="round"></path><path d="M124.3449,44.8782 C121.7209,45.2872 119.0139,41.5832 118.2979,36.6052 C117.5829,31.6282 119.1309,27.2612 121.7549,26.8532" id="Stroke-69" stroke-width="1.422" stroke-linecap="round" stroke-linejoin="round"></path><path d="M118.3673,28.5805 C119.1773,25.2135 120.8883,22.8635 123.1533,22.5215 C127.0233,21.9375 131.0443,27.4315 132.1373,34.7925 C133.2293,42.1535 130.9773,48.5935 127.1083,49.1765 C124.7393,49.5345 122.3123,47.6135 120.5363,44.3805" id="Stroke-71" stroke-width="0.935" stroke-linecap="round" stroke-linejoin="round"></path><path d="M147.6806,53.3921 C147.6806,51.2981 147.2616,49.6031 146.7436,49.6031 M149.2646,53.5491 C149.2646,51.2981 148.7686,49.4761 148.1556,49.4761 M145.4636,53.5491 C145.4636,51.9901 144.8966,50.7291 144.1966,50.7291" id="Stroke-73" stroke-width="0.849" stroke-linecap="round" stroke-linejoin="round"></path><path d="M134.6437,33.6193 C133.3487,23.0883 127.1977,21.7923 127.1977,21.7923 L123.2527,22.5133" id="Stroke-75" stroke-width="0.998" stroke-linecap="round" stroke-linejoin="round"></path><path d="M133.9441,45.5575 C133.9441,45.5575 134.4501,49.5785 131.6511,50.9975" id="Stroke-77" stroke-width="1.291" stroke-linecap="round" stroke-linejoin="round"></path><path d="M125.6631,35.6202 C126.0861,39.1832 125.0931,42.2372 123.4451,42.4412 C121.7961,42.6452 120.1171,39.9212 119.6931,36.3582 C119.2701,32.7952 120.2631,29.7412 121.9121,29.5372 C123.5601,29.3332 125.2401,32.0572 125.6631,35.6202 Z" id="Stroke-79" stroke-width="0.849" stroke-linecap="round" stroke-linejoin="round"></path><path d="M206.0905,231.3498 C206.0905,231.3498 199.0115,234.2948 186.1845,235.6948 C173.3565,237.0958 159.7595,236.3318 159.3745,236.3318 C158.9895,236.3318 154.4995,236.8408 155.1415,241.8048 C155.7825,246.7698 157.1935,251.3518 157.1935,251.3518 M177.9745,236.3318 C177.9745,236.3318 184.6445,236.0768 186.0555,239.7688 C187.4665,243.4598 185.4145,251.0978 185.4145,251.0978" id="Stroke-81" stroke-width="0.899" stroke-linecap="round" stroke-linejoin="round"></path><path d="M156.7708,210.188 C162.8298,209.688 169.5378,208.664 176.9358,206.938 M183.8298,205.871 L180.9198,205.871 L179.2218,208.894 L179.2218,213.61 L181.1018,215.484 L181.1018,224.251 L177.8578,227.485 L182.1318,227.485 L177.7518,231.853 L177.7518,228.966 L189.2858,228.966 L189.2858,231.853 L184.9058,227.485 L189.1798,227.485 L185.9358,224.251 L185.9358,215.484 L187.8158,213.61 L187.8158,208.894 L186.1178,205.871 L183.2078,205.871 M177.7518,231.853 L188.9068,231.853" id="Stroke-83" stroke-width="1.242" stroke-linecap="round" stroke-linejoin="round"></path><path d="M193.5581,190.7127 L191.5221,190.7127 L190.3351,194.2057 L190.3351,199.6537 L191.6501,201.8187 L191.6501,211.9477 L189.3811,215.6847 L189.3071,220.7317 L189.3071,217.3957 L197.3751,217.3957 L197.3751,220.7317 L197.3001,215.6847 L195.0321,211.9477 L195.0321,201.8187 L196.3461,199.6537 L196.3461,194.2057 L195.1591,190.7127 L193.1231,190.7127 M189.3071,220.7317 L197.1101,220.7317" id="Stroke-85" stroke-width="1.131" stroke-linecap="round" stroke-linejoin="round"></path><path d="M190.3431,194.2097 L193.9761,194.2097 M190.3431,199.4607 L193.2891,199.4607" id="Stroke-87" stroke-width="0.899" stroke-linecap="round" stroke-linejoin="round"></path><path d="M191.743,201.806 L192.717,201.806" id="Stroke-89" stroke-width="1.131" stroke-linecap="round" stroke-linejoin="round"></path><path d="M191.4929,212.1087 L193.6079,212.1087 M179.4169,208.8857 L184.6989,208.8857 M179.4169,213.6177 L184.2179,213.6177 M181.2829,215.4977 L184.2179,215.4977 M181.0869,224.7787 L184.5789,224.7787 M193.4879,220.6537 L193.4879,233.7557" id="Stroke-91" stroke-width="0.899" stroke-linecap="round" stroke-linejoin="round"></path><path d="M196.6394,221.4141 L196.6394,227.3891 M190.4924,221.1751 L190.4924,233.7231 M177.5964,233.6031 L186.0334,233.6031" id="Stroke-93" stroke-width="1.131" stroke-linecap="round" stroke-linejoin="round"></path><path d="M166.9191,235.1426 L166.9191,219.4266 C166.9191,216.7356 167.8551,214.5326 168.9991,214.5326 L171.5691,214.5326 C172.7131,214.5326 173.6491,216.7356 173.6491,219.4266 L173.6491,234.8916" id="Stroke-95" stroke-width="1.058" stroke-linecap="round" stroke-linejoin="round"></path><path d="M173.7619,220.3558 C175.0859,220.8488 176.0359,222.1258 176.0359,223.6128 L176.0359,234.5938 L173.7619,220.3558 Z M164.7659,234.7718 L164.7659,223.6128 C164.7659,221.7018 166.3339,220.1388 168.2489,220.1388 L169.0589,220.1388 L164.7659,234.7718 Z M170.2189,221.3878 C169.1859,221.3878 168.3409,220.5448 168.3409,219.5138 C168.3409,218.4838 169.1859,217.6398 170.2189,217.6398 C171.2519,217.6398 172.0969,218.4838 172.0969,219.5138 C172.0969,220.5448 171.2519,221.3878 170.2189,221.3878 Z M171.4769,213.5358 L168.7939,213.5358 C167.9579,213.5358 167.2739,212.8528 167.2739,212.0188 C167.2739,211.1848 167.9579,210.5018 168.7939,210.5018 L171.4769,210.5018 C172.3139,210.5018 172.9979,211.1848 172.9979,212.0188 C172.9979,212.8528 172.3139,213.5358 171.4769,213.5358 Z M202.5089,208.0928 C202.5089,209.5218 201.3479,210.6808 199.9159,210.6808 C198.4829,210.6808 197.3219,209.5218 197.3219,208.0928 C197.3219,206.6638 198.4829,205.5048 199.9159,205.5048 C201.3479,205.5048 202.5089,206.6638 202.5089,208.0928 Z M205.0139,208.0928 C205.0139,210.9018 202.7309,213.1788 199.9159,213.1788 C197.0999,213.1788 194.8179,210.9018 194.8179,208.0928 C194.8179,205.2838 197.0999,203.0068 199.9159,203.0068 C202.7309,203.0068 205.0139,205.2838 205.0139,208.0928 Z M202.5089,208.0928 L202.5089,216.3908 L202.5089,224.5228 C202.5089,224.5228 207.3569,226.0408 206.0589,231.0988 L202.5089,208.0928 Z" id="Stroke-97" stroke-width="1.131" stroke-linecap="round" stroke-linejoin="round"></path><path d="M199.9445,208.0462 L199.9445,219.6422 M191.6205,254.6482 L193.2535,255.8132 L199.3155,254.7642 M193.2535,255.8132 C193.0195,255.1142 190.4545,250.2192 190.4545,250.2192 L191.1545,254.6482 C191.1545,254.6482 193.7195,274.6922 193.3695,279.5872 C195.1185,279.1202 199.7825,277.3722 199.7825,277.3722 L201.8805,273.6432 L194.5355,275.8572 C194.5355,275.8572 195.7015,275.7412 193.0195,256.9792 C195.2355,256.6292 199.7825,255.8132 199.7825,255.8132 C199.7825,255.8132 201.1815,263.7382 201.6475,271.7792 M201.1815,251.7342 C201.7125,252.4842 202.2965,253.0672 203.6335,252.7582 M202.8135,252.9002 C202.5805,252.2012 200.0155,247.3062 200.0155,247.3062 L200.7155,251.7342 C200.7155,251.7342 203.2795,271.7792 202.9305,276.6732 C204.6795,276.2072 209.3425,274.4592 209.3425,274.4592 L211.4415,270.7302 L204.0965,272.9442 C204.0965,272.9442 205.2625,272.8272 202.5805,254.0652 C203.0425,253.9922 203.6045,253.8992 204.2065,253.7972 M218.0295,249.1122 C216.4365,249.3882 214.8435,249.6632 213.2505,249.9392 L211.8195,242.7152 M220.3235,259.1102 C220.8205,262.7132 220.5595,264.3692 220.7705,267.9912 M212.0395,251.2782 C214.1955,250.9292 216.3455,250.5462 218.4955,250.1612 M210.1585,252.3172 C210.7315,259.9312 211.9275,266.4862 212.0825,273.9352 C213.9485,273.4302 212.1665,272.7112 212.0825,273.9352 C214.2625,272.9042 216.5975,272.6122 218.6405,271.7372 C219.2245,270.2782 219.8075,269.1122 220.5945,267.9912 C218.1475,268.7292 215.6905,269.4672 213.2505,270.2052 C213.6785,264.1522 212.8035,257.7352 211.7615,251.5282 M114.9565,207.1362 C115.3795,210.4272 115.9625,214.2192 118.2975,216.5532 C120.6325,218.3042 123.5515,218.5952 126.5695,218.9672 C124.7025,214.0542 125.6915,218.8472 126.5695,218.9672 C124.1345,211.8862 122.3835,203.7182 126.0675,197.1502 M122.7315,194.0802 C121.5315,193.9122 119.5295,193.4112 118.4805,194.0632 C117.5965,194.6132 116.9165,195.5912 116.4335,196.4902 C115.3985,198.4182 115.0065,200.6602 114.8375,202.8192 M129.5335,195.5962 C128.4565,195.2962 127.3755,195.0102 126.2875,194.7552 M134.5985,218.7162 C133.9105,219.3672 133.0385,219.5872 132.1125,219.5532 C131.4055,219.5272 129.9655,219.4592 129.6005,218.9272 C129.2335,218.3922 129.1335,217.3332 128.9775,216.7052 C128.7775,215.9042 128.6035,215.0972 128.4545,214.2852 C127.8505,210.9722 127.6545,207.5332 128.1975,204.1972 C128.4955,202.3722 129.0225,200.5772 129.8515,198.9212 M149.6515,201.4132 L149.9025,220.7222 L146.6405,221.4742 C146.6405,221.4742 145.1355,218.9672 144.3825,210.4412 C143.6295,201.9152 149.1905,196.6492 148.3965,196.6492 C147.1425,196.6492 140.3685,196.1472 136.3545,195.8962 C133.1865,195.6992 128.5765,206.1782 134.3475,217.9642 C134.3475,217.9642 135.0995,219.2182 137.3575,219.9702 C139.6155,220.7222 143.3795,221.2242 143.3795,221.2242 C143.3795,221.2242 138.1105,207.6822 142.8775,199.4072 M109.6265,195.8252 C108.4845,199.1372 108.2525,202.6682 108.8455,206.1152 M107.2515,183.6092 C106.3315,186.5072 104.8725,190.8822 108.3675,192.8362 M104.3755,210.2352 C106.9155,213.6362 111.2935,215.9702 115.3795,215.9702 C115.6705,215.9702 115.9625,215.3862 116.2835,214.7042 M103.5895,207.4092 C103.2355,204.9222 103.2955,202.3462 103.3705,199.8402 C103.3705,199.8402 103.1735,189.1892 104.9935,187.3702 C106.9255,185.4402 109.2285,191.0982 111.6875,192.1782" id="Stroke-99" stroke-width="0.899" stroke-linecap="round" stroke-linejoin="round"></path><path d="M160.3791,276.4549 C156.8061,266.4589 154.0801,255.5069 150.5061,245.5109 M155.0531,262.8099 C155.5501,267.0039 154.7691,271.3479 152.8461,275.0879 M147.7821,222.4789 C152.5001,223.9889 147.1071,232.4069 147.7621,235.8899 C147.9841,237.0709 149.5081,237.4389 149.6921,238.2649 C149.8591,239.0109 149.3981,239.8519 149.5451,240.4189 C150.0171,242.2399 149.7411,243.8349 150.5061,245.5109 C150.2031,244.9749 149.7911,244.4049 149.5621,243.8449 M152.6771,218.8419 C159.6761,221.6229 155.6461,232.7729 155.3801,238.1669 C155.2891,240.0099 157.7071,243.8409 157.1481,245.6629" id="Stroke-101" stroke-width="1.242" stroke-linecap="round" stroke-linejoin="round"></path><path d="M148.283,364.8091 C148.285,365.6001 148.283,366.3901 148.283,367.1811 C147.59,361.3461 149.821,352.4311 151.362,346.0751 C152.264,342.3531 153.645,335.9171 156.537,333.2981 C154.557,330.3571 155.196,329.2271 155.147,325.8791 C155.093,322.1491 150.941,314.9811 152.387,312.2931 C148.984,307.6011 147.864,303.7991 143.156,299.8491 C141.437,298.4071 139.89,298.5881 139.676,296.4211 C139.686,296.5201 142.226,292.0951 142.376,291.2601 C142.691,289.5111 142.116,287.5451 142.276,285.8071 C142.364,284.8581 142.45,283.2671 142.57,282.5761 C142.759,281.4891 143.783,280.5281 143.727,278.7331 C143.645,276.1261 142.557,272.7661 142.07,270.2381 C144.631,270.8951 152.396,274.6521 154.631,272.1501 C156.572,269.9781 153.122,266.2231 151.995,265.0631 C147.862,260.8091 135.553,259.7031 137.442,253.7531 C137.568,253.3551 137.079,245.2141 126.637,235.2071 M192.064,297.6801 C191.226,307.5081 194.34,317.7571 193.91,327.7601 C193.516,336.9361 192.314,343.7471 198.096,351.0091 C203.752,358.1151 207.358,375.2491 206.658,383.5971 L206.658,380.3351" id="Stroke-103" stroke-width="0.817" stroke-linecap="round" stroke-linejoin="round"></path><path d="M149.8831,207.036 C148.9561,210.537 156.5661,216.102 158.9371,219.255 C162.7571,224.336 159.7671,229.46 159.1461,236.091" id="Stroke-105" stroke-width="1.242" stroke-linecap="round" stroke-linejoin="round"></path><path d="M153.0227,52.6413 C153.3927,52.6413 154.1087,52.8103 154.4787,52.8103 C154.8447,52.8103 155.1717,52.8023 155.5237,52.7333 C155.6497,52.7083 155.7607,52.7203 155.8897,52.7133 C156.0347,52.7063 156.1227,52.6333 156.2607,52.6073 C156.3727,52.5863 156.5177,52.6103 156.6317,52.6123 C156.7887,52.6143 156.8597,52.5753 157.0037,52.5353 C157.2447,52.4683 157.5037,52.5643 157.7457,52.5183 C157.8827,52.4933 157.9737,52.4223 158.1167,52.4123 C158.2457,52.4033 158.3807,52.4143 158.5087,52.4143 C158.8887,52.4143 159.2317,52.3283 159.6017,52.3133 C159.7567,52.3073 159.9107,52.3173 160.0647,52.3373 C160.7297,52.4253 161.3687,52.6393 162.0357,52.7173 C162.3327,52.7523 163.0747,53.0493 163.2277,52.6123 C163.3497,52.2593 162.8597,51.7593 162.6627,51.5493 C162.4797,51.3553 162.4527,51.1793 162.2397,51.0243 C161.8157,50.7143 161.4407,50.6593 160.9007,50.6663 C160.5737,50.6703 160.2517,50.6773 159.9417,50.7993 C159.5577,50.9483 159.2167,50.8243 158.8127,50.9223 C158.6727,50.9563 158.4467,50.9503 158.3007,50.9333 C158.2107,50.9223 158.1577,50.8673 158.0967,50.8533 C158.0067,50.8333 157.9277,50.8533 157.8377,50.8373 C157.6357,50.8013 157.5027,50.7403 157.2867,50.7353 C157.0587,50.7283 156.8217,50.6643 156.5977,50.6253 C156.1967,50.5563 155.8787,50.6053 155.5187,50.4773 C155.0897,50.4853 154.7317,50.7113 154.3377,50.8923 C154.0067,51.0453 153.7087,50.9573 153.3817,51.1283 C153.0797,51.2863 152.7867,51.4673 152.5467,51.7213 M154.0677,55.6143 C154.3437,55.6063 154.6207,55.5983 154.8967,55.5903 C155.1087,55.5833 155.3297,55.5593 155.5417,55.5663 C155.7347,55.5723 155.9147,55.6363 156.1087,55.6423 C156.6667,55.6603 157.2057,55.6903 157.7707,55.6733 C158.2327,55.6593 158.6947,55.6463 159.1567,55.6323 C159.3717,55.6253 159.5877,55.6163 159.8037,55.6123 C160.0377,55.6083 160.2127,55.5113 160.4477,55.5083" id="Stroke-107" stroke-width="0.79" stroke-linecap="round" stroke-linejoin="round"></path><path d="M162.9284,52.7579 C162.9324,52.7409 162.9374,52.7249 162.9414,52.7079 C163.0614,52.6819 163.2074,52.6949 163.3334,52.6969 C163.5174,52.6989 163.7294,52.7929 163.9074,52.7609 C164.1954,52.7099 163.8854,52.4119 164.0194,52.2799" id="Stroke-109" stroke-width="0.822" stroke-linecap="round" stroke-linejoin="round"></path><path d="M172.7139,28.5811 C173.8259,32.1551 173.6429,37.2751 170.7699,40.1671 C170.4829,40.4301 169.9079,40.6931 169.3339,40.6931 C167.0359,40.9561 162.8869,40.6931 161.5769,39.1151 C160.1409,37.8011 160.1439,35.7641 158.9949,34.1861 C158.4199,33.3981 156.1369,33.4351 155.4839,33.8421 C154.6219,35.1571 154.1089,37.2751 152.9599,38.0641 C149.2249,40.6931 145.1539,40.0771 141.2199,39.5591" id="Stroke-111" stroke-width="0.935" stroke-linecap="round" stroke-linejoin="round"></path><path d="M169.3127,40.527 C169.3127,35.702 166.4067,33.065 162.1517,30.602" id="Stroke-113" stroke-width="0.849" stroke-linecap="round" stroke-linejoin="round"></path><path d="M140.1467,58.2223 C140.1467,58.2223 136.7027,61.3913 137.0157,65.8273 C137.3287,70.2643 130.7547,76.9183 130.7547,76.9183" id="Stroke-115" stroke-width="0.817" stroke-linecap="round" stroke-linejoin="round"></path><path d="M158.7007,45.7974 L157.6707,45.3084 L154.3027,45.3084 C154.3027,45.3084 152.3927,45.2864 152.7537,43.8094" id="Stroke-117" stroke-width="0.751" stroke-linecap="round" stroke-linejoin="round"></path><polyline id="Stroke-119" stroke-width="0.751" stroke-linecap="round" stroke-linejoin="round" points="162.16 44.508 162.064 45.374 158.914 45.797"></polyline><path d="M132.5256,33.3556 C132.5256,31.1766 134.8056,29.4136 137.6236,29.4136" id="Stroke-121" stroke-width="1.291" stroke-linecap="round" stroke-linejoin="round"></path><path d="M160.8101,15.7427 C161.0711,15.8487 161.5771,15.9857 162.2111,15.8087 C163.1471,15.5477 163.9381,14.6057 163.6641,13.5307 C163.3871,12.4437 162.3721,11.8407 160.9881,12.2267 C159.4991,12.6417 158.1031,14.5357 158.6051,16.5037 C159.1341,18.5827 160.8731,19.8677 162.7451,19.3467 C164.3141,18.9097 164.6731,17.4827 164.6731,17.4827 L164.6421,17.3727 M162.5141,12.2297 C162.5141,12.2297 163.3681,12.4787 163.9281,13.0157 C164.4881,13.5527 164.8601,14.5697 164.3591,15.5937 C163.8571,16.6187 163.1361,17.0557 162.2021,17.2707 C161.2691,17.4867 160.6591,16.9787 160.8101,15.7417 M162.2621,13.4427 C162.2621,13.4427 161.0801,13.1277 160.1941,14.5417 C159.9931,14.8637 159.9111,15.2117 159.8891,15.5547 C159.8141,16.7167 160.6301,17.8617 161.5451,18.0737 C162.7311,18.3477 163.6181,17.7317 163.8871,17.0677 L164.6421,17.3727 C164.6421,17.3727 164.3221,18.5537 162.8581,18.9607 C161.4611,19.3507 159.8381,18.2987 159.4001,16.5767 C159.1431,15.5687 159.4671,14.6787 159.9651,14.0827 C160.3171,13.6607 160.7701,13.4127 161.0871,13.3247 C161.8981,13.0987 162.6701,13.5087 162.8431,14.1877 C163.0111,14.8487 162.5211,15.4717 161.9541,15.6297 C161.3871,15.7877 161.0731,15.6097 161.0731,15.6097 L160.8101,15.7417 M165.8151,11.6257 C166.4511,12.3267 166.9341,13.1997 167.1881,14.1997 C168.0011,17.3927 166.1821,20.6717 163.1251,21.5227 C160.0681,22.3747 156.9311,20.4767 156.1181,17.2827 C155.3051,14.0897 157.1241,10.8107 160.1811,9.9597 C160.8931,9.7607 161.6101,9.7117 162.3011,9.7937" id="Stroke-123" stroke-width="0.616" stroke-linecap="round" stroke-linejoin="round"></path><path d="M121.9724,35.9253 C121.9724,35.9253 124.8114,39.3493 129.9214,38.8083" id="Stroke-125" stroke-width="0.849" stroke-linecap="round" stroke-linejoin="round"></path><path d="M109.5058,182.8586 C109.5058,182.8586 102.1998,191.8166 148.5238,194.0456 C152.6598,194.2446 150.2648,205.0246 153.2848,209.2156 C156.8688,214.1886 162.8878,217.0206 164.8478,222.8736 M151.3128,201.0916 C151.3128,201.0916 172.0548,198.9546 188.5838,194.9376" id="Stroke-127" stroke-width="1.242" stroke-linecap="round" stroke-linejoin="round"></path><path d="M36.9416,48.1919 C45.2066,37.0349 57.4346,31.9969 65.7096,36.8919 C74.8676,42.3099 75.7156,57.8449 67.6046,71.5899 C59.4926,85.3339 45.4926,92.0849 36.3346,86.6659 C27.6806,81.5459 25.3786,69.1679 32.1156,56.0269" id="Stroke-129" stroke-width="1.242"></path><path d="M78.2966,48.4707 C80.5356,55.6987 78.1506,65.9627 72.7976,75.0367 C67.3036,84.3497 59.1176,90.4627 51.5516,91.7797" id="Stroke-131" stroke-width="0.439" stroke-linecap="round" stroke-linejoin="round"></path><path d="M83.2968,51.6076 C85.5308,58.8146 83.1508,69.0496 77.8098,78.0966 M34.2588,85.2946 L54.7058,96.9476 M63.7788,35.9716 L86.7628,49.5976" id="Stroke-133" stroke-width="1.242" stroke-linecap="round" stroke-linejoin="round"></path><path d="M14.8576,45.2316 L39.2716,59.9826" id="Stroke-135" stroke-width="1.291" stroke-linecap="round" stroke-linejoin="round"></path><path d="M36.9066,48.1918 C41.8616,42.3418 48.4496,39.7818 52.9216,42.4308 C58.2736,45.6008 58.5696,55.0288 53.5826,63.4888 C48.5966,71.9478 40.2146,76.2368 34.8636,73.0668 C30.1806,70.2928 29.0716,63.1248 32.2826,55.6098" id="Stroke-137" stroke-width="1.242"></path><path d="M16.3074,34.6519 C16.4814,32.2969 15.7654,30.2939 14.1824,29.3609 C12.1344,28.1539 9.2184,29.0769 6.8144,31.4259 C6.8144,31.4259 17.7454,32.7209 17.7454,41.7459 L37.5954,53.6469 C37.5954,53.6469 40.3964,49.3339 33.2724,45.7399 M4.6334,34.2249 C2.0894,38.5209 2.2404,43.3079 4.9704,44.9179 C6.4554,45.7939 8.3964,45.5489 10.2684,44.4529" id="Stroke-139" stroke-width="0.628" stroke-linecap="round" stroke-linejoin="round"></path><path d="M40.4411,49.9484 C43.2801,46.8804 46.4071,45.4334 48.3631,46.5934 C51.0401,48.1804 50.5141,54.0444 47.1881,59.6914 C43.8621,65.3384 38.9961,68.6304 36.3201,67.0434 C33.9491,65.6384 33.6091,62.2114 35.5151,57.8294" id="Stroke-141" stroke-width="0.717" stroke-linecap="round" stroke-linejoin="round"></path><path d="M91.2417,37.0631 C87.7617,42.9711 81.7567,45.8721 77.8277,43.5431 C73.8997,41.2141 73.5357,34.5371 77.0147,28.6301 C80.4947,22.7221 86.5007,19.8211 90.4287,22.1501 C92.3927,23.3141 93.4667,25.5651 93.6137,28.2641" id="Stroke-143" stroke-width="1.242" stroke-linecap="round" stroke-linejoin="round"></path><path d="M84.9512,24.4581 C87.2712,25.8321 87.3992,29.9201 85.2372,33.5871 C83.0762,37.2551 79.4422,39.1141 77.1222,37.7401 C74.8022,36.3661 74.6742,32.2781 76.8362,28.6111 C78.9982,24.9431 82.6312,23.0841 84.9512,24.4581 Z" id="Stroke-145" stroke-width="0.538" stroke-linecap="round" stroke-linejoin="round"></path><path d="M91.7064,22.9224 L116.4724,39.2074" id="Stroke-147" stroke-width="1.242" stroke-linecap="round" stroke-linejoin="round"></path><path d="M42.4473,65.7761 C42.4473,73.8001 45.1433,80.8921 49.2803,85.2091 M73.2773,55.7701 C67.3143,52.7321 56.5213,50.0711 48.3243,54.9311 M65.7873,36.7901 C55.7293,36.7901 48.6723,40.3231 46.2363,45.7381 M33.6943,84.7711 C30.8963,78.3301 31.1253,71.3451 34.9793,66.0881" id="Stroke-149" stroke-width="0.439" stroke-linecap="round" stroke-linejoin="round"></path><path d="M19.3811,37.0017 L43.8041,51.8837 L43.7821,51.9127 C44.7871,52.5067 44.5891,54.6987 43.3401,56.8097 C42.0911,58.9207 40.3511,60.5777 39.3461,59.9847" id="Stroke-151" stroke-width="1.291" stroke-linecap="round" stroke-linejoin="round"></path><path d="M86.8011,49.3234 C95.1861,46.9194 97.3501,39.1724 97.3501,39.1724 L91.4091,35.3144 C91.4091,35.3144 86.7611,30.5054 82.1141,31.3794 M1.9981,42.8824 C0.7681,41.2854 0.0371,39.2934 0.0371,37.1314 C0.0371,31.8824 4.3471,27.6264 9.6631,27.6264 C10.9051,27.6264 12.0921,27.8584 13.1821,28.2814 M13.1821,28.2814 C16.7571,29.6694 19.2881,33.1084 19.2881,37.1314 C19.2881,42.3814 14.9791,46.6374 9.6631,46.6374 C6.5351,46.6374 3.7561,45.1644 1.9981,42.8824" id="Stroke-153" stroke-width="1.242" stroke-linecap="round" stroke-linejoin="round"></path><path d="M52.2025,106.8226 C54.3015,106.3266 56.4005,105.8306 58.4995,105.3356 C59.4025,105.1216 60.3925,104.9166 61.2265,105.3266 C61.6585,105.5396 61.9985,105.8966 62.3575,106.2176 C63.3245,107.0836 64.4845,107.7306 65.3635,108.6876 C66.2435,109.6436 66.8045,111.0786 66.2475,112.2526 C65.8915,113.0026 65.1615,113.4906 64.4655,113.9396 C63.6805,114.4476 62.8955,114.9546 62.1095,115.4626 C61.8765,115.6136 61.6285,115.7696 61.3515,115.7876 C61.0785,115.8056 60.8165,115.6876 60.5715,115.5656 C59.9335,115.2486 59.3165,114.8896 58.7265,114.4906 M52.8925,102.7876 C55.8645,101.9036 58.8775,101.1536 61.9175,100.5426 C62.7855,100.3686 63.7665,100.2266 64.4905,100.7386 C64.8635,101.0026 65.1105,101.4056 65.3465,101.7976 C66.2335,103.2676 67.1205,104.7376 68.0075,106.2076 C68.2625,106.6286 68.5205,107.0606 68.6245,107.5426 C68.7405,108.0806 68.6545,108.6456 68.4915,109.1716 C68.0905,110.4736 67.2135,111.6216 66.0655,112.3506 M52.8485,99.0606 C56.3305,97.5446 59.8315,96.0226 63.5145,95.1026 C63.7565,95.0416 64.0065,94.9836 64.2525,95.0236 C64.5835,95.0776 64.8595,95.3006 65.1185,95.5156 C66.6075,96.7526 68.1615,98.0816 68.8045,99.9116 C69.0315,100.5606 69.1345,101.2496 69.3875,101.8886 C69.6775,102.6196 70.1595,103.2786 70.3175,104.0486 C70.6095,105.4816 69.5045,107.0436 68.0595,107.2396 M53.0275,98.7106 C56.5125,96.2516 60.1795,94.0506 63.9875,92.1326 C64.5715,91.8376 65.2035,91.5426 65.8515,91.6316 C66.3905,91.7056 66.8585,92.0396 67.2615,92.4056 C68.8585,93.8566 69.7915,96.0166 69.7545,98.1786 M72.6875,95.1026 C71.9735,95.8686 71.2605,96.6356 70.5475,97.4026 C70.2915,97.6776 70.0295,97.9616 69.8895,98.3116 C69.7155,98.7446 69.7475,99.2296 69.7815,99.6956 C69.8655,100.8536 70.0085,102.1346 70.8755,102.9046 C71.2935,103.2756 71.8385,103.4786 72.3885,103.5776 C74.5155,103.9576 76.8225,102.6926 77.6525,100.6906 C77.5575,100.6056 77.4625,100.5196 77.3675,100.4346 M72.6155,95.1096 C73.7055,94.6096 74.9855,95.0356 76.0555,95.5766 C76.3915,95.7456 76.7245,95.9286 77.0145,96.1696 C77.6765,96.7196 78.0725,97.5586 78.1515,98.4176 C78.2305,99.2766 78.0075,100.1496 77.5925,100.9056 M71.0965,98.0896 C72.0255,97.9746 72.9475,98.4726 73.5775,99.1686 C74.2075,99.8646 74.5995,100.7386 74.9805,101.5976 C75.4975,101.2736 75.9565,100.8566 76.3285,100.3726 M77.4685,101.1636 C77.5335,105.6836 76.9145,110.2136 75.6385,114.5496 C75.4145,115.3106 75.1695,116.0706 75.0635,116.8576 C74.8545,118.3966 75.0545,120.2656 73.8075,121.1856 C73.0455,121.7476 71.9325,121.7496 71.2945,122.4496 C70.9985,122.7746 70.8525,123.2036 70.6865,123.6106 C69.1185,127.4736 65.0635,130.1766 60.9065,130.1296" id="Stroke-155" stroke-width="0.928" stroke-linecap="round" stroke-linejoin="round"></path><path d="M69.5792,140.9397 C71.7282,142.7737 74.0262,144.4387 76.4862,145.8277 M52.8982,99.0777 C50.7782,99.6897 50.4892,102.0117 50.4892,103.7537 C50.4892,104.3337 49.6222,104.9147 49.6222,105.2047 C49.3332,107.2367 48.4662,108.9787 47.8892,110.7207 C47.8892,111.3017 48.1782,111.8817 48.4662,112.4627 C49.3332,114.2047 50.4892,115.6557 51.0672,117.6877 C52.2232,120.5907 53.9562,123.2037 56.5562,125.2357 C58.0012,128.7197 60.3122,131.6227 62.9132,134.5257 C63.4912,135.1057 64.0692,135.6867 64.7992,136.3887" id="Stroke-157" stroke-width="1.242" stroke-linecap="round" stroke-linejoin="round"></path><path d="M74.6576,121.1725 C76.3996,124.2185 79.2586,126.4435 82.0846,128.5325 C85.1506,130.7985 88.2626,133.0005 91.3746,135.2035" id="Stroke-159" stroke-width="0.928" stroke-linecap="round" stroke-linejoin="round"></path><path d="M82.897,124.4043 C87.296,130.6233 92.485,136.2823 98.299,141.2003" id="Stroke-161" stroke-width="0.97" stroke-linecap="round" stroke-linejoin="round"></path><path d="M65.4661,113.3875 C67.3361,116.6375 67.3371,120.8965 65.4671,124.1475 C64.5291,125.7795 63.1851,127.1285 61.8571,128.4575 C61.1271,129.1875 60.3971,129.9185 59.6671,130.6485 C59.5861,130.7305 59.4991,130.8555 59.5671,130.9495 C59.6341,131.0425 59.7751,130.8275 59.6611,130.8465 M72.9371,96.8325 C73.4541,96.4405 74.2021,96.4775 74.7761,96.7775 C75.3501,97.0775 75.7791,97.5975 76.1431,98.1365 C76.5661,98.7635 76.9311,99.5735 76.5991,100.2535 M73.2371,103.8955 C73.2371,103.8955 75.2051,113.7675 74.1071,118.8525 C73.9981,119.3565 73.8281,117.8525 73.5151,117.4445 C72.8081,116.5225 71.6531,116.1025 70.5841,115.6565 C69.4791,115.1965 68.3561,114.6235 67.6691,113.6385" id="Stroke-163" stroke-width="0.928" stroke-linecap="round" stroke-linejoin="round"></path><path d="M94.8181,144.4812 C94.9331,146.8972 92.7531,148.9622 90.3511,149.6372 C87.9491,150.3132 85.3821,149.9292 82.9141,149.5402 C81.9541,149.3892 80.9581,149.2242 80.1641,148.6812 C78.7561,147.7172 78.1321,145.6742 76.4421,145.3362" id="Stroke-165" stroke-width="0.97" stroke-linecap="round" stroke-linejoin="round"></path><path d="M87.403,157.9781 C88.543,158.7131 90.077,158.1971 91.201,157.4381 C92.324,156.6781 93.345,155.6691 94.665,155.3581 C95.799,155.0921 97.175,155.3161 97.965,154.4601 C98.322,154.0731 98.468,153.5411 98.581,153.0271 C98.993,151.1501 98.016,147.8421 97.843,145.9271 C97.219,147.9641 96.595,150.0021 95.971,152.0391 C95.853,152.4231 95.716,152.8361 95.386,153.0661 C95.119,153.2531 94.776,153.2821 94.451,153.3051 C90.313,153.5991 86.175,153.8921 82.038,154.1861 C80.304,154.3091 78.294,154.3221 77.168,152.9981 C76.658,152.3981 76.375,151.5591 75.674,151.2011 C75.182,150.9491 74.562,150.9861 74.122,150.6531 C73.709,150.3411 73.569,149.7931 73.455,149.2891 C72.959,147.0921 72.463,144.8951 71.967,142.6981 C73.907,148.6411 75.088,154.9611 77.334,160.7961 C77.563,161.3921 77.818,162.0191 78.329,162.4011 C78.864,162.8011 79.573,162.8541 80.239,162.9011 C86.6,163.3581 92.895,164.7281 98.871,166.9551 C98.635,166.4561 98.181,167.4041 98.464,167.8771 C100.267,170.8871 102.949,174.1961 106.434,173.7981 C105.758,173.1481 109.043,177.2161 108.368,176.5661 M103.959,105.6191 L133.114,107.7031 L136.03,113.5371 L131.032,110.2031 L118.537,108.9531" id="Stroke-167" stroke-width="1.242" stroke-linecap="round" stroke-linejoin="round"></path><path d="M87.9218,85.3694 C87.9218,85.3694 84.1998,98.3904 83.8768,107.8084 C83.5548,117.2274 96.4488,114.3044 96.4488,114.3044 M84.5218,111.3814 L100.6388,129.2444 M113.2108,62.9894 L93.8698,49.9984" id="Stroke-169" stroke-width="1.242" stroke-linecap="round" stroke-linejoin="round"></path><path d="M130.1763,50.9751 L129.8533,63.2921 L126.9483,66.8581 L115.1513,67.1561 C113.5823,66.8411 110.1323,67.1561 110.1323,67.1561 C110.1323,67.1561 101.0343,71.5661 99.1523,81.3301 C97.2703,91.0941 96.9563,105.2681 96.9563,105.2681" id="Stroke-171" stroke-width="1.226" stroke-linecap="round" stroke-linejoin="round"></path><path d="M118.2449,66.4835 C118.2449,66.4835 117.4129,61.2885 109.6969,63.2405 C105.1319,64.3955 99.3489,68.7345 97.4079,72.6125 C95.4679,76.4905 94.8209,86.5095 94.8209,86.5095 C93.8509,86.1855 89.9699,86.1855 89.9699,86.1855 L78.0049,78.4295 C78.0049,78.4295 84.7959,80.0455 88.0299,78.7535 C91.2639,77.4605 97.4969,65.4895 95.7909,54.8385 C94.4979,46.7595 87.0359,49.6715 87.0359,49.6715" id="Stroke-173" stroke-width="1.242" stroke-linecap="round" stroke-linejoin="round"></path><path d="M97.6984,35.2585 L114.2834,46.3055 L114.2834,52.1535 L125.0144,59.3015 L125.0144,64.1745 L99.6494,46.9545 M73.3874,55.7895 L83.7474,61.7195 M51.5204,86.5935 L61.6014,92.4415" id="Stroke-175" stroke-width="0.817" stroke-linecap="round" stroke-linejoin="round"></path><path d="M61.66,92.5426 C61.786,90.4766 62.465,80.1986 83.884,96.6556" id="Stroke-177" stroke-width="1.003" stroke-linecap="round" stroke-linejoin="round"></path><path d="M106.9193,111.9496 C106.9193,111.9496 106.5913,133.5266 115.7733,148.5646 C120.6913,151.1796 129.2173,151.1796 129.2173,151.1796 C129.2173,151.1796 125.2823,118.8146 125.9383,113.2576 C115.1173,112.9306 106.9193,111.9496 106.9193,111.9496 Z M129.2173,113.2576 L149.2203,113.9116 L152.4993,149.8716 C152.4993,149.8716 149.8763,152.8146 133.4803,151.1796 C131.5123,150.1986 129.2173,113.2576 129.2173,113.2576 Z M157.0903,113.9116 L152.8273,113.9116 L155.4503,149.2186 C155.4503,149.2186 153.8113,153.1416 168.5673,151.8336 L157.0903,113.9116 Z" id="Stroke-179" stroke-width="1.242" stroke-linecap="round" stroke-linejoin="round"></path><path d="M109.2156,254.1896 C109.2156,254.1896 104.7216,261.6236 104.1016,264.7876 C103.4816,267.9506 105.4966,270.4816 105.4966,270.4816 L107.8206,271.1136 L109.8356,272.5376 L110.7656,293.0996 L112.9346,295.7886 M110.1456,260.9906 C110.1456,260.9906 108.2856,268.4246 107.6656,275.8596 C107.0456,283.2936 109.2156,295.3146 109.2156,295.3146 L113.7096,300.6916 M110.7656,293.0996 L109.2156,295.3146 M110.1456,260.9906 L105.3416,269.8486" id="Stroke-181" stroke-width="0.899" stroke-linecap="round" stroke-linejoin="round"></path><path d="M124.0453,115.0269 L124.0453,119.9519 C124.0453,121.8569 121.4693,123.4159 118.3203,123.4159 L114.8913,123.4159 C111.7423,123.4159 109.1663,121.8569 109.1663,119.9519 L109.1663,117.0729 M147.6653,114.4129 L147.6653,119.9389 C147.6653,122.0759 144.7743,123.8249 141.2423,123.8249 L137.3943,123.8249 C133.8623,123.8249 130.9713,122.0759 130.9713,119.9389 L130.9713,116.7089" id="Stroke-183" stroke-width="0.439" stroke-linecap="round" stroke-linejoin="round"></path><path d="M159.7783,122.779 C157.1563,122.377 155.1953,120.891 155.1953,119.133 L155.1953,116.014" id="Stroke-185" stroke-width="1.173" stroke-linecap="round" stroke-linejoin="round"></path><path d="M129.1904,151.2855 C125.9854,147.0445 123.7194,123.1205 123.7194,123.1205 C123.7194,123.1205 122.8934,126.0105 117.9354,126.0105 M152.5214,149.9725 C148.0644,143.1795 146.0294,124.5655 146.6494,124.1525 C146.6494,124.1525 145.4104,126.0105 140.8654,126.0105" id="Stroke-187" stroke-width="0.439" stroke-linecap="round" stroke-linejoin="round"></path><path d="M157.8273,125.6049 L160.0183,125.0729" id="Stroke-189" stroke-width="1.045" stroke-linecap="round" stroke-linejoin="round"></path><path d="M78.5738,35.6925 C77.0878,34.8155 77.0588,32.1175 78.5098,29.6655 C79.9598,27.2135 82.3398,25.9365 83.8258,26.8145 M93.2388,34.2915 L112.7158,46.8935 L118.4698,45.5675 M101.8008,81.6255 L108.6738,99.5585 L113.5798,99.5585 M115.2578,99.5585 L120.1638,99.5585 M114.9688,81.6255 L121.8428,99.5585 L126.7488,99.5585 M175.9388,83.6885 L169.0648,101.6215 L164.1588,101.6215 M169.3538,83.6885 L162.4808,101.6215 L157.5748,101.6215 M162.7698,83.6885 L155.8958,101.6215 L150.9898,101.6215" id="Stroke-191" stroke-width="1.242" stroke-linecap="round" stroke-linejoin="round"></path><path d="M230.9668,134.8102 C230.9668,134.8102 234.8718,126.2522 230.3158,117.0362 C225.7598,107.8192 220.2798,103.8392 220.2798,103.8392" id="Stroke-193" stroke-width="0.817" stroke-linecap="round" stroke-linejoin="round"></path><path d="M137.6014,186.439 C137.0614,186.73 136.4814,186.887 135.8784,186.887 C132.9444,186.887 130.5664,183.156 130.5664,178.552 C130.5664,173.949 132.9444,170.218 135.8784,170.218 C136.9784,170.218 138.0004,170.742 138.8484,171.641" id="Stroke-195" stroke-width="1.159" stroke-linecap="round" stroke-linejoin="round"></path><path d="M137.6408,172.7075 C139.2018,174.0845 140.2278,176.4155 140.2278,179.0595" id="Stroke-197" stroke-width="1.242" stroke-linecap="round" stroke-linejoin="round"></path><path d="M127.6754,184.2555 C127.1264,182.5145 126.8204,180.5845 126.8204,178.5525 C126.8204,170.8575 131.2044,164.6185 136.6124,164.6185 C138.7924,164.6185 140.8064,165.6325 142.4334,167.3475 M146.9464,172.9885 C147.4684,174.6925 147.7574,176.5745 147.7574,178.5525 C147.7574,186.2485 143.3734,192.4865 137.9664,192.4865 C135.4144,192.4865 133.0904,191.0975 131.3474,188.8205" id="Stroke-199" stroke-width="0.68" stroke-linecap="round" stroke-linejoin="round"></path><path d="M172.1166,178.419 C162.9906,179.706 151.2836,180.479 138.5086,180.479" id="Stroke-201" stroke-width="0.729" stroke-linecap="round" stroke-linejoin="round"></path><path d="M110.7415,153.6465 C111.0935,153.8305 111.2135,154.3165 111.1425,154.7245 C111.0705,155.1325 110.8555,155.4925 110.6905,155.8685 C109.6425,158.2545 110.6615,161.0135 111.4035,163.5245 C113.2505,169.7745 113.3115,176.4275 113.9465,182.9405 C113.9575,183.0555 113.9955,183.1995 114.1035,183.2115 C114.2115,183.2235 114.1715,182.9745 114.0985,183.0605" id="Stroke-203" stroke-width="0.899" stroke-linecap="round" stroke-linejoin="round"></path><path d="M181.089,172.8604 L176.509,176.7294 L176.509,196.3044 L173.991,192.6624 L173.991,175.1364 L170.556,171.7224 L167.494,174.3134 L158.425,175.1864 L151.111,175.4764 C151.111,175.4764 150.234,171.5514 149.064,170.0974 M177.654,169.4464 L181.089,172.8604 L181.089,190.3864 L183.608,194.0284 L183.608,174.4534 L188.645,171.2674 M183.906,184.3044 C188.297,183.2754 191.952,182.0734 194.671,180.7454 L194.671,186.6724 M173.991,192.6624 L169.542,193.5054 L169.864,186.6984 C162.31,187.6014 153.752,188.1104 144.681,188.1104" id="Stroke-205" stroke-width="1.242" stroke-linecap="round" stroke-linejoin="round"></path><path d="M198.1951,267.4705 C198.1951,267.4705 198.3211,271.6495 198.5731,272.6625 C198.8261,273.6755 196.6811,278.2335 196.6811,278.2335 L196.9331,290.2635 L196.1771,293.3025 L198.1951,267.4705 Z M208.4131,264.9305 C208.4131,264.9305 208.6651,267.8505 208.9181,268.8635 C209.1701,269.8765 207.0251,274.4345 207.0251,274.4345 L207.2781,286.4645 L206.5211,289.5035 L208.4131,264.9305 Z M216.9911,262.6585 C216.9911,262.6585 217.2431,264.0515 217.1171,265.1915 C217.0021,266.2295 215.2251,270.7625 215.2251,270.7625 L215.4771,282.7925 L214.7201,285.8315 L216.9911,262.6585 Z M199.9561,264.6645 C200.0601,266.0585 199.2721,267.2555 198.1951,267.3365 C197.1181,267.4185 196.1611,266.3535 196.0561,264.9585 C195.9511,263.5635 196.7401,262.3675 197.8161,262.2865 C198.8931,262.2045 199.8511,263.2695 199.9561,264.6645 Z M210.1731,262.2585 C210.2781,263.6525 209.4901,264.8495 208.4131,264.9305 C207.3361,265.0125 206.3791,263.9475 206.2741,262.5525 C206.1691,261.1585 206.9581,259.9615 208.0341,259.8805 C209.1111,259.7985 210.0691,260.8635 210.1731,262.2585 Z M218.7511,260.3655 C218.8561,261.7605 218.0681,262.9575 216.9911,263.0385 C215.9141,263.1195 214.9561,262.0555 214.8521,260.6605 C214.7471,259.2655 215.5361,258.0695 216.6121,257.9875 C217.6891,257.9065 218.6471,258.9715 218.7511,260.3655 Z" id="Stroke-207" stroke-width="0.855" stroke-linecap="round" stroke-linejoin="round"></path><path d="M206.3837,246.0338 L201.7397,246.9118 C201.4887,246.1588 207.7647,237.7548 200.8617,232.8628 M190.3197,235.4968 C190.3197,235.4968 195.4647,238.0058 191.6997,248.4168 L200.0707,247.2398" id="Stroke-209" stroke-width="0.899" stroke-linecap="round" stroke-linejoin="round"></path><path d="M213.5671,326.517 C214.3201,328.387 214.0431,330.276 212.9501,330.736 C211.8561,331.195 210.3591,330.051 209.6061,328.181 C208.8541,326.31 209.1301,324.422 210.2241,323.962 C211.3171,323.503 212.8141,324.647 213.5671,326.517 Z" id="Stroke-211" stroke-width="1.242" stroke-linecap="round" stroke-linejoin="round"></path><path d="M84.6072,56.1432 C84.6072,56.1432 87.0862,53.3492 88.4632,54.7462 C89.8412,56.1432 90.6672,62.8492 87.9132,68.4382 C85.1582,74.0262 84.8822,72.0702 81.3022,71.5112" id="Stroke-213" stroke-width="0.817" stroke-linecap="round" stroke-linejoin="round"></path><path d="M149.2389,402.3802 C149.2389,402.3802 146.7019,408.2852 144.1659,409.4102 C141.6299,410.5352 137.1199,409.4102 137.1199,409.4102 M219.6179,413.8002 L215.7509,414.4712 M215.7509,454.4012 C215.7509,454.4012 206.7329,456.6502 196.5869,456.0882 C186.4409,455.5252 189.2589,454.9632 189.2589,454.9632" id="Stroke-215" stroke-width="1.242" stroke-linecap="round" stroke-linejoin="round"></path><path d="M190.8877,377.7466 C190.8877,376.9116 185.0727,364.9446 185.0727,364.9446 L180.3647,364.1096 L190.8877,377.7466 Z" id="Stroke-217" stroke-width="0.817" stroke-linecap="round" stroke-linejoin="round"></path><path d="M174.3406,58.3862 C175.6396,58.4622 177.3096,58.4892 179.4546,58.4382 C190.7626,58.1692 205.0316,61.3982 205.0316,61.3982 C205.0316,61.3982 204.6776,65.1602 209.4126,65.4112 C216.1826,65.7712 218.4396,59.9502 221.0796,59.5812 C221.0826,59.6112 217.7956,60.3452 221.0796,59.5812 C221.9206,72.6772 225.4216,86.9652 219.0006,99.2362" id="Stroke-219" stroke-width="0.439" stroke-linecap="round" stroke-linejoin="round"></path><path d="M209.6172,65.547 C209.6172,65.547 219.6892,66.905 218.9092,98.148" id="Stroke-221" stroke-width="1.242" stroke-linecap="round" stroke-linejoin="round"></path><path d="M99.0338,207.4033 C98.5718,203.3993 98.8568,199.3163 99.9478,195.2603 M97.4668,246.2353 C98.2908,246.2353 98.6638,246.4463 99.0468,245.6943 C99.8328,244.1483 99.7728,242.0963 99.7738,240.4143 C99.7758,236.6943 99.8588,232.9613 99.7738,229.2423 C99.6998,226.0243 99.0338,222.8603 99.0338,219.6313 L99.0338,210.4143 M95.7258,206.3453 C95.7258,203.6503 95.9828,200.8793 95.4318,198.2363 C95.2248,197.2443 95.0188,196.2523 94.8118,195.2603 M97.2928,246.2353 C96.8628,246.2773 96.2928,246.2773 96.0088,246.2773 C93.7298,240.7353 95.1538,234.9013 94.8688,229.0673 C96.0088,222.6503 95.7238,216.2333 95.7258,209.8033" id="Stroke-223" stroke-width="0.496" stroke-linecap="round" stroke-linejoin="round"></path><path d="M97.1132,177.6046 C95.9022,177.6046 94.1922,177.2456 93.0752,177.7376 C91.1552,178.5836 90.3552,181.3466 90.1172,183.2136 C89.8272,185.4846 90.3162,187.4056 91.0412,189.5386 L92.4892,195.1436 L97.1132,177.6046 Z M102.4822,225.0976 L102.4822,242.5506 L105.3002,248.6666 L105.0322,253.9156 L102.8842,253.9156 L91.8782,253.9156 L89.7312,253.9156 L89.4622,248.6666 L92.2812,242.5506 L92.2812,225.3396 L102.4822,225.0976 Z M97.6502,177.6046 L101.4082,177.6046 C101.4082,177.6046 103.6842,178.3946 104.4872,182.2536 C104.4872,182.2536 105.2912,185.1486 104.3882,187.3606 L97.6502,177.6046 Z M93.5032,208.9866 C93.7012,209.8086 93.9882,210.3916 93.9882,211.2656 C94.2752,220.2986 93.4142,229.0396 94.2752,238.0726 C92.8392,242.4436 91.4032,246.5226 92.5522,251.1846 C92.8392,251.4756 93.1262,251.7676 93.8412,251.2916 L93.5032,208.9866 Z M92.4892,195.1436 C92.4612,198.4956 92.4992,201.8536 92.8482,205.1896 L92.4892,195.1436 Z" id="Stroke-225" stroke-width="1.025" stroke-linecap="round" stroke-linejoin="round"></path><path d="M97.0975,177.5665 C96.2925,177.6835 95.2215,177.0615 94.7485,177.8935 C94.1855,178.8835 93.9855,180.4145 93.7085,181.5215 C93.0865,184.0155 92.5815,186.6195 92.5695,189.2015 L94.7485,195.0815" id="Stroke-227" stroke-width="0.763" stroke-linecap="round" stroke-linejoin="round"></path><path d="M101.1564,210.4796 C100.2754,219.5196 100.7794,228.8136 101.0304,237.8166 C101.0304,238.6876 100.7794,240.1396 101.2824,241.0116 C103.2944,244.2056 102.0374,247.6906 102.2884,251.1766 C101.7854,251.1766 101.5334,251.7566 101.0664,251.2826" id="Stroke-229" stroke-width="1.025" stroke-linecap="round" stroke-linejoin="round"></path><path d="M97.5588,177.5679 L99.9678,177.5679 C99.9678,177.5679 101.0708,180.9219 101.6978,184.8529 M101.2988,251.1699 C101.2988,253.7809 99.5428,255.8969 97.3748,255.8969 C95.2078,255.8969 93.4518,253.7809 93.4518,251.1699 M93.4518,251.1699 L101.2988,251.1699 M92.7378,247.8979 L102.4878,247.8979 M99.7598,187.7779 L93.6898,187.7779 L95.2958,194.0809 M98.4278,194.5659 L94.4498,194.5659" id="Stroke-231" stroke-width="0.763" stroke-linecap="round" stroke-linejoin="round"></path><path d="M67.183,125.5299 C68.858,126.3279 70.566,127.2269 71.686,128.7069 C72.805,130.1869 73.161,132.4079 72.025,133.8749 C70.68,135.6129 67.537,136.2089 67.602,138.4059 C67.628,139.2829 68.231,140.0229 68.815,140.6759 C73.276,145.6669 78.449,150.0199 84.129,153.5589 M91.357,193.4239 C88.525,195.5979 86.907,199.9729 88.298,203.3539 C89.556,206.4119 92.721,208.3339 95.776,209.2119 C103.287,211.3709 111.517,208.7139 117.348,203.7989 C120.546,201.1039 123.155,197.7409 125.14,194.0679 M90.702,191.5579 C87.994,193.8709 86.471,198.1229 87.969,201.4859 C89.302,204.4789 92.462,206.3469 95.506,207.1899 C103.019,209.2709 111.188,206.6089 116.998,201.6839 C120.168,198.9979 122.756,195.6549 124.728,192.0059 M147.439,236.9809 C143.81,236.8479 140.209,235.9849 136.913,234.4579 C136.809,233.6389 136.705,232.8189 136.601,231.9989 C135.381,230.6619 133.246,232.2699 131.437,232.2329 C130.68,232.2169 129.967,231.8919 129.28,231.5729 C125.578,229.8529 121.876,228.1339 118.174,226.4139" id="Stroke-233" stroke-width="0.86" stroke-linecap="round" stroke-linejoin="round"></path><path d="M148.6403,91.2667 C151.6853,92.7047 153.6203,94.8577 153.6203,97.2637 C153.6203,101.5937 147.3543,105.1047 139.6253,105.1047 C131.8953,105.1047 125.6293,101.5937 125.6293,97.2637 C125.6293,94.8577 127.5643,92.7047 130.6093,91.2667 M136.2953,231.5777 C133.8313,227.6087 131.5893,223.5007 129.5833,219.2807 C129.3033,218.6927 129.0623,217.9007 129.5453,217.4647" id="Stroke-235" stroke-width="0.457" stroke-linecap="round" stroke-linejoin="round"></path><path d="M218.3426,348.9455 C208.7206,348.8415 200.5496,342.1245 193.9236,335.7445 M218.3426,352.7905 C208.7206,352.0535 199.9656,346.5045 193.6986,339.3045 M79.4846,127.0505 C80.7066,126.8495 81.9666,127.9655 81.9166,129.2045 C81.8986,129.6665 81.7286,130.1065 81.5456,130.5305 C79.5586,135.1255 75.5966,138.8255 70.8786,140.4925 C69.5196,140.9725 67.9916,141.2825 66.6636,140.7235 C65.3356,140.1655 64.4426,138.4305 65.2146,137.2135 C65.4076,137.2115 65.6006,137.2095 65.7936,137.2065" id="Stroke-237" stroke-width="1.242" stroke-linecap="round" stroke-linejoin="round"></path><path d="M121.3631,29.6712 C121.3631,33.3752 131.9401,36.3722 145.0121,36.3722 M121.3631,28.5602 C121.3671,29.9252 122.7081,30.9032 123.7881,31.5222" id="Stroke-239" stroke-width="0.79" stroke-linecap="round" stroke-linejoin="round"></path><path d="M213.0807,207.7806 C213.0807,207.7806 212.9837,210.0196 218.8157,209.8646" id="Stroke-241" stroke-width="0.828" stroke-linecap="round" stroke-linejoin="round"></path><path d="M232.7791,212.3474 C233.7081,211.7134 233.4781,215.5064 233.7291,216.2734 C234.1801,217.6544 232.7121,217.9184 232.9571,219.1574 C233.6521,222.6804 234.5761,229.4514 234.8581,230.3994 C235.1101,231.2514 233.0431,237.7664 232.2321,239.6864 C231.2061,242.1134 230.6491,241.5204 229.9171,244.0644 C229.5451,245.3584 230.1671,247.8284 228.4611,249.0574 C226.2121,250.6774 225.5431,251.4854 226.1141,251.6834 C225.9261,252.6284 224.9361,253.3974 224.4841,254.2814 C223.8241,255.5724 223.3381,256.8164 222.5971,258.0754 C222.2701,258.6314 221.2221,259.1764 220.6211,259.4094 C219.3011,259.9224 219.0871,259.2454 218.3591,258.5504 C217.7821,258.0004 217.1761,257.9884 217.0221,257.0854 C216.8851,256.2804 217.6291,255.1344 217.8431,254.3914 C218.1601,253.2914 218.3301,252.2324 218.8011,251.1794 C219.1471,250.4054 219.7051,249.5634 219.8461,248.7394 C220.0681,247.4474 219.5901,245.8444 219.6411,244.5084 C219.7081,242.7714 219.9681,240.9644 220.1221,239.2474 C220.2941,237.3164 220.4781,237.6764 219.4291,235.9824 C218.4911,234.4694 217.9041,232.8214 217.4631,231.1104 C217.1161,231.6814 215.0971,231.7184 214.1801,232.1444 C213.1481,232.6234 212.8751,233.3044 212.5881,234.3684 C212.2741,235.5314 211.7461,236.2814 211.5341,237.4894 C211.2621,239.0384 210.4511,239.7184 209.4671,240.8674 C208.6031,241.8754 206.0521,242.2354 205.4011,241.5244 C204.6641,240.7184 205.0521,239.3744 205.2131,238.4344 C205.4761,236.8954 205.8441,234.7014 206.5091,233.3524 C207.3011,231.7444 207.4201,231.0464 207.2721,229.3654 C207.1351,227.8184 210.0721,221.6064 210.8681,220.3254" id="Stroke-243" stroke-width="0.899" stroke-linecap="round" stroke-linejoin="round"></path><path d="M229.8833,239.0979 C228.6353,240.1649 227.7233,240.2179 227.2143,241.7289 C226.8523,242.8019 226.5823,243.8219 226.3793,244.9479 C226.1703,246.1129 225.7463,247.3979 225.7903,248.5909 C225.8283,249.6459 227.2683,250.8289 226.2573,251.6519" id="Stroke-245" stroke-width="0.828" stroke-linecap="round" stroke-linejoin="round"></path><path d="M222.4589,250.985 C224.6179,252.446 226.1859,250.733 226.6889,250.723 C227.1919,250.714 230.7759,238.057 230.7759,238.057 C230.7759,238.057 233.0979,238.703 233.7129,236.739 M233.3689,218.056 C233.3689,218.056 232.9239,222.067 230.0949,222.842" id="Stroke-247" stroke-width="0.87" stroke-linecap="round" stroke-linejoin="round"></path><path d="M211.3193,219.4868 C211.3073,219.7378 211.2103,220.0548 210.9593,220.0698 C210.7073,220.0858 210.8273,219.5478 210.9883,219.7418 M212.5683,208.1138 C212.8203,208.0578 213.0713,208.0018 213.3233,207.9458 C212.4733,207.9878 211.6713,208.5528 211.3483,209.3378 C211.0263,210.1228 211.1993,211.0868 211.7753,211.7118 C212.2593,212.2368 213.0663,212.8208 212.7283,213.4488 C212.6013,213.6858 212.3403,213.8128 212.1243,213.9728 C211.3413,214.5488 211.0883,215.6138 211.1093,216.5838 C211.1303,217.5548 211.3663,218.5168 211.3193,219.4868 M215.4083,207.9028 C214.1583,207.4168 212.6663,208.4118 212.3583,209.7148 C212.0503,211.0168 212.7203,212.4058 213.7473,213.2658 C214.7743,214.1258 216.1023,214.5398 217.4173,214.8058 C221.7263,215.6748 226.3113,215.1208 230.2873,213.2488 C231.9563,212.4628 233.0553,211.3918 233.9763,209.7958 M223.1983,204.5808 C225.5173,205.1778 228.1273,204.4858 229.8433,202.8188 C230.3243,202.3518 230.8743,203.0318 231.2853,203.5608 C231.6973,204.0888 231.3373,204.7638 231.4883,205.4158 C231.5563,205.7088 231.6233,206.0198 231.5303,206.3068 C231.4373,206.5928 231.6413,206.8298 231.3593,206.7238 M229.1253,200.3218 C232.0883,199.9608 231.6903,202.2468 232.6613,205.0628 C233.1743,206.5508 232.9063,208.5648 231.4483,209.1648 M226.2283,206.6038 C226.7613,207.9708 225.4603,209.3588 224.1583,210.0398 C222.6173,210.8468 220.8813,211.2798 219.1413,211.2918" id="Stroke-249" stroke-width="1.202" stroke-linecap="round" stroke-linejoin="round"></path><path d="M197.5894,183.8962 L197.8384,194.0672 C197.8384,194.0672 199.8504,200.1932 199.8504,202.6702" id="Stroke-251" stroke-width="1.242" stroke-linecap="round" stroke-linejoin="round"></path><path d="M201.9632,202.7057 C201.9632,202.7057 200.9162,194.0947 196.6262,194.0947 C196.6262,194.0947 199.3282,190.5377 201.4432,186.7347" id="Stroke-253" stroke-width="1.131" stroke-linecap="round" stroke-linejoin="round"></path><path d="M214.2821,234.4073 C216.0871,236.0423 215.2991,239.6383 215.2991,239.6383 L215.6921,249.0163 L213.6351,237.7803" id="Stroke-255" stroke-width="1.007" stroke-linecap="round" stroke-linejoin="round"></path><path d="M211.4212,250.1416 L209.8582,241.5506" id="Stroke-257" stroke-width="0.899" stroke-linecap="round" stroke-linejoin="round"></path><path d="M92.1838,197.0959 L101.9088,197.0959 L92.1838,197.0959 Z M94.1178,217.4879 L98.8038,217.4879 L94.1178,217.4879 Z M173.2038,256.8319 L173.0408,256.8319 C172.1428,256.8319 171.4088,256.0959 171.4088,255.1969 C171.4088,254.2979 172.1428,253.5629 173.0408,253.5629 L173.2038,253.5629 C174.1008,253.5629 174.8358,254.2979 174.8358,255.1969 C174.8358,256.0959 174.1008,256.8319 173.2038,256.8319 Z M203.9358,312.7199 C203.1608,312.7199 202.5268,312.0849 202.5268,311.3089 L202.5268,308.8489 C202.5268,308.0729 203.1608,307.4389 203.9358,307.4389 C204.7108,307.4389 205.3438,308.0729 205.3438,308.8489 L205.3438,311.3089 C205.3438,312.0849 204.7108,312.7199 203.9358,312.7199 Z M137.1178,178.5949 C137.1948,180.4629 136.2798,182.0169 135.0738,182.0669 C133.8678,182.1169 132.8278,180.6429 132.7508,178.7759 C132.6738,176.9079 133.5888,175.3539 134.7948,175.3039 C136.0008,175.2539 137.0408,176.7279 137.1178,178.5949 Z M116.7318,120.5589 C116.7318,121.3439 116.2068,121.9809 115.5588,121.9809 C114.9108,121.9809 114.3858,121.3439 114.3858,120.5589 C114.3858,119.7729 114.9108,119.1359 115.5588,119.1359 C116.2068,119.1359 116.7318,119.7729 116.7318,120.5589 Z M139.2458,120.5589 C139.2458,121.3439 138.7208,121.9809 138.0738,121.9809 C137.4258,121.9809 136.9008,121.3439 136.9008,120.5589 C136.9008,119.7729 137.4258,119.1359 138.0738,119.1359 C138.7208,119.1359 139.2458,119.7729 139.2458,120.5589 Z M139.2458,77.2929 C139.2458,78.0789 138.7208,78.7159 138.0738,78.7159 C137.4258,78.7159 136.9008,78.0789 136.9008,77.2929 C136.9008,76.5079 137.4258,75.8709 138.0738,75.8709 C138.7208,75.8709 139.2458,76.5079 139.2458,77.2929 Z M161.0888,120.5589 C161.0888,121.3439 160.5638,121.9809 159.9158,121.9809 C159.2688,121.9809 158.7438,121.3439 158.7438,120.5589 C158.7438,119.7729 159.2688,119.1359 159.9158,119.1359 C160.5638,119.1359 161.0888,119.7729 161.0888,120.5589 Z" id="Stroke-259" stroke-width="1.025" stroke-linecap="round" stroke-linejoin="round"></path></g></g></svg> 