<?xml version="1.0" encoding="UTF-8"?> <svg xmlns="http://www.w3.org/2000/svg" xmlns:xlink="http://www.w3.org/1999/xlink" width="209px" height="456px" viewBox="0 0 209 456"><!-- Generator: Sketch 52.3 (67297) - http://www.bohemiancoding.com/sketch --><title>class_technologist</title><desc>Created with Sketch.</desc><g id="class_technologist" stroke="none" stroke-width="1" fill="none" fill-rule="evenodd"><g id="Group-279" stroke="#BE4734"><path d="M91.8210008,122.3324 C91.824,131.2854 83.623,138.5474 73.502,138.5504 C70.68,138.5514 68.007,137.9884 65.62,136.9814" id="Stroke-1" stroke-width="0.843" stroke-linecap="round" stroke-linejoin="round"></path><path d="M89.0748,172.8812 L68.2948,169.7842" id="Stroke-3" stroke-width="0.771" stroke-linecap="round" stroke-linejoin="round"></path><path d="M99.539,142.4224 C79.159,142.4294 68.297,151.4744 68.301,161.3764 L68.302,164.3034 L68.305,172.7414 L98.261,183.9234" id="Stroke-5" stroke-width="0.524" stroke-linecap="round" stroke-linejoin="round"></path><path d="M89.2095,130.505 C90.2345,131.077 91.2605,131.648 92.2855,132.22 C93.7675,129.33 94.9105,125.977 95.2485,122.641 L95.2485,87.432" id="Stroke-7" stroke-width="0.454" stroke-linecap="round" stroke-linejoin="round"></path><path d="M92.6233,169.5838 L80.9113,165.2478 M88.7693,132.1578 L99.5473,136.8038 C79.1633,136.8118 60.5533,144.8878 60.5563,154.7918 L68.3033,158.6898 L68.3063,167.1288 L98.2703,181.2418" id="Stroke-9" stroke-width="0.771" stroke-linecap="round" stroke-linejoin="round"></path><path d="M79.6785986,171.4402 C79.6726,155.7132 98.7256,156.1832 98.7256,156.1832 L94.1656,170.1652 L92.6166,169.5912" id="Stroke-11" stroke-width="0.851" stroke-linecap="round" stroke-linejoin="round"></path><path d="M110.2787,199.1853 C110.2817,207.9853 105.9667,215.1203 100.6417,215.1223 C95.3157,215.1243 90.9957,207.9923 90.9927,199.1923 C90.9887,190.3923 95.3037,183.2573 100.6297,183.2553 C105.9557,183.2533 110.2757,190.3853 110.2787,199.1853 Z" id="Stroke-13" stroke-width="0.766" stroke-linecap="round" stroke-linejoin="round"></path><path d="M80.1307,184.6724 C80.5897,181.3464 80.6047,180.6924 81.5057,177.7704 M100.6637,233.517401 C89.0517,233.5214 79.6807,217.6884 79.3937,196.8024" id="Stroke-15" stroke-width="0.422" stroke-linecap="round" stroke-linejoin="round"></path><polyline id="Stroke-17" stroke-width="0.766" stroke-linecap="round" stroke-linejoin="round" points="64.9571 180.4822 67.0021 175.2272 66.9971 163.3202"></polyline><path d="M73.6109,183.0707 C74.4239,180.5767 75.5829,178.2487 77.0989,176.1397" id="Stroke-19" stroke-width="0.776" stroke-linecap="round" stroke-linejoin="round"></path><path d="M109.3976,122.326 C109.4006,131.279 117.6076,138.535 127.7286,138.531 C130.5496,138.53 133.2226,137.965 135.6096,136.956" id="Stroke-21" stroke-width="0.843" stroke-linecap="round" stroke-linejoin="round"></path><path d="M112.2098,172.8466 L132.9568,169.7616 M112.2108,176.5366 L110.7618,173.0616 L90.4648,173.0696 L89.0178,176.5456" id="Stroke-23" stroke-width="0.771" stroke-linecap="round" stroke-linejoin="round"></path><path d="M101.6925,142.421596 C122.0725,142.4146 132.9405,151.4506 132.9445,161.3526 L132.9455,164.2796 L132.9485,172.7176 L103.0005,183.9216" id="Stroke-25" stroke-width="0.524" stroke-linecap="round" stroke-linejoin="round"></path><path d="M111.9195,130.2986 L109.1325,131.8546 C107.5045,128.6836 106.2645,125.2656 106.0285,121.7216 L106.0285,87.4316" id="Stroke-27" stroke-width="0.454" stroke-linecap="round" stroke-linejoin="round"></path><path d="M108.6282,169.5781 L120.3372,165.2331 M112.4572,132.1491 L101.6822,136.8031 C122.0662,136.7961 140.6822,144.8591 140.6862,154.7621 L132.9422,158.6661 L132.9452,167.1061 L102.9922,181.2401" id="Stroke-29" stroke-width="0.771" stroke-linecap="round" stroke-linejoin="round"></path><path d="M121.5743,171.4251 C121.5683,155.6981 102.5163,156.1811 102.5163,156.1811 L107.0863,170.1611 L108.6353,169.5861" id="Stroke-31" stroke-width="0.851" stroke-linecap="round" stroke-linejoin="round"></path><path d="M136.8409,220.1452 C138.1019,224.6992 139.4349,231.3562 139.7219,239.7702" id="Stroke-33" stroke-width="0.422" stroke-linecap="round" stroke-linejoin="round"></path><polyline id="Stroke-35" stroke-width="0.766" stroke-linecap="round" stroke-linejoin="round" points="136.3119 180.4817 134.2539 175.2027 134.2489 163.2967"></polyline><path d="M99.5022,139.5004 L99.5062,149.7714 M101.7272,139.4994 L101.7322,153.4154" id="Stroke-37" stroke-width="0.422" stroke-linecap="round" stroke-linejoin="round"></path><path d="M92.8752,188.8662 C88.9192,188.4182 82.1032,187.8502 74.9282,185.6862 C47.9102,177.5402 66.2922,176.9532 66.2922,176.9532 C66.2922,176.9532 57.6622,182.3552 94.0102,186.8412" id="Stroke-39" stroke-width="0.766" stroke-linecap="round" stroke-linejoin="round"></path><path d="M63.8498,192.0975 C65.7738,192.8975 70.4668,194.3985 73.2918,195.2305 C80.8848,197.4685 86.6238,198.5335 90.8098,198.9975 M60.1608,178.5225 L58.9318,183.2775" id="Stroke-41" stroke-width="0.802" stroke-linecap="round" stroke-linejoin="round"></path><path d="M121.0162,184.6577 C120.5552,181.3317 120.5392,180.6777 119.6362,177.7567 M100.5192,233.5177 C112.1312,233.5137 121.4902,217.6737 121.7622,196.7877" id="Stroke-43" stroke-width="0.422" stroke-linecap="round" stroke-linejoin="round"></path><path d="M127.5348,183.0512 C126.7198,180.5582 125.5588,178.2312 124.0418,176.1232" id="Stroke-45" stroke-width="0.776" stroke-linecap="round" stroke-linejoin="round"></path><path d="M108.2748,188.8606 C112.2298,188.4096 119.0468,187.8366 126.2198,185.6686 C153.2318,177.5026 134.8488,176.9286 134.8488,176.9286 C134.8488,176.9286 143.4828,182.3246 107.1378,186.8366" id="Stroke-47" stroke-width="0.766" stroke-linecap="round" stroke-linejoin="round"></path><path d="M126.1236,195.7137 C119.3876,197.6177 114.2076,198.5597 110.3476,198.9907 M140.9806,178.4937 L143.1016,186.0647" id="Stroke-49" stroke-width="0.802" stroke-linecap="round" stroke-linejoin="round"></path><path d="M106.5585,84.1002 C112.9295,83.5752 121.7645,81.1042 129.2055,72.6252 C130.5205,71.1252 130.3595,68.8542 128.8445,67.5522 C127.3285,66.2502 125.0345,66.4102 123.7205,67.9092 C119.0915,73.1842 113.7935,75.4992 109.3405,76.4462 M91.3575,76.0362 C86.9805,74.8252 82.8225,72.6562 78.6655,67.9252 C77.3495,66.4282 75.0555,66.2692 73.5405,67.5722 C72.0275,68.8752 71.8675,71.1472 73.1845,72.6452 C80.4025,80.8582 88.4955,83.4262 94.8145,84.0502" id="Stroke-51" stroke-width="0.843" stroke-linecap="round" stroke-linejoin="round"></path><path d="M95.1591,80.6625 C93.0761,80.6635 91.7211,78.9745 91.7201,76.9085 C91.7191,74.8435 93.4231,73.1525 95.5061,73.1525 L105.6741,73.1485 C107.7571,73.1475 109.4621,74.8365 109.4631,76.9025 C109.4641,78.9675 108.0401,80.6585 105.9571,80.6585" id="Stroke-53" stroke-width="0.843"></path><path d="M102.3975,89.8718 L98.7955,89.8728 C96.7205,89.8738 95.0235,88.1988 95.0225,86.1508 L95.0205,81.7938 C95.0205,79.7468 96.7165,78.0698 98.7905,78.0698 L102.3935,78.0678 C104.4675,78.0678 106.1655,79.7428 106.1655,81.7898 L106.1675,86.1468 C106.1685,88.1948 104.4715,89.8708 102.3975,89.8718 Z" id="Stroke-55" stroke-width="0.454" stroke-linecap="round" stroke-linejoin="round"></path><path d="M65.8773,146.0823 L65.5683,137.3803 C65.5683,137.3803 56.0783,130.4583 56.0753,123.2623 M135.4143,146.0573 L135.7163,137.3543 C135.7163,137.3543 144.4163,130.7223 144.413301,123.5273" id="Stroke-57" stroke-width="0.422" stroke-linecap="round" stroke-linejoin="round"></path><path d="M71.9731,70.4089 C71.3771,70.4089 48.3221,76.1209 42.9561,78.6799 C27.9341,85.8429 62.9451,99.1049 62.9451,99.1049 M129.6141,70.3879 C130.2101,70.3879 153.2701,76.0829 158.6371,78.6379 C173.6641,85.7899 138.6641,99.0769 138.6641,99.0769" id="Stroke-59" stroke-width="0.98" stroke-linecap="round" stroke-linejoin="round"></path><path d="M97.8729,86.6521 L97.8669,73.1681 M103.1949,86.8321 L103.1889,73.1671" id="Stroke-61" stroke-width="0.422" stroke-linecap="round" stroke-linejoin="round"></path><path d="M91.1051,35.2989 C91.0071,35.3969 90.8691,35.4579 90.7161,35.4579 C90.4171,35.4579 90.1741,35.2229 90.1741,34.9329 C90.1731,34.6429 90.4161,34.4069 90.7161,34.4069 C90.7911,34.4069 90.8621,34.4219 90.9271,34.4479" id="Stroke-63" stroke-width="0.843" stroke-linecap="round" stroke-linejoin="round"></path><path d="M94.3002,35.2768 C93.4012,34.1208 92.0092,33.3548 90.5452,33.2088 C89.0802,33.0628 87.5622,33.5388 86.4492,34.4948 L94.3002,35.2768 Z M92.4132,34.9318 C92.4142,35.8508 91.6622,36.5958 90.7352,36.5968 C89.8082,36.5968 89.0562,35.8518 89.0562,34.9328 C89.0562,34.0138 89.8072,33.2678 90.7342,33.2678 C91.6612,33.2668 92.4132,34.0118 92.4132,34.9318 Z M94.3732,35.3028 C94.6372,35.3808 94.9172,35.4678 95.0952,35.6768 C95.2732,35.8868 95.2812,36.2588 95.0422,36.3938 C94.9312,36.4578 94.7952,36.4558 94.6672,36.4558 C93.3722,36.4528 92.0932,36.7258 90.8002,36.7968 C89.5072,36.8688 88.1342,36.7118 87.0882,35.9558 C86.7702,35.7258 86.4732,35.4128 86.4272,35.0248 L94.3732,35.3028 Z" id="Stroke-65" stroke-width="0.422" stroke-linecap="round" stroke-linejoin="round"></path><path d="M76.8003,31.9944 C77.0193,31.6364 77.5243,31.5184 77.9253,31.6544 C78.3263,31.7904 78.6283,32.1294 78.8213,32.5014 C79.0153,32.8744 79.1173,33.2844 79.2433,33.6844 C79.5613,34.6964 80.0423,35.6584 80.6623,36.5234 C80.4283,36.4684 80.1693,36.6314 80.0183,36.8164 C79.8663,37.0004 79.8013,37.2404 79.7753,37.4754 C79.6923,38.2144 79.9733,38.9844 80.5143,39.5014 C80.5143,39.5014 81.6353,46.7474 82.3113,50.1524 C82.9883,53.5574 84.7153,57.9244 90.8693,62.6594 C97.0233,67.3954 96.8733,66.5804 100.8493,66.5794 M76.5273,35.2274 C77.0893,37.7714 77.6493,39.6404 78.7463,41.6814 C79.0673,42.2794 79.4353,42.8614 79.6203,43.5134 C79.7843,44.0884 79.8003,44.7054 80.0343,45.2564 C80.2683,45.8084 80.8313,46.3024 81.4243,46.1784 M79.2603,30.5624 C78.7813,30.0814 78.0243,29.8904 77.3703,30.0864 C76.7163,30.2824 76.1943,30.8564 76.0683,31.5194 C75.9893,31.9334 76.0553,32.3594 76.1213,32.7754 C76.2563,33.6274 76.3933,34.3764 76.5273,35.2274" id="Stroke-67" stroke-width="0.98" stroke-linecap="round" stroke-linejoin="round"></path><path d="M97.3713,32.7012 L95.3513,29.7772 L88.0293,27.7602 L83.9123,29.2232 L83.0513,31.5102 C83.0513,31.5102 85.4733,29.6482 90.3183,30.3642 C95.1633,31.0802 97.3713,32.7012 97.3713,32.7012 Z M95.1923,35.7062 C95.1923,35.7062 94.5713,32.0912 91.2613,32.0922 C87.9503,32.0932 85.9863,33.6892 85.9863,33.6892 L95.1923,35.7062 Z M79.3133,28.3412 C79.3133,28.3412 80.4303,21.1562 93.5023,19.2052 L79.3133,28.3412 Z M97.7303,48.7862 C98.0713,48.8012 98.4123,48.8172 98.7523,48.8322 C98.7013,48.5442 98.4923,48.3002 98.2403,48.1462 C97.9873,47.9922 97.6943,47.9182 97.4013,47.8682 C97.2413,47.8402 97.0613,47.8232 96.9293,47.9172 C96.7193,48.0662 96.7743,48.4162 96.9723,48.5822 C97.1693,48.7472 97.4463,48.7772 97.7043,48.7932 C97.6163,48.7822 97.5293,48.7722 97.4413,48.7612 L97.7303,48.7862 Z M95.9473,45.1112 C95.1893,45.9202 94.7493,47.1442 95.2213,48.1432 C95.5513,48.8422 96.2693,49.3032 97.0213,49.5132 C97.7733,49.7232 98.5673,49.7162 99.3483,49.7082 L95.9473,45.1112 Z M100.1873,55.7432 C98.6183,55.0912 97.0043,55.2352 95.3093,55.3902 C94.3043,55.4822 93.2993,55.5742 92.2953,55.6662 L100.1873,55.7432 Z M100.1863,53.3762 C99.1113,52.7962 98.1433,52.6822 96.9383,52.8992 C95.7333,53.1162 94.6043,53.6452 93.5653,54.2852 C93.2103,54.5032 92.8353,54.7782 92.7603,55.1842 C92.6703,55.6682 93.0453,56.1082 93.4193,56.4332 C95.4723,58.2162 97.5053,58.9942 100.1883,58.4802 L100.1863,53.3762 Z M119.1873,51.8672 C118.4973,55.4502 116.7323,60.0442 110.4343,65.0302 C104.1363,70.0152 104.2893,69.1592 100.2183,69.1602 L119.1873,51.8672 Z" id="Stroke-69" stroke-width="0.422" stroke-linecap="round" stroke-linejoin="round"></path><path d="M100.4065,2.8884 C100.4065,2.8884 110.2785,2.7144 116.3815,10.2494 C116.3815,10.2494 117.1815,16.2774 105.1185,16.8074" id="Stroke-71" stroke-width="0.98" stroke-linecap="round" stroke-linejoin="round"></path><path d="M104.4278,45.1158 C105.1888,45.9248 105.6318,47.1488 105.1588,48.1488 C104.8278,48.8488 104.1088,49.3098 103.3538,49.5208 C102.5998,49.7318 101.8028,49.7248 101.0188,49.7178 M97.8468,29.0838 L97.8458,24.1168 L100.2238,24.1158" id="Stroke-73" stroke-width="0.422" stroke-linecap="round" stroke-linejoin="round"></path><path d="M102.2509,29.1172 L97.9089,29.1192 C96.2149,29.1192 94.8279,27.7542 94.8279,26.0842 L94.8239,17.7242 C94.8239,16.0542 96.2089,14.6882 97.9029,14.6872 L102.2459,14.6862 C103.9399,14.6852 105.3259,16.0512 105.3269,17.7202 L105.3299,26.0802 C105.3299,27.7502 103.9449,29.1162 102.2509,29.1172 Z" id="Stroke-75" stroke-width="0.843" stroke-linecap="round" stroke-linejoin="round"></path><path d="M98.6474,24.0608 L98.6394,3.0998 L98.6474,24.0608 Z M101.5634,24.0598 L101.5554,3.1978 L101.5634,24.0598 Z M116.2484,34.9318 C116.2494,38.5408 113.2864,41.4668 109.6294,41.4688 C105.9724,41.4698 103.0074,38.5458 103.0054,34.9368 C103.0044,31.3278 105.9674,28.4018 109.6244,28.4008 C113.2814,28.3988 116.2474,31.3238 116.2484,34.9318 Z" id="Stroke-77" stroke-width="0.422" stroke-linecap="round" stroke-linejoin="round"></path><polygon id="Stroke-79" stroke-width="0.394" stroke-linecap="round" stroke-linejoin="round" points="114.7419 35.445 104.2739 35.449 104.2729 34.036 114.7419 34.032"></polygon><path d="M117.5564,34.9229 C117.5584,39.2499 114.0074,42.7589 109.6264,42.7599 C105.2444,42.7619 101.6914,39.2559 101.6904,34.9289 C101.6884,30.6019 105.2394,27.0929 109.6204,27.0909 C114.0014,27.0899 117.5544,30.5959 117.5564,34.9229 Z" id="Stroke-81" stroke-width="0.505" stroke-linecap="round" stroke-linejoin="round"></path><path d="M121.8656,36.8368 L121.8686,45.8728 C121.8686,45.8728 121.0816,45.8728 124.3986,45.8718 C127.7166,45.8708 127.3136,43.8218 127.3136,43.8218 C127.3136,43.8218 127.3096,32.8628 127.3086,30.6788 C127.3076,28.4938 125.6996,28.4948 125.6996,28.4948 L124.3086,28.4178 C123.8866,27.4168 126.6226,14.9268 119.8116,8.2038 C119.8116,8.2038 115.7426,4.0128 112.7356,2.4418 C109.7286,0.8708 102.3016,0.5248 102.3016,0.5248 C102.3016,0.5248 99.8846,0.0178 99.8856,2.8918 C99.8856,2.8918 86.9996,2.6748 81.6096,13.9988 C81.6096,13.9988 80.5616,15.8488 80.0376,17.9218 C79.5136,19.9938 78.6926,28.0598 79.9686,33.3878 C80.4186,35.6818 80.6506,36.5608 80.6506,36.5608" id="Stroke-83" stroke-width="0.98" stroke-linecap="round" stroke-linejoin="round"></path><path d="M124.3924,45.8625 L124.3884,34.5475 M111.8304,2.2745 C111.8304,2.2745 121.5714,10.6525 116.7924,14.8455 C112.0134,19.0375 105.2694,17.7295 105.2694,17.7295" id="Stroke-85" stroke-width="0.683" stroke-linecap="round" stroke-linejoin="round"></path><path d="M121.9209,11.5247 C121.9209,11.5247 124.2139,22.8047 121.0369,28.3477 C121.0369,28.3477 119.9069,21.1147 106.7119,19.1957" id="Stroke-87" stroke-width="0.422" stroke-linecap="round" stroke-linejoin="round"></path><path d="M121.0374,28.3437 C121.0374,28.3437 110.2524,23.5407 104.9484,28.4757" id="Stroke-89" stroke-width="0.35" stroke-linecap="round" stroke-linejoin="round"></path><path d="M86.2217,58.3524 C86.2217,58.3524 86.7307,66.8494 84.8777,68.5154 C83.0247,70.1824 82.1817,70.8494 82.1817,70.8494 M124.4757,66.3354 L124.4717,55.1734 L120.7627,51.5094 L120.7607,46.6774" id="Stroke-91" stroke-width="0.98" stroke-linecap="round" stroke-linejoin="round"></path><path d="M122.7807,46.0164 L122.7827,51.5104 L119.7407,59.0034 L111.3707,67.2464 L111.3737,75.4874 M119.7407,59.0034 L119.7447,71.1564" id="Stroke-93" stroke-width="0.843" stroke-linecap="round" stroke-linejoin="round"></path><path d="M117.5792,64.707 C114.3232,68.335 112.5062,70.672 100.1802,70.677 M101.1572,66.531 C103.3782,66.013 106.6232,64.874 109.5142,62.648 C115.6692,57.909 117.3952,53.541 118.0692,50.137 C118.7442,46.732 119.8602,39.486 119.8602,39.486 M115.0232,29.231 C115.0232,29.231 120.0892,30.56 120.0912,36.718 C120.0932,42.876 110.9772,45.708 108.2752,45.709 C107.7682,46.487 107.4692,48.23 107.2952,50.207 M103.7122,32.23 L114.8552,32.226" id="Stroke-95" stroke-width="0.98" stroke-linecap="round" stroke-linejoin="round"></path><path d="M100.3684,66.5623 C100.3674,62.5883 100.3624,51.4013 100.3624,51.5323 C104.6064,51.5313 108.2944,50.6013 110.9094,49.6783 C110.9094,49.6783 118.3894,47.2013 119.7354,40.8793" id="Stroke-97" stroke-width="0.422" stroke-linecap="round" stroke-linejoin="round"></path><path d="M95.4778,15.6481 C92.9778,13.5071 91.3188,9.7591 91.3178,5.4921 C91.3178,5.1321 91.3288,4.7751 91.3518,4.4241 M109.3068,4.7381 C109.3188,4.9851 109.3248,5.2341 109.3248,5.4851 C109.3258,9.8751 107.5738,13.7171 104.9538,15.8251 M103.2268,51.5331 L103.2308,62.8361 M142.9598,97.0651 C142.9598,97.0651 157.1008,110.8571 166.8578,101.7111" id="Stroke-99" stroke-width="0.454" stroke-linecap="round" stroke-linejoin="round"></path><path d="M132.3422,96.2236 C134.6952,97.1626 136.5102,98.0646 138.5532,99.1996 M39.0142,83.3436 C39.0142,83.3436 39.1942,80.8856 33.6392,86.6946 C28.0852,92.5036 26.6722,97.5546 26.6722,97.5546 C26.6722,97.5546 26.4442,103.6066 29.9362,109.1516 C36.4352,101.8706 56.9932,96.7396 56.9932,96.7396 L62.9622,99.0776 C66.3572,97.0346 68.3372,97.0126 72.6422,95.5676" id="Stroke-101" stroke-width="0.422" stroke-linecap="round" stroke-linejoin="round"></path><path d="M117.5272,102.0145 C112.0882,104.8835 106.1202,106.4695 99.8602,106.4715 C81.5332,106.4785 65.7062,92.9175 58.3142,73.2915 M141.4292,73.1345 C139.1472,79.2465 136.0472,84.7735 132.3082,89.4915" id="Stroke-103" stroke-width="0.454" stroke-linecap="round" stroke-linejoin="round"></path><path d="M127.5715,162.305 C128.6425,161.859 129.7435,161.267 130.7775,160.481 C129.8535,156.84 126.0415,153.176 126.0415,153.176 C123.7425,156.495 120.7855,157.713 118.8415,158.615 C120.0075,159.654 121.0055,160.81 121.8025,162.058 M122.6285,153.417 C123.1995,152.75 123.7185,151.991 124.1305,151.129 C121.6275,148.306 117.0125,146.901 117.0125,146.901 C116.5725,149.409 113.9605,153.177 112.6485,154.856 C113.7845,155.307 114.7115,155.681 115.5915,156.153 M113.3825,149.195 C113.7085,148.29 114.0085,147.272 114.2555,146.139 C110.4655,144.957 106.0695,144.564 106.0695,144.564 L105.3305,153.197 C106.7715,153.305 107.9735,153.367 109.1985,153.601 M72.9165,161.742 C72.2525,161.395 71.5905,160.985 70.9545,160.503 C71.8765,156.86 75.6855,153.195 75.6855,153.195 C77.9875,156.511 80.9455,157.727 82.8895,158.628 C81.6815,159.707 80.6525,160.911 79.8425,162.214 M79.1675,153.512 C78.5695,152.827 78.0245,152.042 77.5945,151.145 C80.0955,148.321 84.7105,146.913 84.7105,146.913 C85.1525,149.421 87.7665,153.186 89.0805,154.865 C87.6995,155.413 86.6275,155.85 85.5735,156.484 M88.2145,148.842 C87.9365,148.031 87.6825,147.133 87.4665,146.148 C91.2555,144.964 95.6515,144.568 95.6515,144.568 L96.3975,153.2 C94.9525,153.309 93.7495,153.372 92.5225,153.608" id="Stroke-105" stroke-width="0.422" stroke-linecap="round" stroke-linejoin="round"></path><path d="M94.7002989,199.2073 C94.6983,192.5393 97.3533,187.1333 100.6313,187.1313 C102.2703,187.1313 103.7543,188.4823 104.8293,190.6663 M66.1113,184.0693 C65.6523,183.6653 64.5903,182.5383 64.1503,182.1183 M91.2713,195.7253 C86.3783,194.9133 81.7513,193.4643 77.5123,191.4823 M136.9253,182.0293 C130.0393,188.9543 120.8043,193.8753 109.9733,195.6903 M127.3413,31.6503 L129.8593,34.1353 L129.8613,39.9833 L129.8623,42.0303 C129.8623,42.0303 130.1973,43.7803 127.2913,43.7813 M124.2293,22.5873 L128.6723,26.9713 L128.6743,32.8193 L128.6753,34.8663 C128.6753,34.8663 129.0103,36.6173 126.1043,36.6183 L124.5303,36.6183" id="Stroke-107" stroke-width="0.524" stroke-linecap="round" stroke-linejoin="round"></path><path d="M23.1049,145.5126 L20.8289,140.4786 C20.8289,140.4786 17.3489,134.3186 9.8129,136.3276" id="Stroke-109" stroke-width="0.859" stroke-linecap="round" stroke-linejoin="round"></path><path d="M58.7218,180.6346 C56.9008,180.3566 54.9958,180.6546 53.3498,181.4716 C52.9748,181.6586 52.5978,181.8756 52.1798,181.9046 C51.8768,181.9256 51.5768,181.8466 51.2838,181.7676 C49.4888,181.2846 47.6938,180.8016 45.8988,180.3186 L42.9268,178.8016 M55.9338,182.5746 C61.2718,184.2086 67.5158,183.1396 72.1298,186.2576 C73.5198,187.1966 74.6508,188.4576 75.7668,189.7056 C76.8918,190.9626 78.0158,192.2196 79.1398,193.4776 C79.3948,193.7616 79.6558,194.0576 79.7708,194.4196 C80.1778,195.6996 78.4288,196.7806 77.1248,196.4066 C75.8208,196.0336 74.9438,194.8716 74.0148,193.8936 C71.1608,190.8876 66.9718,189.1686 62.8048,189.2926 C62.6798,189.6946 62.5798,189.9656 62.4548,190.3666" id="Stroke-111" stroke-width="0.524" stroke-linecap="round" stroke-linejoin="round"></path><path d="M3.6391,152.0033 C1.6831,149.1763 0.8771,146.1833 0.8771,146.1833 C-0.2809,144.3303 0.2961,141.0503 0.2961,141.0503 C0.2961,141.0503 2.0301,135.7733 3.9081,132.2073 C4.8971,130.3303 8.9641,123.8083 13.7961,117.1773 M3.4891,152.0613 C4.3481,153.2893 5.7321,155.5213 6.1011,156.8113 C7.8851,163.0543 10.5661,166.5763 15.9281,173.6213 C17.0251,175.0623 20.2581,178.7223 21.7361,180.2263 L25.0671,182.8613" id="Stroke-113" stroke-width="0.859" stroke-linecap="round" stroke-linejoin="round"></path><path d="M60.7076,188.8142 C62.0996,191.6642 65.3016,193.1202 67.5376,195.3862 C68.7676,196.6322 69.7036,198.1262 70.6296,199.6082 C71.5916,201.1472 72.5536,202.6872 73.5156,204.2262 C74.0496,205.0812 74.5926,205.9552 74.8156,206.9352 C74.9516,207.5292 74.9476,208.2042 74.5706,208.6872 C74.0436,209.3622 72.9676,209.3852 72.2096,208.9762 C71.4516,208.5672 70.9316,207.8432 70.4226,207.1542 C67.0256,202.5532 62.9296,198.4572 58.3146,195.0462 L65.2616,202.3042 L69.5946,209.1512 C69.5946,209.1512 70.5636,210.7722 69.8836,211.2912 C69.5226,211.5662 67.5746,212.5752 66.5636,212.0052 C65.5536,211.4352 63.6756,209.8662 62.6646,207.8692 C61.6536,205.8722 58.7656,203.0202 58.7656,203.0202 L54.7216,199.0272 L54.1446,199.3122 C54.1446,199.3122 56.1666,201.8792 56.3106,202.3072 C56.4556,202.7352 58.9106,204.8742 58.9106,204.8742 L62.5216,210.4372 C62.5216,210.4372 60.6456,212.1502 59.6346,211.7222 C58.6236,211.2952 56.8906,209.4402 56.8906,209.4402 C56.8906,209.4402 54.1466,205.5892 53.2806,204.4482 C52.4136,203.3072 48.5146,200.3132 47.3596,199.4572 C46.2046,198.6022 40.8626,197.1772 38.5526,195.0382 C36.2416,192.8992 33.2076,187.0502 33.2076,187.0502" id="Stroke-115" stroke-width="0.524" stroke-linecap="round" stroke-linejoin="round"></path><path d="M20.4256,142.9321 C20.4256,142.9321 26.4916,136.9351 30.9686,133.0801 C35.4456,129.2241 37.3226,124.6561 37.3226,124.6561 C37.3226,124.6561 41.3666,122.5141 42.9556,120.8001 C44.5446,119.0871 50.7546,112.6621 50.7546,112.6621 L54.6546,112.3751 L57.1936,115.9721" id="Stroke-117" stroke-width="0.859" stroke-linecap="round" stroke-linejoin="round"></path><path d="M42.6178,178.5033 C42.6178,178.5033 44.2758,176.2453 40.0058,177.4273 C35.7368,178.6093 32.3678,182.9473 31.4638,186.4353" id="Stroke-119" stroke-width="0.524" stroke-linecap="round" stroke-linejoin="round"></path><path d="M23.5402,105.1824 C24.6882,114.7864 33.6152,115.7194 37.6392,117.3074 C32.0082,121.7584 35.0652,120.6454 30.8832,125.8904 C26.7012,131.1364 15.1172,136.2254 15.1172,136.2254 M21.4302,107.2684 C22.3892,115.2994 28.7912,117.2674 33.2142,118.6244 M5.5672,144.2684 C6.1332,145.2734 6.9452,146.4744 8.1092,147.9374 M16.2412,117.3724 C12.2622,122.3014 8.0982,128.7104 5.2732,136.3794 M27.3742,101.1404 C27.3742,101.1404 22.2312,105.6794 16.9782,113.5634 M3.6462,152.0064 C3.6462,152.0064 8.2982,144.5474 14.5922,144.5444 C20.8852,144.5424 23.0722,145.4884 23.0722,145.4884 L29.0562,154.2404 L31.7312,155.7804 L37.5302,164.8024 L38.6472,170.9654 C38.6472,170.9654 33.5202,171.6274 30.1792,176.2504 M34.6112,105.5944 C34.6132,111.1824 37.9022,116.0054 42.6742,118.2804 M36.3932,104.7134 C36.3952,109.5994 39.7312,113.8164 44.5722,115.8094" id="Stroke-121" stroke-width="0.422" stroke-linecap="round" stroke-linejoin="round"></path><path d="M29.0685,154.2387 C29.0685,154.2387 13.9755,154.2827 11.0405,163.5357 L29.0685,154.2387 Z M8.9095,141.2467 C8.9105,143.5497 7.6675,145.4167 6.1335,145.4177 C4.5985,145.4187 3.3545,143.5517 3.3535,141.2487 C3.3525,138.9457 4.5955,137.0777 6.1295,137.0767 C7.6645,137.0767 8.9085,138.9427 8.9095,141.2467 Z" id="Stroke-123" stroke-width="0.422" stroke-linecap="round" stroke-linejoin="round"></path><path d="M8.3019,146.2372 C7.6849,146.8252 6.9499,147.1662 6.1609,147.1662 C3.9819,147.1672 2.2139,144.5692 2.2129,141.3632 C2.2119,138.1572 3.9769,135.5582 6.1569,135.5572 C7.2459,135.5572 8.2329,136.2062 8.9469,137.2562" id="Stroke-125" stroke-width="0.591" stroke-linecap="round" stroke-linejoin="round"></path><path d="M8.0891,147.9099 C8.0891,147.9099 10.8171,155.4349 12.7461,161.8629 C16.4131,174.0789 24.7861,184.2599 26.9891,181.5119 M9.6241,145.8329 C9.6241,145.8329 10.9611,149.5659 11.4071,150.2249 C11.8521,150.8829 11.1851,153.7379 12.5211,154.3969 C13.8561,155.0549 14.7471,156.8109 14.7471,156.8109 C14.7471,156.8109 22.8421,175.8809 32.0051,173.9319" id="Stroke-127" stroke-width="0.859" stroke-linecap="round" stroke-linejoin="round"></path><path d="M30.8097,182.6664 C29.8717,184.6754 28.9557,187.1264 30.1857,188.9744 C31.0567,190.2824 32.9547,190.8034 34.3847,190.1284 M44.4457,179.3394 C45.4697,178.4794 45.1007,176.6734 43.9897,175.9254 C42.8787,175.1764 41.3737,175.2844 40.1137,175.7484 C38.8537,176.2124 37.7357,176.9864 36.5127,177.5374 C36.2587,177.6524 35.9987,177.7574 35.7377,177.8614" id="Stroke-129" stroke-width="0.524" stroke-linecap="round" stroke-linejoin="round"></path><path d="M25.1451,182.1513 C24.7301,182.9463 24.7371,183.9403 25.1641,184.7293 C25.3951,185.1593 25.7361,185.5203 26.0731,185.8753 C26.9131,186.7633 27.7541,187.6513 28.5951,188.5393 C29.1661,189.1423 29.8271,189.7883 30.6641,189.8233 C30.5831,189.6033 30.3831,189.4313 30.1521,189.3813" id="Stroke-131" stroke-width="0.859" stroke-linecap="round" stroke-linejoin="round"></path><path d="M38.5891,170.9169 C39.3281,171.5819 40.3021,171.9329 41.1021,172.5269 C41.9021,173.1199 42.5441,174.1489 42.1791,175.0689 C42.1341,175.1829 42.0451,175.3089 41.9221,175.2939 M34.4011,172.6039 C35.2711,173.0109 36.1531,173.4249 36.8901,174.0379 C37.6281,174.6499 38.2171,175.4929 38.3161,176.4399 M31.5271,174.5389 C32.3401,175.8439 33.4491,176.9689 34.7501,177.8039 M28.8551,177.9769 C29.5641,179.1709 30.6801,180.1249 31.9781,180.6459 M26.9541,181.4939 C27.8881,182.7099 29.2011,183.6369 30.6691,184.1149 C30.5621,184.0729 30.4551,184.0299 30.3481,183.9879" id="Stroke-133" stroke-width="0.422" stroke-linecap="round" stroke-linejoin="round"></path><path d="M38.4423,169.773 C38.9693,170.045 39.4973,170.317 40.0253,170.589 C41.3983,171.298 42.8033,172.03 43.8403,173.166 C45.3543,174.826 45.8903,177.294 45.1993,179.419" id="Stroke-135" stroke-width="0.859" stroke-linecap="round" stroke-linejoin="round"></path><path d="M29.2162,177.8341 C28.5682,178.2811 28.0592,178.9221 27.7752,179.6501 C27.5252,180.2941 27.4122,181.0511 26.8632,181.4771 M33.2612,169.6761 C27.9282,171.1291 27.9282,170.9481 24.9852,167.6841 C22.0412,164.4191 20.3852,160.0651 20.3852,160.0651 L20.3842,157.5251 C20.3842,157.5251 22.0402,161.8791 24.9842,165.1441 C27.9272,168.4081 27.9272,168.5901 33.2602,167.1361" id="Stroke-137" stroke-width="0.422" stroke-linecap="round" stroke-linejoin="round"></path><path d="M26.3593,124.9188 C19.5163,124.2288 12.9603,119.0308 13.2573,113.8908 C13.2573,113.8908 13.0003,109.4578 26.7203,97.5268" id="Stroke-139" stroke-width="0.859" stroke-linecap="round" stroke-linejoin="round"></path><path d="M171.4011,91.8185 L188.7961,114.3365" id="Stroke-141" stroke-width="0.843" stroke-linecap="round" stroke-linejoin="round"></path><path d="M167.9932,102.9753 L169.7202,107.8943 L165.5062,115.0873 L160.3312,115.0893 C160.3312,115.0893 178.1582,122.6523 177.3912,122.0843 C176.6252,121.5173 167.0392,115.8433 167.0392,115.8433" id="Stroke-143" stroke-width="0.524" stroke-linecap="round" stroke-linejoin="round"></path><polyline id="Stroke-145" stroke-width="0.843" stroke-linecap="round" stroke-linejoin="round" points="160.3667 115.0583 161.5797 118.0213 158.2917 120.5113 156.7727 120.8533"></polyline><path d="M149.0444,120.4779 L158.5424,129.1169 C158.5424,129.1169 162.2904,129.8569 166.7874,128.1269 C167.0374,128.1269 158.2894,120.4749 158.2894,120.4749 L177.0304,123.4309 L161.5364,118.0039 M198.9154,140.4659 C198.8194,137.9919 199.6054,136.0259 201.1194,135.5029 C203.3544,134.7319 206.3284,137.3939 207.7624,141.4489 C209.1964,145.5049 208.5464,149.4179 206.3124,150.1899 C205.1944,150.5749 203.8924,150.1029 202.6904,149.0269" id="Stroke-147" stroke-width="0.524" stroke-linecap="round" stroke-linejoin="round"></path><path d="M205.2668,153.3876 C202.7058,154.2746 199.5678,152.3386 197.3478,148.8416" id="Stroke-149" stroke-width="0.835" stroke-linecap="round" stroke-linejoin="round"></path><path d="M199.9803,137.471 C199.9803,137.471 203.3833,137.156 205.7753,141.45 C206.1033,142.037 206.3753,142.609 206.6003,143.161" id="Stroke-151" stroke-width="0.771" stroke-linecap="round" stroke-linejoin="round"></path><path d="M193.2705,118.401 C194.8425,120.747 195.0665,123.333 193.7715,124.177 C192.4755,125.021 190.1515,123.804 188.5795,121.458 C187.0075,119.112 186.7835,116.526 188.0785,115.682 C189.3745,114.838 191.6985,116.055 193.2705,118.401 Z" id="Stroke-153" stroke-width="0.524" stroke-linecap="round" stroke-linejoin="round"></path><path d="M193.6263,118.1525 C195.6943,121.2395 195.9893,124.6425 194.2853,125.7535 C192.5813,126.8645 189.5233,125.2625 187.4563,122.1755 C185.3883,119.0885 185.0933,115.6855 186.7973,114.5745 C188.5013,113.4635 191.5583,115.0655 193.6263,118.1525 Z M187.0683,117.2735 C187.0683,117.2735 189.1603,116.5415 191.3593,118.8655 C193.9083,121.5595 193.7573,124.1625 193.7573,124.1625 L187.0683,117.2735 Z M195.0163,124.1765 C195.0163,124.1765 198.7783,129.6165 201.0353,133.3245 L195.0163,124.1765 Z" id="Stroke-155" stroke-width="0.771" stroke-linecap="round" stroke-linejoin="round"></path><path d="M161.0229,133.8262 L170.2859,142.7112 L175.5429,144.1912 L166.2789,134.8122 L168.7819,133.8232 M161.9889,81.6552 C161.9889,81.6552 170.0149,85.4312 174.0209,90.1212 C178.0269,94.8102 177.5279,97.2792 177.5279,97.2792 L188.0439,110.6082 L188.7959,114.3112" id="Stroke-157" stroke-width="0.843" stroke-linecap="round" stroke-linejoin="round"></path><path d="M179.4142,119.6605 C179.0062,118.8055 173.2302,109.3755 173.2302,109.3755 L171.7922,108.1545 C171.7922,108.1545 174.0192,98.9765 170.0372,93.0985 C162.2952,81.6705 139.7142,78.1425 139.7142,78.1425" id="Stroke-159" stroke-width="0.422" stroke-linecap="round" stroke-linejoin="round"></path><path d="M178.4792,120.7305 L167.3372,108.7665 M161.7432,85.7325 C162.9082,88.5105 167.8092,89.5415 168.0442,97.5345 C168.3552,108.1495 158.4182,119.1265 146.8602,120.8895" id="Stroke-161" stroke-width="0.843" stroke-linecap="round" stroke-linejoin="round"></path><path d="M185.1873,113.0208 C184.9153,116.0148 184.0643,118.9258 182.5853,121.6358 C178.4773,129.1648 170.3963,133.5398 161.0623,134.2878" id="Stroke-163" stroke-width="0.797" stroke-linecap="round" stroke-linejoin="round"></path><path d="M205.2594,153.3801 C208.5734,152.2351 209.6594,146.7771 207.6834,141.1891 C205.7084,135.6011 201.4204,131.9991 198.1064,133.1441 C195.2634,134.1261 194.0604,138.2821 195.0224,142.9711 L192.2764,143.1681 C192.2764,143.1681 192.5264,140.6961 189.2754,140.6971 C186.0244,140.6981 180.5244,142.6781 180.5244,142.6781 L167.0134,157.3121" id="Stroke-165" stroke-width="0.766" stroke-linecap="round" stroke-linejoin="round"></path><path d="M172.5748,144.1405 L156.5388,159.4335 C153.8258,162.2705 153.1878,164.7915 153.8278,167.1545" id="Stroke-167" stroke-width="0.797" stroke-linecap="round" stroke-linejoin="round"></path><path d="M180.7688,142.1138 L171.0078,131.9768" id="Stroke-169" stroke-width="0.835" stroke-linecap="round" stroke-linejoin="round"></path><path d="M181.3162,127.0659 C181.7062,127.0659 191.5562,142.3169 191.5562,142.3169 L179.8982,157.7629" id="Stroke-171" stroke-width="0.797" stroke-linecap="round" stroke-linejoin="round"></path><path d="M180.0689,125.2191 C181.3639,128.6831 187.8439,129.2531 190.6599,131.6841 C194.5499,135.0441 195.4289,138.1831 193.6109,142.9601" id="Stroke-173" stroke-width="0.422" stroke-linecap="round" stroke-linejoin="round"></path><path d="M161.1366,134.354 C155.7186,132.256 149.4176,128.838 144.9446,125.155" id="Stroke-175" stroke-width="0.797" stroke-linecap="round" stroke-linejoin="round"></path><path d="M189.5408,145.3815 L179.0688,159.2095 C179.2928,153.0085 174.8588,156.1225 169.7618,157.0695 C164.6648,158.0155 166.2588,161.1645 166.2588,161.1645 C166.2588,161.1645 166.0988,159.4325 165.1428,158.6455 C164.1868,157.8585 162.0638,158.3875 158.1088,159.8565 L175.5428,144.1515" id="Stroke-177" stroke-width="0.422" stroke-linecap="round" stroke-linejoin="round"></path><path d="M178.6,159.9646 L177.095,161.9586 C177.297,156.3466 173.299,159.1646 168.702,160.0216 C164.106,160.8786 166.693,164.1546 166.693,164.1546 C166.693,164.1546 165.399,162.1596 164.537,161.4476 C163.675,160.7356 161.761,161.2146 158.193,162.5446" id="Stroke-179" stroke-width="0.537" stroke-linecap="round" stroke-linejoin="round"></path><path d="M179.0344,159.2075 C179.0344,159.2075 180.2434,156.2715 184.0744,157.6895 C189.4164,159.6665 192.8554,160.6825 191.4204,164.3095 C192.8554,160.3665 193.7924,158.2245 193.7924,158.2245 L197.4084,148.8435" id="Stroke-181" stroke-width="0.766" stroke-linecap="round" stroke-linejoin="round"></path><path d="M180.1226,161.9535 C180.1226,161.9535 179.8616,159.7545 183.5216,160.9265 C187.1816,162.0985 189.4426,162.9505 188.4746,165.4045 C189.4426,162.7375 190.0736,161.2885 190.0736,161.2885" id="Stroke-183" stroke-width="0.537" stroke-linecap="round" stroke-linejoin="round"></path><path d="M191.3941,164.2932 C191.3941,164.2932 196.2521,163.3122 195.0221,168.8392 L201.5281,148.6592" id="Stroke-185" stroke-width="0.422" stroke-linecap="round" stroke-linejoin="round"></path><path d="M157.3307,160.972 C157.3307,160.972 154.9407,162.389 156.3757,165.065 C154.6227,165.223 153.3477,166.01 154.4647,168.213 C155.5807,170.417 157.6537,172.147 157.6537,172.147 L159.8857,173.091 M158.1907,162.514 C157.6497,162.861 154.7827,166.167 155.8987,168.056 C157.0147,169.944 161.7977,173.09 161.7977,173.09 C161.7977,173.09 160.2037,170.73 159.4057,168.684 C158.6077,166.638 166.4167,164.117 171.1987,162.856 C175.9797,161.595 185.0657,164.582 187.1387,165.998 C189.2117,167.414 191.1277,176.385 190.3317,178.746 C189.5347,181.108 183.3217,188.35 183.3217,188.35 L179.8167,191.972 C179.8167,191.972 180.8547,193.183 180.1367,195.435 C179.1317,198.583 172.7947,201.852 172.7947,201.852" id="Stroke-187" stroke-width="0.797" stroke-linecap="round" stroke-linejoin="round"></path><path d="M186.4991,169.3017 C186.4991,169.3017 184.5881,172.9387 182.5171,175.1537 C179.6461,171.9917 175.6601,167.8827 161.1581,171.9987" id="Stroke-189" stroke-width="0.537" stroke-linecap="round" stroke-linejoin="round"></path><path d="M188.5674,169.3013 C188.5674,169.3013 184.5864,175.7593 182.5154,177.9643 C179.6464,174.8163 173.1114,170.2513 160.3644,173.4053 L159.7284,176.2403 C159.7284,176.2403 170.4024,170.8823 180.1264,181.2723 L175.1884,185.3683 L176.1454,188.8323 L181.5614,184.1063 L188.4104,174.4983" id="Stroke-191" stroke-width="0.524" stroke-linecap="round" stroke-linejoin="round"></path><path d="M203.2902,153.7503 C203.7922,154.4913 203.5412,155.7273 203.5412,155.7273 L196.3882,176.5793 C196.7492,172.6543 195.2252,169.6363 195.2252,169.6363 C195.2252,169.6363 192.6692,172.6303 189.6322,170.7403 M190.2742,178.7743 C193.4712,179.5603 195.7922,178.6403 196.3882,176.5793" id="Stroke-193" stroke-width="0.797" stroke-linecap="round" stroke-linejoin="round"></path><path d="M189.6349,171.8153 C189.6349,171.8153 192.3629,174.3513 195.2499,171.1793 M190.5989,176.0963 C190.5989,176.0963 195.2519,177.5213 196.3749,175.1423" id="Stroke-195" stroke-width="0.73" stroke-linecap="round" stroke-linejoin="round"></path><path d="M152.2413,183.1788 C152.2413,182.7048 153.6743,177.9618 159.7303,176.2208 M188.7403,178.1068 L183.6423,185.2228" id="Stroke-197" stroke-width="0.797" stroke-linecap="round" stroke-linejoin="round"></path><path d="M184.5837,165.0614 L181.5557,169.4694 L180.1227,172.6184 L178.5287,174.6654 L177.2547,178.4434 C177.2547,178.4434 173.2697,180.9634 172.1547,182.2234 C171.0387,183.4824 167.8507,186.1594 167.8507,186.1594" id="Stroke-199" stroke-width="0.422" stroke-linecap="round" stroke-linejoin="round"></path><path d="M141.148,216.5124 C137.325,219.9754 134.352,216.7174 134.352,216.7174 L133.5,214.6274 L136.748,205.9224 C137.849,202.6564 143.081,196.3974 143.081,196.3974 C143.081,196.3974 145.836,196.9404 145.01,197.2124 M133.5,216.0434 C133.5,216.0434 133.66,216.6724 130.951,215.1004 C128.241,213.5274 129.834,211.0094 129.834,211.0094 L132.614,201.5704 L137.57,193.6784 L138.672,192.3174 C138.672,192.3174 141.427,193.1324 141.427,193.9494 M154.2,182.6764 L146.713,185.1964 L137.951,187.4034 L130.941,190.3954 L127.119,193.8584 L122.66,199.6824 C122.66,199.6824 122.183,203.1444 125.529,203.1434 C128.875,203.1414 131.423,199.2074 131.423,199.2074 L135.246,196.5304" id="Stroke-201" stroke-width="0.524" stroke-linecap="round" stroke-linejoin="round"></path><path d="M174.9459,196.454 C175.0129,198.113 174.9019,199.208 174.9019,199.208 C174.9019,199.208 172.3639,205.842 165.9689,201.26 M152.2429,183.147 C153.7429,181.327 157.0849,180.333 161.7749,180.604 C169.2229,181.146 172.5049,185.797 173.9249,190.313" id="Stroke-203" stroke-width="0.766" stroke-linecap="round" stroke-linejoin="round"></path><path d="M178.387,190.3742 C171.584,197.7032 168.67,193.1192 168.67,193.1192 L154.352,201.8322 C154.352,201.8322 154.904,206.1862 152.427,209.4522 C149.949,212.7182 146.643,210.2702 146.643,210.2702 L144.442,215.4412" id="Stroke-205" stroke-width="0.422" stroke-linecap="round" stroke-linejoin="round"></path><path d="M176.6001,132.4921 L184.0721,141.4751 M184.0721,141.4751 L176.6071,151.5531" id="Stroke-207" stroke-width="0.524" stroke-linecap="round" stroke-linejoin="round"></path><path d="M143.0957,208.8964 C140.3367,209.1704 140.0597,207.5344 140.0597,207.5344 L137.0277,214.3504 C137.0277,214.3504 134.2237,216.0054 141.1547,216.5104 M135.9207,207.5354 L133.9897,207.2644 L131.7837,212.7174" id="Stroke-209" stroke-width="0.422" stroke-linecap="round" stroke-linejoin="round"></path><path d="M126.105,195.6941 C126.105,195.6941 125.72,196.6831 127.929,198.0511 C130.138,199.4181 130.966,196.9551 130.966,196.9551 C130.966,196.9551 132.622,194.4911 137.591,193.6681" id="Stroke-211" stroke-width="0.524" stroke-linecap="round" stroke-linejoin="round"></path><path d="M132.6055,201.5744 C132.6055,201.5744 132.0555,204.8384 137.2875,204.2924 C137.2875,204.2924 140.3175,207.8264 144.4475,206.4654 C144.4475,206.4654 145.5505,210.2724 150.7815,208.6384 C151.8825,205.9184 152.9835,205.3744 150.5035,201.0244 L144.4475,206.4654 L140.9755,214.9374 C140.9755,214.9374 141.6135,217.2964 142.4095,217.7674 C143.2065,218.2394 144.7525,219.3394 146.6635,217.2944 C148.5735,215.2484 152.4345,209.4544 152.4345,209.4544 L156.8975,207.0674 L165.9725,201.2444 L168.0415,197.6264 L169.6325,192.5924 L167.0825,186.7734 L161.1895,184.4164 C161.3455,176.7094 168.3515,174.6624 168.3515,174.6624 L168.5095,171.6744 L170.2615,170.1004 L170.7375,166.7974 L174.0805,162.8644" id="Stroke-213" stroke-width="0.422" stroke-linecap="round" stroke-linejoin="round"></path><path d="M137.9316,187.404 C137.9316,187.404 152.1536,186.599 158.4956,198.847 M163.7306,195.579 C164.5576,198.3 164.8346,200.206 161.2536,204.563 M161.5226,186.596 C161.5226,186.596 152.9816,191.499 148.0226,195.312 C143.0646,199.125 139.4846,206.476 139.4846,206.476 M156.0096,183.604 C156.0096,183.604 149.6726,186.328 146.0916,188.779" id="Stroke-215" stroke-width="0.524" stroke-linecap="round" stroke-linejoin="round"></path><path d="M41.3769,191.9587 C35.3539,189.1127 30.8989,183.2327 29.8279,176.7177 M129.0389,198.4627 L125.5609,203.1547" id="Stroke-217" stroke-width="0.454" stroke-linecap="round" stroke-linejoin="round"></path><path d="M146.6901,217.2576 C148.7561,224.8436 151.9791,241.8806 150.4881,260.9096 C148.5721,285.3816 145.4461,296.0736 145.4461,296.0736 L143.8121,307.7456 M147.103105,221.7086 C147.1121,243.9676 135.0701,267.4366 115.8811,273.9136" id="Stroke-219" stroke-width="0.766" stroke-linecap="round" stroke-linejoin="round"></path><path d="M112.7318,270.3808 C123.3778,267.3268 132.5038,257.7068 138.2548,244.3638" id="Stroke-221" stroke-width="1.127" stroke-linecap="round" stroke-linejoin="round"></path><path d="M124.1493,309.8003 L118.0533,315.0863 C118.0533,315.0863 114.9663,307.0633 112.7973,297.5593 C106.9233,283.9583 105.5243,271.3713 105.5243,271.3713 L102.3453,238.8663 M75.3383,309.8003 L81.4343,315.0863 C81.4343,315.0863 84.5213,307.0633 86.6913,297.5593 C92.5653,283.9583 93.9643,271.3713 93.9643,271.3713 L97.2453,238.7053" id="Stroke-223" stroke-width="0.766" stroke-linecap="round" stroke-linejoin="round"></path><path d="M129.276,215.075 C129.276,215.075 136.051,229.093 134.367,252.381" id="Stroke-225" stroke-width="0.422" stroke-linecap="round" stroke-linejoin="round"></path><path d="M128.1993,266.9798 C137.6073,265.9338 144.5923,267.3198 148.3643,271.5668 M131.8603,263.1578 C139.1393,262.6538 144.7313,263.9538 148.5533,266.7948 M134.5033,259.9388 C140.7693,259.5548 145.6003,260.6218 149.3763,262.7508 M141.4723,256.3608 C144.5363,256.5698 147.2903,257.1468 149.6003,258.0788" id="Stroke-227" stroke-width="0.879" stroke-linecap="round" stroke-linejoin="round"></path><path d="M143.8262,307.3252 C144.5732,307.6212 145.3442,329.4462 133.8572,330.9732 C122.2462,332.5172 118.9032,326.4512 117.8522,314.6822 L119.2142,331.6522 C119.2142,331.6522 118.8582,332.5502 116.5852,330.7552 C113.6282,324.2452 114.5332,313.2422 114.5332,313.2422 L117.4862,308.9752" id="Stroke-229" stroke-width="0.851" stroke-linecap="round" stroke-linejoin="round"></path><path d="M143.7635,307.6217 L147.2725,310.3117 C147.2725,310.3117 149.7295,321.7437 148.2005,330.2757 C146.1095,331.5737 143.7775,332.3157 143.7775,332.3157 C143.7775,332.3157 147.2715,320.6427 143.7635,307.6217 Z M148.2005,330.2757 C149.8585,329.1817 151.9055,323.5387 151.6545,320.0767 C151.4345,317.0457 149.6295,310.3107 147.2725,310.3117 L148.2005,330.2757 Z" id="Stroke-231" stroke-width="0.833" stroke-linecap="round" stroke-linejoin="round"></path><path d="M119.21,331.6009 L116.5,335.0159 C116.5,335.0159 123.171,341.0339 129.573,341.2939 M140.705,339.9629 C140.705,339.9629 147.907,339.4359 151.907,336.8169" id="Stroke-233" stroke-width="0.811" stroke-linecap="round" stroke-linejoin="round"></path><path d="M152.8922,347.3984 C152.8922,347.3984 140.9342,331.9074 138.2062,372.8324" id="Stroke-235" stroke-width="0.6" stroke-linecap="round" stroke-linejoin="round"></path><path d="M144.1883,432.2426 C144.1883,432.2426 149.1993,439.8756 150.7143,442.5016 C149.2013,446.5616 144.4083,450.1446 144.4083,450.1446 L139.3603,445.8486 L126.7433,445.8536 L119.4283,452.7806 M148.2173,330.2306 L141.1793,334.0966 L136.3143,395.9436 L140.6063,401.9116 M119.5433,421.8576 L116.3903,425.5606 L116.3923,432.4846 L119.1693,435.3496 L115.6383,438.6936 L115.6413,448.2446 C115.6413,448.2446 114.6343,455.6476 124.9803,455.6436 C135.3263,455.6406 145.9243,455.6366 145.9243,455.6366 C145.9243,455.6366 153.7473,456.2816 153.7453,450.1416 L153.7433,444.0016 L143.6423,426.0276 L142.3783,419.3426 L142.3713,399.7616 M119.1693,435.3496 L119.5433,421.8576 M129.8653,346.3786 C129.5393,339.4966 129.3203,335.0556 129.3203,335.0556 M117.0583,437.6366 C119.9563,435.1376 124.7183,429.2346 124.714303,417.4386" id="Stroke-237" stroke-width="0.759" stroke-linecap="round" stroke-linejoin="round"></path><path d="M121.881,450.3289 C121.881,450.3289 117.92,450.3939 117.919,446.8129 C117.918,443.2309 117.917,440.6039 117.917,440.6039 C117.917,440.6039 127.783,435.8249 127.777,418.8709 C127.774,410.5969 129.212,390.4369 128.403,371.9629 L127.301,359.1829 C128.279,378.7879 124.737,407.8609 124.74,417.9369 M117.152,424.3669 C117.152,424.3669 116.644,419.2699 117.149,417.4969 C117.654,415.7239 119.931,413.7279 119.931,413.7279 C119.931,413.7279 120.94,405.3069 120.939,401.0959 C120.937,396.8859 121.645,391.3449 119.364,382.2599 C117.084,373.1749 115.699,345.9169 115.696,339.7119 C115.696,338.1609 115.511,335.2499 116.507,335.0009" id="Stroke-239" stroke-width="0.731" stroke-linecap="round" stroke-linejoin="round"></path><path d="M144.7729,427.1386 C145.9259,426.3556 146.6809,425.0766 146.6809,423.6396 L146.6779,415.9916 C146.6769,413.6256 144.6289,411.6906 142.1269,411.6906 M136.3089,395.9186 C136.3089,395.9186 136.5589,407.2356 136.5629,416.3186 C136.5659,425.4006 144.2479,427.4506 144.2479,427.4506 M144.1949,432.2516 C140.1439,427.4866 134.1629,423.4176 127.5099,421.4456" id="Stroke-241" stroke-width="0.759" stroke-linecap="round" stroke-linejoin="round"></path><path d="M131.8606,287.0795 C130.9326,293.0505 129.6046,299.2675 127.7796,305.6765 C131.6846,318.8615 143.8106,309.0715 143.8106,309.0715 M133.1606,276.1295 C132.8696,279.6735 132.4436,283.3285 131.8606,287.0795 M144.1896,432.2385 C144.3256,437.2375 142.7386,442.2815 139.9456,446.4505" id="Stroke-243" stroke-width="0.422" stroke-linecap="round" stroke-linejoin="round"></path><path d="M145.3387,443.7843 C148.5227,446.0143 150.9277,449.2813 152.1617,452.9263 M148.2027,330.2303 C157.8847,335.9973 151.0707,361.7983 148.2017,377.7373 C145.3327,393.6753 138.9007,409.7863 141.0437,425.8343" id="Stroke-245" stroke-width="0.759" stroke-linecap="round" stroke-linejoin="round"></path><path d="M56.8665,209.4013 C56.8665,209.4013 49.4475,236.4733 51.3825,260.9413 C53.3185,285.4093 56.4705,296.0993 56.4705,296.0993 L57.5895,308.2133 C56.8425,308.5093 56.1155,329.1203 67.9405,331.3683 C79.3175,333.5313 82.8855,326.8433 83.9275,315.0943 L82.9665,332.0053 C82.9665,332.0053 83.2175,332.9093 85.4885,331.1153 C88.4395,324.6143 87.2445,313.6543 87.2445,313.6543 L84.2895,309.3973" id="Stroke-247" stroke-width="0.851" stroke-linecap="round" stroke-linejoin="round"></path><path d="M70.8649,256.9694 C68.0819,253.3204 65.6359,249.0864 63.6079,244.3904 M89.1689,270.3894 C84.4349,269.0354 79.9829,266.3834 76.0109,262.6834" id="Stroke-249" stroke-width="1.127" stroke-linecap="round" stroke-linejoin="round"></path><path d="M78.0263,308.9247 L83.9303,315.0987" id="Stroke-251" stroke-width="0.766" stroke-linecap="round" stroke-linejoin="round"></path><path d="M57.639,308.4669 L54.503,310.7139 C54.503,310.7139 51.661,321.7169 53.197,330.2479 C55.387,332.4929 58.014,332.7159 58.014,332.7159 C58.014,332.7159 54.141,321.4909 57.639,308.4669 Z M53.197,330.2479 C51.537,329.1549 49.879,323.9449 50.128,320.4829 C50.346,317.4509 52.145,310.7149 54.503,310.7139 L53.197,330.2479 Z" id="Stroke-253" stroke-width="0.833" stroke-linecap="round" stroke-linejoin="round"></path><path d="M78.0694,308.9726 L86.0214,273.9236 C66.8234,267.4596 54.7444,243.9986 54.7364,221.7396" id="Stroke-255" stroke-width="0.766" stroke-linecap="round" stroke-linejoin="round"></path><path d="M107.2515,236.6377 C105.7445,238.1927 103.1825,238.7397 100.2755,238.7407 C96.9935,238.7417 94.9335,238.0017 92.7675,236.0057 L74.7885,216.1517 C74.7885,216.1517 58.1285,254.8967 72.6135,305.7197 C68.7235,318.9097 58.9835,309.5717 58.9835,309.5717" id="Stroke-257" stroke-width="0.422" stroke-linecap="round" stroke-linejoin="round"></path><path d="M82.7197,331.7391 L85.5217,334.8871 C85.5217,334.8871 78.7597,341.0501 72.3577,341.3141 M61.2247,339.9911 C61.2247,339.9911 53.6927,339.3561 49.6907,336.7391" id="Stroke-259" stroke-width="0.811" stroke-linecap="round" stroke-linejoin="round"></path><path d="M49.0428,347.4357 C49.0428,347.4357 60.9398,332.0327 63.6978,372.9547" id="Stroke-261" stroke-width="0.6" stroke-linecap="round" stroke-linejoin="round"></path><path d="M57.8092,432.2734 C57.8092,432.2734 52.8042,439.9104 51.2912,442.5374 C52.8062,446.5964 57.6022,450.1764 57.6022,450.1764 L62.6472,445.8764 L75.2642,445.8714 L82.5842,452.7934 M57.7872,332.5694 L60.7452,334.1244 L65.6572,395.9684 L61.3692,401.9394 M82.4472,421.8704 L85.6022,425.5714 L85.6052,432.4954 L82.8302,435.3624 L86.3642,438.7034 L86.3682,448.2554 C86.3682,448.2554 87.3802,455.6574 77.0342,455.6614 C66.6882,455.6644 56.0902,455.6684 56.0902,455.6684 C56.0902,455.6684 48.2682,456.3194 48.2652,450.1794 L48.2632,444.0394 L58.3502,426.0584 L59.6092,419.3714 L59.4672,403.2424 M82.8302,435.3624 L82.4472,421.8704 M72.0692,346.3984 C72.3902,339.5154 72.6062,335.0754 72.6062,335.0754 M84.9432,437.6474 C82.0432,435.1504 77.2772,429.2514 77.2722,417.4554" id="Stroke-263" stroke-width="0.759" stroke-linecap="round" stroke-linejoin="round"></path><path d="M80.0223,450.421 C80.0223,450.421 84.0913,450.407 84.0893,446.825 C84.0883,443.243 84.0873,440.616 84.0873,440.616 C84.0873,440.616 74.2173,435.844 74.2103,418.89 C74.2073,410.616 72.7553,390.457 73.5503,371.983 L74.6423,359.202 C73.6793,378.807 77.2433,407.878 77.2463,417.954 M84.8403,424.378 C84.8403,424.378 85.3443,419.281 84.8383,417.508 C84.3313,415.736 82.0533,413.742 82.0533,413.742 C82.0533,413.742 81.0373,405.321 81.0363,401.11 C81.0343,396.9 80.3223,391.36 82.5963,382.273 C84.8703,373.186 86.2353,345.928 86.2333,339.723 C86.2323,338.172 86.4153,335.261 85.4193,335.012" id="Stroke-265" stroke-width="0.731" stroke-linecap="round" stroke-linejoin="round"></path><path d="M57.2209,427.1701 C56.0669,426.3881 55.3109,425.1101 55.3109,423.6731 L55.3079,416.0241 C55.3069,413.6581 57.1479,411.7721 59.6499,411.7711 L59.5259,411.8021 M65.6619,395.9441 C65.6619,395.9441 65.4199,407.2621 65.4239,416.3441 C65.4269,425.4261 57.9669,427.3891 57.9669,427.3891 M57.8019,432.2821 C61.8499,427.5151 67.6799,423.6161 74.3319,421.6401" id="Stroke-267" stroke-width="0.759" stroke-linecap="round" stroke-linejoin="round"></path><path d="M57.8076,432.2456 C57.6746,437.2536 59.6996,441.7546 62.5096,445.9286" id="Stroke-269" stroke-width="0.422" stroke-linecap="round" stroke-linejoin="round"></path><path d="M56.668,443.816 C53.486,446.049 50.68,449.693 49.448,453.339 M53.381,330.635 C43.704,336.409 50.876,361.834 53.757,377.771 C56.637,393.707 63.081,409.813 60.949,425.863" id="Stroke-271" stroke-width="0.759" stroke-linecap="round" stroke-linejoin="round"></path><path d="M121.9005,94.592 C122.5385,95.054 123.8245,95.769 125.6775,95.769 C128.4115,95.769 131.2235,93.905 131.2235,90.939 C131.2235,87.934 128.8735,85.652 124.8295,85.652 C120.4775,85.652 115.3545,89.533 115.3545,94.97 C115.3545,100.713 119.2065,105.278 124.6755,105.278 C129.2595,105.278 131.2325,101.855 131.2325,101.855 L131.2235,101.55 M128.9895,86.755 C128.9895,86.755 131.1465,88.01 132.3015,89.798 C133.4575,91.585 133.7655,94.476 131.6855,96.758 C129.6055,99.04 127.3335,99.648 124.6375,99.534 C121.9405,99.42 120.6315,97.671 121.9025,94.59 M127.4615,89.703 C127.4615,89.703 124.4535,88.04 121.0545,91.053 C120.2825,91.737 119.8155,92.576 119.5175,93.445 C118.5075,96.389 119.9375,99.928 122.2875,101.132 C125.3305,102.691 128.1805,101.74 129.3745,100.219 L131.2235,101.55 C131.2235,101.55 129.5285,104.365 125.2535,104.365 C121.1705,104.365 117.4725,100.485 117.4725,95.731 C117.4725,92.945 118.9745,90.883 120.7485,89.703 C122.0025,88.869 123.4105,88.554 124.3355,88.554 C126.7055,88.554 128.5275,90.167 128.5275,92.042 C128.5275,93.867 126.7555,95.122 125.0995,95.122 C123.4425,95.122 122.7115,94.438 122.7115,94.438 L121.9025,94.59" id="Stroke-273" stroke-width="0.454" stroke-linecap="round" stroke-linejoin="round"></path><path d="M134.3023,163.3467 L140.6853,157.4747 L141.1083,142.8847 C141.1083,142.8847 145.1713,136.1167 145.1683,129.5617 C145.1663,123.0067 143.8933,115.9697 143.8933,115.9697 L143.8933,114.1517 M66.6953,163.3467 L60.3113,157.4747 L59.8893,142.8847 C59.8893,142.8847 55.8263,136.1167 55.8283,129.5617 C55.8313,123.0067 57.1303,115.9697 57.1303,115.9697 L57.1303,112.7457" id="Stroke-275" stroke-width="0.843" stroke-linecap="round" stroke-linejoin="round"></path><path d="M62.9504,99.0599 C62.9504,99.0599 69.5814,115.7279 95.0634,115.7279 M138.9034,99.0599 C138.9034,99.0599 132.2724,115.7279 106.7894,115.7279" id="Stroke-277" stroke-width="0.454" stroke-linecap="round" stroke-linejoin="round"></path></g></g></svg> 